<svg width="350" height="226" viewBox="0 0 350 226" fill="none" xmlns="http://www.w3.org/2000/svg">
<rect x="0.5" y="0.5" width="349" height="225" rx="11.5" fill="#F3F3F3" stroke="#0E0A0A"/>
<rect x="31.5" y="31.5" width="137" height="74" rx="3.5" fill="white" stroke="#0E0A0A"/>
<path d="M48.292 55L47.3135 48.35H48.3395L49.1375 54.3065H49.2895L50.3155 48.35H52.111L53.137 54.3065H53.289L54.0775 48.35H55.1035L54.125 55H52.3295L51.2845 48.958H51.1325L50.097 55H48.292ZM58.0576 55.133C57.5889 55.133 57.1709 55.038 56.8036 54.848C56.4426 54.6517 56.1576 54.373 55.9486 54.012C55.7396 53.651 55.6351 53.2235 55.6351 52.7295V52.587C55.6351 52.093 55.7396 51.6687 55.9486 51.314C56.1576 50.953 56.4426 50.6743 56.8036 50.478C57.1709 50.2817 57.5889 50.1835 58.0576 50.1835C58.5262 50.1835 58.9442 50.2817 59.3116 50.478C59.6789 50.6743 59.9671 50.953 60.1761 51.314C60.3851 51.6687 60.4896 52.093 60.4896 52.587V52.7295C60.4896 53.2235 60.3851 53.651 60.1761 54.012C59.9671 54.373 59.6789 54.6517 59.3116 54.848C58.9442 55.038 58.5262 55.133 58.0576 55.133ZM58.0576 54.259C58.4882 54.259 58.8366 54.1228 59.1026 53.8505C59.3749 53.5718 59.5111 53.1887 59.5111 52.701V52.6155C59.5111 52.1278 59.3781 51.7478 59.1121 51.4755C58.8461 51.1968 58.4946 51.0575 58.0576 51.0575C57.6332 51.0575 57.2849 51.1968 57.0126 51.4755C56.7466 51.7478 56.6136 52.1278 56.6136 52.6155V52.701C56.6136 53.1887 56.7466 53.5718 57.0126 53.8505C57.2849 54.1228 57.6332 54.259 58.0576 54.259ZM61.5178 55V50.3165H62.4773V50.8675H62.6293C62.7053 50.6712 62.8256 50.5287 62.9903 50.44C63.1613 50.345 63.3703 50.2975 63.6173 50.2975H64.1778V51.181H63.5793C63.2626 51.181 63.0029 51.2697 62.8003 51.447C62.5976 51.618 62.4963 51.884 62.4963 52.245V55H61.5178ZM66.7726 55.133C66.3863 55.133 66.0285 55.038 65.6991 54.848C65.3698 54.658 65.1038 54.3857 64.9011 54.031C64.7048 53.67 64.6066 53.2362 64.6066 52.7295V52.587C64.6066 52.0867 64.7048 51.656 64.9011 51.295C65.0975 50.934 65.3603 50.6585 65.6896 50.4685C66.019 50.2785 66.38 50.1835 66.7726 50.1835C67.0766 50.1835 67.33 50.2215 67.5326 50.2975C67.7416 50.3735 67.9126 50.4717 68.0456 50.592C68.1786 50.706 68.28 50.8263 68.3496 50.953H68.5016V48.35H69.4801V55H68.5206V54.335H68.3686C68.2483 54.5377 68.0646 54.7213 67.8176 54.886C67.577 55.0507 67.2286 55.133 66.7726 55.133ZM67.0481 54.278C67.4725 54.278 67.8208 54.1418 68.0931 53.8695C68.3718 53.5972 68.5111 53.2077 68.5111 52.701V52.6155C68.5111 52.1152 68.375 51.7288 68.1026 51.4565C67.8303 51.1842 67.4788 51.048 67.0481 51.048C66.6301 51.048 66.2818 51.1842 66.0031 51.4565C65.7308 51.7288 65.5946 52.1152 65.5946 52.6155V52.701C65.5946 53.2077 65.7308 53.5972 66.0031 53.8695C66.2818 54.1418 66.6301 54.278 67.0481 54.278ZM72.6496 55.133C72.0542 55.133 71.5602 55 71.1676 54.734C70.7749 54.468 70.5342 54.0658 70.4456 53.5275L71.3576 53.309C71.4082 53.5687 71.4937 53.7745 71.6141 53.9265C71.7344 54.0785 71.8832 54.1862 72.0606 54.2495C72.2442 54.3128 72.4406 54.3445 72.6496 54.3445C72.9599 54.3445 73.1974 54.2843 73.3621 54.164C73.5331 54.0437 73.6186 53.8885 73.6186 53.6985C73.6186 53.5085 73.5394 53.3692 73.3811 53.2805C73.2227 53.1918 72.9884 53.119 72.6781 53.062L72.3551 53.005C72.0384 52.948 71.7502 52.8657 71.4906 52.758C71.2309 52.6503 71.0251 52.5015 70.8731 52.3115C70.7211 52.1215 70.6451 51.8777 70.6451 51.58C70.6451 51.1367 70.8097 50.7947 71.1391 50.554C71.4684 50.307 71.9054 50.1835 72.4501 50.1835C72.9757 50.1835 73.4064 50.3038 73.7421 50.5445C74.0841 50.7788 74.3057 51.0987 74.4071 51.504L73.4951 51.7605C73.4381 51.4755 73.3177 51.276 73.1341 51.162C72.9504 51.0417 72.7224 50.9815 72.4501 50.9815C72.1841 50.9815 71.9751 51.0322 71.8231 51.1335C71.6711 51.2285 71.5951 51.3647 71.5951 51.542C71.5951 51.732 71.6679 51.8713 71.8136 51.96C71.9656 52.0487 72.1682 52.1152 72.4216 52.1595L72.7541 52.2165C73.0897 52.2735 73.3969 52.3527 73.6756 52.454C73.9542 52.5553 74.1727 52.701 74.3311 52.891C74.4957 53.081 74.5781 53.3343 74.5781 53.651C74.5781 54.1197 74.4039 54.4838 74.0556 54.7435C73.7072 55.0032 73.2386 55.133 72.6496 55.133Z" fill="black"/>
<path d="M47.05 85V82.9C47.05 81.6833 47.25 80.675 47.65 79.875C48.05 79.0583 48.625 78.3917 49.375 77.875C50.1417 77.3417 51.075 76.9083 52.175 76.575L53.85 76.05C54.4667 75.85 54.9833 75.6083 55.4 75.325C55.8167 75.025 56.1333 74.6667 56.35 74.25C56.5833 73.8333 56.7 73.3583 56.7 72.825V72.725C56.7 71.8917 56.4167 71.2333 55.85 70.75C55.2833 70.25 54.5083 70 53.525 70C52.5583 70 51.775 70.2667 51.175 70.8C50.5917 71.3167 50.3 72.0667 50.3 73.05V73.5H47.1V73.1C47.1 71.8333 47.3833 70.7583 47.95 69.875C48.5167 68.9917 49.2833 68.3167 50.25 67.85C51.2333 67.3833 52.325 67.15 53.525 67.15C54.725 67.15 55.8083 67.3833 56.775 67.85C57.7417 68.3 58.5 68.9417 59.05 69.775C59.6167 70.5917 59.9 71.5583 59.9 72.675V72.925C59.9 74.0417 59.6667 74.9917 59.2 75.775C58.75 76.5417 58.1333 77.175 57.35 77.675C56.5667 78.1583 55.675 78.5583 54.675 78.875L53.075 79.375C52.3583 79.5917 51.8 79.8333 51.4 80.1C51 80.35 50.7167 80.6333 50.55 80.95C50.4 81.25 50.325 81.6167 50.325 82.05V82.15H59.75V85H47.05ZM63.3746 85V84.35C63.3746 83.7 63.4246 83.15 63.5246 82.7C63.6246 82.2333 63.8413 81.7083 64.1746 81.125L70.0496 70.75V70.35H60.7496V67.5H73.3496V71.3L67.1496 82.375C66.9329 82.7583 66.7829 83.1 66.6996 83.4C66.6163 83.7 66.5746 84.0667 66.5746 84.5V85H63.3746ZM73.7084 88.675V86.975H74.6834C75.4501 86.975 75.8334 86.5917 75.8334 85.825V85.025H75.4084C74.7417 85.025 74.1834 84.825 73.7334 84.425C73.3001 84.025 73.0834 83.5167 73.0834 82.9C73.0834 82.2333 73.3001 81.6917 73.7334 81.275C74.1834 80.8583 74.7417 80.65 75.4084 80.65C76.0917 80.65 76.6501 80.8667 77.0834 81.3C77.5167 81.7167 77.7334 82.2833 77.7334 83V85.875C77.7334 87.7417 76.8001 88.675 74.9334 88.675H73.7084ZM86.182 85.35C84.8654 85.35 83.6987 85.1167 82.682 84.65C81.6654 84.1833 80.8654 83.5167 80.282 82.65C79.7154 81.7667 79.432 80.725 79.432 79.525V79.075H82.632V79.425C82.632 80.3583 82.957 81.1083 83.607 81.675C84.257 82.225 85.1154 82.5 86.182 82.5C87.2654 82.5 88.0987 82.2417 88.682 81.725C89.282 81.2083 89.582 80.5583 89.582 79.775V79.525C89.582 78.9917 89.4487 78.5583 89.182 78.225C88.9154 77.8917 88.557 77.65 88.107 77.5C87.657 77.3333 87.1487 77.25 86.582 77.25H83.082V73.75L88.732 70.75V70.35H79.882V67.5H92.282V71.75L87.007 74.55V74.95H87.932C88.7154 74.95 89.4737 75.1083 90.207 75.425C90.957 75.7417 91.5737 76.2333 92.057 76.9C92.5404 77.55 92.782 78.4 92.782 79.45V79.75C92.782 80.8833 92.507 81.875 91.957 82.725C91.407 83.5583 90.632 84.2083 89.632 84.675C88.6487 85.125 87.4987 85.35 86.182 85.35ZM100.892 85.35C99.5753 85.35 98.4087 85.1167 97.392 84.65C96.3753 84.1833 95.5753 83.5167 94.992 82.65C94.4253 81.7667 94.142 80.725 94.142 79.525V79.075H97.342V79.425C97.342 80.3583 97.667 81.1083 98.317 81.675C98.967 82.225 99.8253 82.5 100.892 82.5C101.975 82.5 102.809 82.2417 103.392 81.725C103.992 81.2083 104.292 80.5583 104.292 79.775V79.525C104.292 78.9917 104.159 78.5583 103.892 78.225C103.625 77.8917 103.267 77.65 102.817 77.5C102.367 77.3333 101.859 77.25 101.292 77.25H97.792V73.75L103.442 70.75V70.35H94.592V67.5H106.992V71.75L101.717 74.55V74.95H102.642C103.425 74.95 104.184 75.1083 104.917 75.425C105.667 75.7417 106.284 76.2333 106.767 76.9C107.25 77.55 107.492 78.4 107.492 79.45V79.75C107.492 80.8833 107.217 81.875 106.667 82.725C106.117 83.5583 105.342 84.2083 104.342 84.675C103.359 85.125 102.209 85.35 100.892 85.35ZM109.052 85V82.9C109.052 81.6833 109.252 80.675 109.652 79.875C110.052 79.0583 110.627 78.3917 111.377 77.875C112.144 77.3417 113.077 76.9083 114.177 76.575L115.852 76.05C116.469 75.85 116.985 75.6083 117.402 75.325C117.819 75.025 118.135 74.6667 118.352 74.25C118.585 73.8333 118.702 73.3583 118.702 72.825V72.725C118.702 71.8917 118.419 71.2333 117.852 70.75C117.285 70.25 116.51 70 115.527 70C114.56 70 113.777 70.2667 113.177 70.8C112.594 71.3167 112.302 72.0667 112.302 73.05V73.5H109.102V73.1C109.102 71.8333 109.385 70.7583 109.952 69.875C110.519 68.9917 111.285 68.3167 112.252 67.85C113.235 67.3833 114.327 67.15 115.527 67.15C116.727 67.15 117.81 67.3833 118.777 67.85C119.744 68.3 120.502 68.9417 121.052 69.775C121.619 70.5917 121.902 71.5583 121.902 72.675V72.925C121.902 74.0417 121.669 74.9917 121.202 75.775C120.752 76.5417 120.135 77.175 119.352 77.675C118.569 78.1583 117.677 78.5583 116.677 78.875L115.077 79.375C114.36 79.5917 113.802 79.8333 113.402 80.1C113.002 80.35 112.719 80.6333 112.552 80.95C112.402 81.25 112.327 81.6167 112.327 82.05V82.15H121.752V85H109.052Z" fill="black"/>
<rect x="183.5" y="31.5" width="137" height="74" rx="3.5" fill="white" stroke="#0E0A0A"/>
<path d="M199.694 55V48.35H200.72V55H199.694ZM201.944 55V50.3165H202.904V51.0195H203.056C203.144 50.8295 203.303 50.6522 203.531 50.4875C203.759 50.3228 204.097 50.2405 204.547 50.2405C204.902 50.2405 205.215 50.3197 205.488 50.478C205.766 50.6363 205.985 50.8612 206.143 51.1525C206.301 51.4375 206.381 51.7827 206.381 52.188V55H205.402V52.264C205.402 51.8587 205.301 51.561 205.098 51.371C204.895 51.1747 204.617 51.0765 204.262 51.0765C203.857 51.0765 203.531 51.2095 203.284 51.4755C203.043 51.7415 202.923 52.1278 202.923 52.6345V55H201.944ZM209.226 55C208.941 55 208.713 54.9145 208.542 54.7435C208.378 54.5725 208.295 54.3445 208.295 54.0595V51.143H207.003V50.3165H208.295V48.768H209.274V50.3165H210.67V51.143H209.274V53.8885C209.274 54.0785 209.363 54.1735 209.54 54.1735H210.518V55H209.226ZM213.61 55.133C213.135 55.133 212.72 55.0348 212.366 54.8385C212.011 54.6358 211.732 54.354 211.53 53.993C211.333 53.6257 211.235 53.2013 211.235 52.72V52.606C211.235 52.1183 211.333 51.694 211.53 51.333C211.726 50.9657 211.998 50.6838 212.347 50.4875C212.701 50.2848 213.11 50.1835 213.572 50.1835C214.022 50.1835 214.414 50.2848 214.75 50.4875C215.092 50.6838 215.358 50.9593 215.548 51.314C215.738 51.6687 215.833 52.0835 215.833 52.5585V52.929H212.233C212.245 53.3407 212.381 53.67 212.641 53.917C212.907 54.1577 213.236 54.278 213.629 54.278C213.996 54.278 214.272 54.1957 214.456 54.031C214.646 53.8663 214.791 53.6763 214.893 53.461L215.7 53.879C215.611 54.0563 215.482 54.2432 215.311 54.4395C215.146 54.6358 214.927 54.8005 214.655 54.9335C214.383 55.0665 214.034 55.133 213.61 55.133ZM212.242 52.1785H214.836C214.81 51.8238 214.684 51.5483 214.456 51.352C214.228 51.1493 213.93 51.048 213.563 51.048C213.195 51.048 212.894 51.1493 212.66 51.352C212.432 51.5483 212.293 51.8238 212.242 52.1785ZM216.821 55V50.3165H217.78V51.0195H217.932C218.021 50.8295 218.179 50.6522 218.407 50.4875C218.635 50.3228 218.974 50.2405 219.424 50.2405C219.779 50.2405 220.092 50.3197 220.364 50.478C220.643 50.6363 220.862 50.8612 221.02 51.1525C221.178 51.4375 221.257 51.7827 221.257 52.188V55H220.279V52.264C220.279 51.8587 220.178 51.561 219.975 51.371C219.772 51.1747 219.494 51.0765 219.139 51.0765C218.734 51.0765 218.407 51.2095 218.16 51.4755C217.92 51.7415 217.799 52.1278 217.799 52.6345V55H216.821ZM224.103 55C223.818 55 223.59 54.9145 223.419 54.7435C223.255 54.5725 223.172 54.3445 223.172 54.0595V51.143H221.88V50.3165H223.172V48.768H224.151V50.3165H225.547V51.143H224.151V53.8885C224.151 54.0785 224.239 54.1735 224.417 54.1735H225.395V55H224.103ZM228.426 55.133C227.83 55.133 227.336 55 226.944 54.734C226.551 54.468 226.31 54.0658 226.222 53.5275L227.134 53.309C227.184 53.5687 227.27 53.7745 227.39 53.9265C227.511 54.0785 227.659 54.1862 227.837 54.2495C228.02 54.3128 228.217 54.3445 228.426 54.3445C228.736 54.3445 228.974 54.2843 229.138 54.164C229.309 54.0437 229.395 53.8885 229.395 53.6985C229.395 53.5085 229.316 53.3692 229.157 53.2805C228.999 53.1918 228.765 53.119 228.454 53.062L228.131 53.005C227.815 52.948 227.526 52.8657 227.267 52.758C227.007 52.6503 226.801 52.5015 226.649 52.3115C226.497 52.1215 226.421 51.8777 226.421 51.58C226.421 51.1367 226.586 50.7947 226.915 50.554C227.245 50.307 227.682 50.1835 228.226 50.1835C228.752 50.1835 229.183 50.3038 229.518 50.5445C229.86 50.7788 230.082 51.0987 230.183 51.504L229.271 51.7605C229.214 51.4755 229.094 51.276 228.91 51.162C228.727 51.0417 228.499 50.9815 228.226 50.9815C227.96 50.9815 227.751 51.0322 227.599 51.1335C227.447 51.2285 227.371 51.3647 227.371 51.542C227.371 51.732 227.444 51.8713 227.59 51.96C227.742 52.0487 227.944 52.1152 228.198 52.1595L228.53 52.2165C228.866 52.2735 229.173 52.3527 229.452 52.454C229.73 52.5553 229.949 52.701 230.107 52.891C230.272 53.081 230.354 53.3343 230.354 53.651C230.354 54.1197 230.18 54.4838 229.832 54.7435C229.483 55.0032 229.015 55.133 228.426 55.133Z" fill="black"/>
<path d="M204.45 85V69.85H204L201.65 75.4H198.3L201.875 67.5H207.65V85H204.45ZM210.779 88.675V86.975H211.754C212.52 86.975 212.904 86.5917 212.904 85.825V85.025H212.479C211.812 85.025 211.254 84.825 210.804 84.425C210.37 84.025 210.154 83.5167 210.154 82.9C210.154 82.2333 210.37 81.6917 210.804 81.275C211.254 80.8583 211.812 80.65 212.479 80.65C213.162 80.65 213.72 80.8667 214.154 81.3C214.587 81.7167 214.804 82.2833 214.804 83V85.875C214.804 87.7417 213.87 88.675 212.004 88.675H210.779ZM223.252 85.35C221.936 85.35 220.769 85.1167 219.752 84.65C218.736 84.1833 217.936 83.5167 217.352 82.65C216.786 81.7667 216.502 80.725 216.502 79.525V79.075H219.702V79.425C219.702 80.3583 220.027 81.1083 220.677 81.675C221.327 82.225 222.186 82.5 223.252 82.5C224.336 82.5 225.169 82.2417 225.752 81.725C226.352 81.2083 226.652 80.5583 226.652 79.775V79.525C226.652 78.9917 226.519 78.5583 226.252 78.225C225.986 77.8917 225.627 77.65 225.177 77.5C224.727 77.3333 224.219 77.25 223.652 77.25H220.152V73.75L225.802 70.75V70.35H216.952V67.5H229.352V71.75L224.077 74.55V74.95H225.002C225.786 74.95 226.544 75.1083 227.277 75.425C228.027 75.7417 228.644 76.2333 229.127 76.9C229.611 77.55 229.852 78.4 229.852 79.45V79.75C229.852 80.8833 229.577 81.875 229.027 82.725C228.477 83.5583 227.702 84.2083 226.702 84.675C225.719 85.125 224.569 85.35 223.252 85.35ZM237.862 85.35C236.529 85.35 235.346 85.15 234.312 84.75C233.296 84.35 232.496 83.775 231.912 83.025C231.346 82.2583 231.062 81.3583 231.062 80.325V80.025C231.062 79.225 231.204 78.5667 231.487 78.05C231.771 77.5167 232.121 77.1 232.537 76.8C232.971 76.5 233.379 76.2917 233.762 76.175V75.725C233.379 75.5917 232.996 75.375 232.612 75.075C232.229 74.775 231.912 74.375 231.662 73.875C231.429 73.375 231.312 72.775 231.312 72.075V71.775C231.312 70.8583 231.579 70.0583 232.112 69.375C232.662 68.675 233.429 68.1333 234.412 67.75C235.396 67.35 236.546 67.15 237.862 67.15C239.179 67.15 240.329 67.35 241.312 67.75C242.296 68.1333 243.054 68.675 243.587 69.375C244.137 70.0583 244.412 70.8583 244.412 71.775V72.075C244.412 72.775 244.287 73.375 244.037 73.875C243.804 74.375 243.496 74.775 243.112 75.075C242.746 75.375 242.362 75.5917 241.962 75.725V76.175C242.362 76.2917 242.771 76.5 243.187 76.8C243.604 77.1 243.954 77.5167 244.237 78.05C244.521 78.5667 244.662 79.225 244.662 80.025V80.325C244.662 81.3583 244.371 82.2583 243.787 83.025C243.221 83.775 242.421 84.35 241.387 84.75C240.371 85.15 239.196 85.35 237.862 85.35ZM237.862 82.5C239.012 82.5 239.896 82.2833 240.512 81.85C241.146 81.4 241.462 80.8083 241.462 80.075V79.875C241.462 79.1417 241.154 78.5583 240.537 78.125C239.937 77.675 239.046 77.45 237.862 77.45C236.696 77.45 235.804 77.675 235.187 78.125C234.571 78.5583 234.262 79.1417 234.262 79.875V80.075C234.262 80.8083 234.571 81.4 235.187 81.85C235.821 82.2833 236.712 82.5 237.862 82.5ZM237.862 74.6C238.929 74.6 239.754 74.4083 240.337 74.025C240.921 73.6417 241.212 73.1 241.212 72.4V72.2C241.212 71.5 240.912 70.9583 240.312 70.575C239.712 70.1917 238.896 70 237.862 70C236.829 70 236.012 70.1917 235.412 70.575C234.812 70.9583 234.512 71.5 234.512 72.2V72.4C234.512 73.1 234.804 73.6417 235.387 74.025C235.971 74.4083 236.796 74.6 237.862 74.6ZM245.903 85V82.9C245.903 81.6833 246.103 80.675 246.503 79.875C246.903 79.0583 247.478 78.3917 248.228 77.875C248.994 77.3417 249.928 76.9083 251.028 76.575L252.703 76.05C253.319 75.85 253.836 75.6083 254.253 75.325C254.669 75.025 254.986 74.6667 255.203 74.25C255.436 73.8333 255.553 73.3583 255.553 72.825V72.725C255.553 71.8917 255.269 71.2333 254.703 70.75C254.136 70.25 253.361 70 252.378 70C251.411 70 250.628 70.2667 250.028 70.8C249.444 71.3167 249.153 72.0667 249.153 73.05V73.5H245.953V73.1C245.953 71.8333 246.236 70.7583 246.803 69.875C247.369 68.9917 248.136 68.3167 249.103 67.85C250.086 67.3833 251.178 67.15 252.378 67.15C253.578 67.15 254.661 67.3833 255.628 67.85C256.594 68.3 257.353 68.9417 257.903 69.775C258.469 70.5917 258.753 71.5583 258.753 72.675V72.925C258.753 74.0417 258.519 74.9917 258.053 75.775C257.603 76.5417 256.986 77.175 256.203 77.675C255.419 78.1583 254.528 78.5583 253.528 78.875L251.928 79.375C251.211 79.5917 250.653 79.8333 250.253 80.1C249.853 80.35 249.569 80.6333 249.403 80.95C249.253 81.25 249.178 81.6167 249.178 82.05V82.15H258.603V85H245.903Z" fill="black"/>
<rect x="31.5" y="120.5" width="137" height="74" rx="3.5" fill="white" stroke="#0E0A0A"/>
<path d="M50.1635 144.133C49.3528 144.133 48.71 143.905 48.235 143.449C47.76 142.987 47.5225 142.322 47.5225 141.454V139.896C47.5225 139.028 47.76 138.366 48.235 137.91C48.71 137.448 49.3528 137.217 50.1635 137.217C50.9615 137.217 51.5758 137.439 52.0065 137.882C52.4435 138.325 52.662 138.93 52.662 139.696V139.753H51.6455V139.668C51.6455 139.218 51.522 138.851 51.275 138.566C51.0343 138.281 50.6638 138.138 50.1635 138.138C49.6568 138.138 49.261 138.294 48.976 138.604C48.691 138.908 48.5485 139.332 48.5485 139.877V141.473C48.5485 142.011 48.691 142.436 48.976 142.746C49.261 143.056 49.6568 143.211 50.1635 143.211C50.6638 143.211 51.0343 143.069 51.275 142.784C51.522 142.493 51.6455 142.125 51.6455 141.682V141.52H52.662V141.653C52.662 142.42 52.4435 143.025 52.0065 143.468C51.5758 143.911 50.9615 144.133 50.1635 144.133ZM53.6365 144V137.35H54.615V144H53.6365ZM55.8772 144V139.316H56.8557V144H55.8772ZM56.3712 138.68C56.1812 138.68 56.0197 138.62 55.8867 138.499C55.76 138.373 55.6967 138.211 55.6967 138.015C55.6967 137.819 55.76 137.66 55.8867 137.54C56.0197 137.413 56.1812 137.35 56.3712 137.35C56.5675 137.35 56.729 137.413 56.8557 137.54C56.9823 137.66 57.0457 137.819 57.0457 138.015C57.0457 138.211 56.9823 138.373 56.8557 138.499C56.729 138.62 56.5675 138.68 56.3712 138.68ZM60.2933 144.133C59.8437 144.133 59.4352 144.038 59.0678 143.848C58.7068 143.658 58.4187 143.382 58.2033 143.021C57.9943 142.66 57.8898 142.227 57.8898 141.72V141.596C57.8898 141.09 57.9943 140.659 58.2033 140.304C58.4187 139.943 58.7068 139.668 59.0678 139.478C59.4352 139.282 59.8437 139.183 60.2933 139.183C60.743 139.183 61.1262 139.266 61.4428 139.43C61.7595 139.595 62.0128 139.814 62.2028 140.086C62.3992 140.358 62.5258 140.659 62.5828 140.988L61.6328 141.188C61.6012 140.979 61.5347 140.789 61.4333 140.618C61.332 140.447 61.1895 140.311 61.0058 140.209C60.8222 140.108 60.591 140.057 60.3123 140.057C60.04 140.057 59.793 140.121 59.5713 140.247C59.356 140.368 59.185 140.545 59.0583 140.779C58.9317 141.007 58.8683 141.286 58.8683 141.615V141.701C58.8683 142.03 58.9317 142.312 59.0583 142.546C59.185 142.781 59.356 142.958 59.5713 143.078C59.793 143.199 60.04 143.259 60.3123 143.259C60.724 143.259 61.0375 143.154 61.2528 142.945C61.4682 142.73 61.6043 142.458 61.6613 142.128L62.6113 142.347C62.5353 142.67 62.3992 142.968 62.2028 143.24C62.0128 143.512 61.7595 143.731 61.4428 143.895C61.1262 144.054 60.743 144.133 60.2933 144.133ZM63.5499 144V137.35H64.5284V141.14H64.6804L66.5234 139.316H67.8249L65.4594 141.587L67.9009 144H66.6089L64.6804 142.052H64.5284V144H63.5499ZM70.3907 144.133C69.7954 144.133 69.3014 144 68.9087 143.734C68.516 143.468 68.2754 143.066 68.1867 142.527L69.0987 142.309C69.1494 142.569 69.2349 142.774 69.3552 142.926C69.4755 143.078 69.6244 143.186 69.8017 143.249C69.9854 143.313 70.1817 143.344 70.3907 143.344C70.701 143.344 70.9385 143.284 71.1032 143.164C71.2742 143.044 71.3597 142.888 71.3597 142.698C71.3597 142.508 71.2805 142.369 71.1222 142.28C70.9639 142.192 70.7295 142.119 70.4192 142.062L70.0962 142.005C69.7795 141.948 69.4914 141.866 69.2317 141.758C68.972 141.65 68.7662 141.501 68.6142 141.311C68.4622 141.121 68.3862 140.878 68.3862 140.58C68.3862 140.137 68.5509 139.795 68.8802 139.554C69.2095 139.307 69.6465 139.183 70.1912 139.183C70.7169 139.183 71.1475 139.304 71.4832 139.544C71.8252 139.779 72.0469 140.099 72.1482 140.504L71.2362 140.76C71.1792 140.475 71.0589 140.276 70.8752 140.162C70.6915 140.042 70.4635 139.981 70.1912 139.981C69.9252 139.981 69.7162 140.032 69.5642 140.133C69.4122 140.228 69.3362 140.365 69.3362 140.542C69.3362 140.732 69.409 140.871 69.5547 140.96C69.7067 141.049 69.9094 141.115 70.1627 141.159L70.4952 141.216C70.8309 141.273 71.138 141.353 71.4167 141.454C71.6954 141.555 71.9139 141.701 72.0722 141.891C72.2369 142.081 72.3192 142.334 72.3192 142.651C72.3192 143.12 72.145 143.484 71.7967 143.743C71.4484 144.003 70.9797 144.133 70.3907 144.133Z" fill="black"/>
<path d="M52.45 174V158.85H52L49.65 164.4H46.3L49.875 156.5H55.65V174H52.45ZM64.3037 174.35C63.0037 174.35 61.8704 174.133 60.9037 173.7C59.9537 173.267 59.212 172.642 58.6787 171.825C58.162 171.008 57.9037 170.033 57.9037 168.9H61.1537C61.1537 169.6 61.3954 170.208 61.8787 170.725C62.3787 171.242 63.187 171.5 64.3037 171.5C65.437 171.5 66.3037 171.208 66.9037 170.625C67.5037 170.025 67.8037 169.217 67.8037 168.2V166.4H67.3537C67.0704 166.733 66.637 167.05 66.0537 167.35C65.487 167.65 64.637 167.8 63.5037 167.8C62.5037 167.8 61.5704 167.583 60.7037 167.15C59.837 166.717 59.137 166.092 58.6037 165.275C58.0704 164.442 57.8037 163.442 57.8037 162.275V161.975C57.8037 160.808 58.0787 159.792 58.6287 158.925C59.1787 158.058 59.9537 157.383 60.9537 156.9C61.9537 156.4 63.1204 156.15 64.4537 156.15C65.787 156.15 66.9454 156.4 67.9287 156.9C68.912 157.4 69.6704 158.092 70.2037 158.975C70.737 159.858 71.0037 160.875 71.0037 162.025V168C71.0037 169.417 70.712 170.6 70.1287 171.55C69.562 172.483 68.7704 173.183 67.7537 173.65C66.7537 174.117 65.6037 174.35 64.3037 174.35ZM64.4037 165.25C65.1037 165.25 65.7037 165.125 66.2037 164.875C66.7204 164.625 67.112 164.275 67.3787 163.825C67.662 163.375 67.8037 162.842 67.8037 162.225V162.025C67.8037 161.092 67.4954 160.358 66.8787 159.825C66.2787 159.275 65.4537 159 64.4037 159C63.3537 159 62.5204 159.275 61.9037 159.825C61.3037 160.358 61.0037 161.092 61.0037 162.025V162.225C61.0037 162.842 61.137 163.375 61.4037 163.825C61.687 164.275 62.087 164.625 62.6037 164.875C63.1204 165.125 63.7204 165.25 64.4037 165.25ZM73.4887 177.675V175.975H74.4637C75.2303 175.975 75.6137 175.592 75.6137 174.825V174.025H75.1887C74.522 174.025 73.9637 173.825 73.5137 173.425C73.0803 173.025 72.8637 172.517 72.8637 171.9C72.8637 171.233 73.0803 170.692 73.5137 170.275C73.9637 169.858 74.522 169.65 75.1887 169.65C75.872 169.65 76.4303 169.867 76.8637 170.3C77.297 170.717 77.5137 171.283 77.5137 172V174.875C77.5137 176.742 76.5803 177.675 74.7137 177.675H73.4887ZM79.4123 174V171.9C79.4123 170.683 79.6123 169.675 80.0123 168.875C80.4123 168.058 80.9873 167.392 81.7373 166.875C82.504 166.342 83.4373 165.908 84.5373 165.575L86.2123 165.05C86.829 164.85 87.3456 164.608 87.7623 164.325C88.179 164.025 88.4956 163.667 88.7123 163.25C88.9456 162.833 89.0623 162.358 89.0623 161.825V161.725C89.0623 160.892 88.779 160.233 88.2123 159.75C87.6456 159.25 86.8706 159 85.8873 159C84.9206 159 84.1373 159.267 83.5373 159.8C82.954 160.317 82.6623 161.067 82.6623 162.05V162.5H79.4623V162.1C79.4623 160.833 79.7456 159.758 80.3123 158.875C80.879 157.992 81.6456 157.317 82.6123 156.85C83.5956 156.383 84.6873 156.15 85.8873 156.15C87.0873 156.15 88.1706 156.383 89.1373 156.85C90.104 157.3 90.8623 157.942 91.4123 158.775C91.979 159.592 92.2623 160.558 92.2623 161.675V161.925C92.2623 163.042 92.029 163.992 91.5623 164.775C91.1123 165.542 90.4956 166.175 89.7123 166.675C88.929 167.158 88.0373 167.558 87.0373 167.875L85.4373 168.375C84.7206 168.592 84.1623 168.833 83.7623 169.1C83.3623 169.35 83.079 169.633 82.9123 169.95C82.7623 170.25 82.6873 170.617 82.6873 171.05V171.15H92.1123V174H79.4123ZM100.108 174.35C98.8084 174.35 97.6751 174.133 96.7084 173.7C95.7584 173.267 95.0167 172.642 94.4834 171.825C93.9667 171.008 93.7084 170.033 93.7084 168.9H96.9584C96.9584 169.6 97.2001 170.208 97.6834 170.725C98.1834 171.242 98.9917 171.5 100.108 171.5C101.242 171.5 102.108 171.208 102.708 170.625C103.308 170.025 103.608 169.217 103.608 168.2V166.4H103.158C102.875 166.733 102.442 167.05 101.858 167.35C101.292 167.65 100.442 167.8 99.3084 167.8C98.3084 167.8 97.3751 167.583 96.5084 167.15C95.6417 166.717 94.9417 166.092 94.4084 165.275C93.8751 164.442 93.6084 163.442 93.6084 162.275V161.975C93.6084 160.808 93.8834 159.792 94.4334 158.925C94.9834 158.058 95.7584 157.383 96.7584 156.9C97.7584 156.4 98.9251 156.15 100.258 156.15C101.592 156.15 102.75 156.4 103.733 156.9C104.717 157.4 105.475 158.092 106.008 158.975C106.542 159.858 106.808 160.875 106.808 162.025V168C106.808 169.417 106.517 170.6 105.933 171.55C105.367 172.483 104.575 173.183 103.558 173.65C102.558 174.117 101.408 174.35 100.108 174.35ZM100.208 165.25C100.908 165.25 101.508 165.125 102.008 164.875C102.525 164.625 102.917 164.275 103.183 163.825C103.467 163.375 103.608 162.842 103.608 162.225V162.025C103.608 161.092 103.3 160.358 102.683 159.825C102.083 159.275 101.258 159 100.208 159C99.1584 159 98.3251 159.275 97.7084 159.825C97.1084 160.358 96.8084 161.092 96.8084 162.025V162.225C96.8084 162.842 96.9417 163.375 97.2084 163.825C97.4917 164.275 97.8917 164.625 98.4084 164.875C98.9251 165.125 99.5251 165.25 100.208 165.25ZM115.163 174.35C113.846 174.35 112.679 174.117 111.663 173.65C110.646 173.183 109.846 172.517 109.263 171.65C108.696 170.767 108.413 169.725 108.413 168.525V168.075H111.613V168.425C111.613 169.358 111.938 170.108 112.588 170.675C113.238 171.225 114.096 171.5 115.163 171.5C116.246 171.5 117.079 171.242 117.663 170.725C118.263 170.208 118.563 169.558 118.563 168.775V168.525C118.563 167.992 118.429 167.558 118.163 167.225C117.896 166.892 117.538 166.65 117.088 166.5C116.638 166.333 116.129 166.25 115.563 166.25H112.063V162.75L117.713 159.75V159.35H108.863V156.5H121.263V160.75L115.988 163.55V163.95H116.913C117.696 163.95 118.454 164.108 119.188 164.425C119.938 164.742 120.554 165.233 121.038 165.9C121.521 166.55 121.763 167.4 121.763 168.45V168.75C121.763 169.883 121.488 170.875 120.938 171.725C120.388 172.558 119.613 173.208 118.613 173.675C117.629 174.125 116.479 174.35 115.163 174.35Z" fill="black"/>
<rect x="183.5" y="120.5" width="137" height="74" rx="3.5" fill="white" stroke="#0E0A0A"/>
<path d="M199.694 144V137.35H200.72V144H199.694ZM201.944 144V139.316H202.904V139.867H203.056C203.144 139.703 203.287 139.557 203.483 139.43C203.679 139.304 203.945 139.24 204.281 139.24C204.629 139.24 204.908 139.313 205.117 139.459C205.332 139.598 205.494 139.779 205.602 140H205.754C205.861 139.785 206.016 139.605 206.219 139.459C206.428 139.313 206.723 139.24 207.103 139.24C207.407 139.24 207.676 139.304 207.91 139.43C208.144 139.551 208.331 139.734 208.471 139.981C208.61 140.222 208.68 140.523 208.68 140.884V144H207.701V140.96C207.701 140.675 207.622 140.456 207.464 140.304C207.312 140.146 207.093 140.067 206.808 140.067C206.504 140.067 206.26 140.165 206.077 140.361C205.893 140.558 205.801 140.84 205.801 141.207V144H204.823V140.96C204.823 140.675 204.743 140.456 204.585 140.304C204.433 140.146 204.215 140.067 203.93 140.067C203.626 140.067 203.382 140.165 203.198 140.361C203.014 140.558 202.923 140.84 202.923 141.207V144H201.944ZM209.9 145.9V139.316H210.859V139.991H211.011C211.131 139.782 211.312 139.595 211.553 139.43C211.8 139.266 212.151 139.183 212.607 139.183C213 139.183 213.358 139.278 213.681 139.468C214.01 139.658 214.273 139.934 214.469 140.295C214.672 140.65 214.773 141.08 214.773 141.587V141.729C214.773 142.236 214.675 142.67 214.479 143.031C214.282 143.386 214.019 143.658 213.69 143.848C213.361 144.038 213 144.133 212.607 144.133C212.303 144.133 212.047 144.095 211.838 144.019C211.629 143.943 211.461 143.848 211.334 143.734C211.207 143.614 211.106 143.49 211.03 143.363H210.878V145.9H209.9ZM212.322 143.278C212.753 143.278 213.104 143.142 213.377 142.869C213.649 142.597 213.785 142.208 213.785 141.701V141.615C213.785 141.115 213.646 140.729 213.367 140.456C213.095 140.184 212.746 140.048 212.322 140.048C211.904 140.048 211.556 140.184 211.277 140.456C211.005 140.729 210.869 141.115 210.869 141.615V141.701C210.869 142.208 211.005 142.597 211.277 142.869C211.556 143.142 211.904 143.278 212.322 143.278ZM215.796 144V139.316H216.755V139.867H216.907C216.983 139.671 217.103 139.529 217.268 139.44C217.439 139.345 217.648 139.297 217.895 139.297H218.456V140.181H217.857C217.54 140.181 217.281 140.27 217.078 140.447C216.875 140.618 216.774 140.884 216.774 141.245V144H215.796ZM221.259 144.133C220.784 144.133 220.37 144.035 220.015 143.838C219.66 143.636 219.382 143.354 219.179 142.993C218.983 142.626 218.884 142.201 218.884 141.72V141.606C218.884 141.118 218.983 140.694 219.179 140.333C219.375 139.966 219.648 139.684 219.996 139.487C220.351 139.285 220.759 139.183 221.221 139.183C221.671 139.183 222.064 139.285 222.399 139.487C222.741 139.684 223.007 139.959 223.197 140.314C223.387 140.669 223.482 141.083 223.482 141.559V141.929H219.882C219.895 142.341 220.031 142.67 220.29 142.917C220.556 143.158 220.886 143.278 221.278 143.278C221.646 143.278 221.921 143.196 222.105 143.031C222.295 142.866 222.441 142.676 222.542 142.461L223.349 142.879C223.261 143.056 223.131 143.243 222.96 143.439C222.795 143.636 222.577 143.8 222.304 143.933C222.032 144.067 221.684 144.133 221.259 144.133ZM219.891 141.178H222.485C222.46 140.824 222.333 140.548 222.105 140.352C221.877 140.149 221.579 140.048 221.212 140.048C220.845 140.048 220.544 140.149 220.309 140.352C220.081 140.548 219.942 140.824 219.891 141.178ZM226.389 144.133C225.794 144.133 225.3 144 224.907 143.734C224.515 143.468 224.274 143.066 224.185 142.527L225.097 142.309C225.148 142.569 225.233 142.774 225.354 142.926C225.474 143.078 225.623 143.186 225.8 143.249C225.984 143.313 226.18 143.344 226.389 143.344C226.7 143.344 226.937 143.284 227.102 143.164C227.273 143.044 227.358 142.888 227.358 142.698C227.358 142.508 227.279 142.369 227.121 142.28C226.962 142.192 226.728 142.119 226.418 142.062L226.095 142.005C225.778 141.948 225.49 141.866 225.23 141.758C224.971 141.65 224.765 141.501 224.613 141.311C224.461 141.121 224.385 140.878 224.385 140.58C224.385 140.137 224.549 139.795 224.879 139.554C225.208 139.307 225.645 139.183 226.19 139.183C226.715 139.183 227.146 139.304 227.482 139.544C227.824 139.779 228.045 140.099 228.147 140.504L227.235 140.76C227.178 140.475 227.057 140.276 226.874 140.162C226.69 140.042 226.462 139.981 226.19 139.981C225.924 139.981 225.715 140.032 225.563 140.133C225.411 140.228 225.335 140.365 225.335 140.542C225.335 140.732 225.408 140.871 225.553 140.96C225.705 141.049 225.908 141.115 226.161 141.159L226.494 141.216C226.829 141.273 227.137 141.353 227.415 141.454C227.694 141.555 227.912 141.701 228.071 141.891C228.235 142.081 228.318 142.334 228.318 142.651C228.318 143.12 228.144 143.484 227.795 143.743C227.447 144.003 226.978 144.133 226.389 144.133ZM231.19 144.133C230.595 144.133 230.101 144 229.708 143.734C229.316 143.468 229.075 143.066 228.986 142.527L229.898 142.309C229.949 142.569 230.035 142.774 230.155 142.926C230.275 143.078 230.424 143.186 230.601 143.249C230.785 143.313 230.981 143.344 231.19 143.344C231.501 143.344 231.738 143.284 231.903 143.164C232.074 143.044 232.159 142.888 232.159 142.698C232.159 142.508 232.08 142.369 231.922 142.28C231.764 142.192 231.529 142.119 231.219 142.062L230.896 142.005C230.579 141.948 230.291 141.866 230.031 141.758C229.772 141.65 229.566 141.501 229.414 141.311C229.262 141.121 229.186 140.878 229.186 140.58C229.186 140.137 229.351 139.795 229.68 139.554C230.009 139.307 230.446 139.183 230.991 139.183C231.517 139.183 231.947 139.304 232.283 139.544C232.625 139.779 232.847 140.099 232.948 140.504L232.036 140.76C231.979 140.475 231.859 140.276 231.675 140.162C231.491 140.042 231.263 139.981 230.991 139.981C230.725 139.981 230.516 140.032 230.364 140.133C230.212 140.228 230.136 140.365 230.136 140.542C230.136 140.732 230.209 140.871 230.354 140.96C230.506 141.049 230.709 141.115 230.962 141.159L231.295 141.216C231.631 141.273 231.938 141.353 232.216 141.454C232.495 141.555 232.714 141.701 232.872 141.891C233.037 142.081 233.119 142.334 233.119 142.651C233.119 143.12 232.945 143.484 232.596 143.743C232.248 144.003 231.779 144.133 231.19 144.133ZM234.073 144V139.316H235.051V144H234.073ZM234.567 138.68C234.377 138.68 234.215 138.62 234.082 138.499C233.955 138.373 233.892 138.211 233.892 138.015C233.892 137.819 233.955 137.66 234.082 137.54C234.215 137.413 234.377 137.35 234.567 137.35C234.763 137.35 234.924 137.413 235.051 137.54C235.178 137.66 235.241 137.819 235.241 138.015C235.241 138.211 235.178 138.373 235.051 138.499C234.924 138.62 234.763 138.68 234.567 138.68ZM238.508 144.133C238.039 144.133 237.621 144.038 237.254 143.848C236.893 143.652 236.608 143.373 236.399 143.012C236.19 142.651 236.085 142.223 236.085 141.729V141.587C236.085 141.093 236.19 140.669 236.399 140.314C236.608 139.953 236.893 139.674 237.254 139.478C237.621 139.282 238.039 139.183 238.508 139.183C238.976 139.183 239.394 139.282 239.762 139.478C240.129 139.674 240.417 139.953 240.626 140.314C240.835 140.669 240.94 141.093 240.94 141.587V141.729C240.94 142.223 240.835 142.651 240.626 143.012C240.417 143.373 240.129 143.652 239.762 143.848C239.394 144.038 238.976 144.133 238.508 144.133ZM238.508 143.259C238.938 143.259 239.287 143.123 239.553 142.85C239.825 142.572 239.961 142.189 239.961 141.701V141.615C239.961 141.128 239.828 140.748 239.562 140.475C239.296 140.197 238.945 140.057 238.508 140.057C238.083 140.057 237.735 140.197 237.463 140.475C237.197 140.748 237.064 141.128 237.064 141.615V141.701C237.064 142.189 237.197 142.572 237.463 142.85C237.735 143.123 238.083 143.259 238.508 143.259ZM241.968 144V139.316H242.928V140.019H243.08C243.168 139.829 243.327 139.652 243.555 139.487C243.783 139.323 244.121 139.24 244.571 139.24C244.926 139.24 245.239 139.32 245.512 139.478C245.79 139.636 246.009 139.861 246.167 140.152C246.325 140.437 246.405 140.783 246.405 141.188V144H245.426V141.264C245.426 140.859 245.325 140.561 245.122 140.371C244.919 140.175 244.641 140.076 244.286 140.076C243.881 140.076 243.555 140.209 243.308 140.475C243.067 140.741 242.947 141.128 242.947 141.634V144H241.968ZM249.542 144.133C248.946 144.133 248.452 144 248.06 143.734C247.667 143.468 247.426 143.066 247.338 142.527L248.25 142.309C248.3 142.569 248.386 142.774 248.506 142.926C248.627 143.078 248.775 143.186 248.953 143.249C249.136 143.313 249.333 143.344 249.542 143.344C249.852 143.344 250.09 143.284 250.254 143.164C250.425 143.044 250.511 142.888 250.511 142.698C250.511 142.508 250.432 142.369 250.273 142.28C250.115 142.192 249.881 142.119 249.57 142.062L249.247 142.005C248.931 141.948 248.642 141.866 248.383 141.758C248.123 141.65 247.917 141.501 247.765 141.311C247.613 141.121 247.537 140.878 247.537 140.58C247.537 140.137 247.702 139.795 248.031 139.554C248.361 139.307 248.798 139.183 249.342 139.183C249.868 139.183 250.299 139.304 250.634 139.544C250.976 139.779 251.198 140.099 251.299 140.504L250.387 140.76C250.33 140.475 250.21 140.276 250.026 140.162C249.843 140.042 249.615 139.981 249.342 139.981C249.076 139.981 248.867 140.032 248.715 140.133C248.563 140.228 248.487 140.365 248.487 140.542C248.487 140.732 248.56 140.871 248.706 140.96C248.858 141.049 249.06 141.115 249.314 141.159L249.646 141.216C249.982 141.273 250.289 141.353 250.568 141.454C250.846 141.555 251.065 141.701 251.223 141.891C251.388 142.081 251.47 142.334 251.47 142.651C251.47 143.12 251.296 143.484 250.948 143.743C250.599 144.003 250.131 144.133 249.542 144.133Z" fill="black"/>
<path d="M205.5 174.35C204.167 174.35 202.983 174.15 201.95 173.75C200.933 173.35 200.133 172.775 199.55 172.025C198.983 171.258 198.7 170.358 198.7 169.325V169.025C198.7 168.225 198.842 167.567 199.125 167.05C199.408 166.517 199.758 166.1 200.175 165.8C200.608 165.5 201.017 165.292 201.4 165.175V164.725C201.017 164.592 200.633 164.375 200.25 164.075C199.867 163.775 199.55 163.375 199.3 162.875C199.067 162.375 198.95 161.775 198.95 161.075V160.775C198.95 159.858 199.217 159.058 199.75 158.375C200.3 157.675 201.067 157.133 202.05 156.75C203.033 156.35 204.183 156.15 205.5 156.15C206.817 156.15 207.967 156.35 208.95 156.75C209.933 157.133 210.692 157.675 211.225 158.375C211.775 159.058 212.05 159.858 212.05 160.775V161.075C212.05 161.775 211.925 162.375 211.675 162.875C211.442 163.375 211.133 163.775 210.75 164.075C210.383 164.375 210 164.592 209.6 164.725V165.175C210 165.292 210.408 165.5 210.825 165.8C211.242 166.1 211.592 166.517 211.875 167.05C212.158 167.567 212.3 168.225 212.3 169.025V169.325C212.3 170.358 212.008 171.258 211.425 172.025C210.858 172.775 210.058 173.35 209.025 173.75C208.008 174.15 206.833 174.35 205.5 174.35ZM205.5 171.5C206.65 171.5 207.533 171.283 208.15 170.85C208.783 170.4 209.1 169.808 209.1 169.075V168.875C209.1 168.142 208.792 167.558 208.175 167.125C207.575 166.675 206.683 166.45 205.5 166.45C204.333 166.45 203.442 166.675 202.825 167.125C202.208 167.558 201.9 168.142 201.9 168.875V169.075C201.9 169.808 202.208 170.4 202.825 170.85C203.458 171.283 204.35 171.5 205.5 171.5ZM205.5 163.6C206.567 163.6 207.392 163.408 207.975 163.025C208.558 162.642 208.85 162.1 208.85 161.4V161.2C208.85 160.5 208.55 159.958 207.95 159.575C207.35 159.192 206.533 159 205.5 159C204.467 159 203.65 159.192 203.05 159.575C202.45 159.958 202.15 160.5 202.15 161.2V161.4C202.15 162.1 202.442 162.642 203.025 163.025C203.608 163.408 204.433 163.6 205.5 163.6ZM220.09 174.35C218.774 174.35 217.607 174.117 216.59 173.65C215.574 173.183 214.774 172.517 214.19 171.65C213.624 170.767 213.34 169.725 213.34 168.525V168.075H216.54V168.425C216.54 169.358 216.865 170.108 217.515 170.675C218.165 171.225 219.024 171.5 220.09 171.5C221.174 171.5 222.007 171.242 222.59 170.725C223.19 170.208 223.49 169.558 223.49 168.775V168.525C223.49 167.992 223.357 167.558 223.09 167.225C222.824 166.892 222.465 166.65 222.015 166.5C221.565 166.333 221.057 166.25 220.49 166.25H216.99V162.75L222.64 159.75V159.35H213.79V156.5H226.19V160.75L220.915 163.55V163.95H221.84C222.624 163.95 223.382 164.108 224.115 164.425C224.865 164.742 225.482 165.233 225.965 165.9C226.449 166.55 226.69 167.4 226.69 168.45V168.75C226.69 169.883 226.415 170.875 225.865 171.725C225.315 172.558 224.54 173.208 223.54 173.675C222.557 174.125 221.407 174.35 220.09 174.35ZM229.175 177.675V175.975H230.15C230.917 175.975 231.3 175.592 231.3 174.825V174.025H230.875C230.209 174.025 229.65 173.825 229.2 173.425C228.767 173.025 228.55 172.517 228.55 171.9C228.55 171.233 228.767 170.692 229.2 170.275C229.65 169.858 230.209 169.65 230.875 169.65C231.559 169.65 232.117 169.867 232.55 170.3C232.984 170.717 233.2 171.283 233.2 172V174.875C233.2 176.742 232.267 177.675 230.4 177.675H229.175ZM241.649 174.35C240.332 174.35 239.165 174.117 238.149 173.65C237.132 173.183 236.332 172.517 235.749 171.65C235.182 170.767 234.899 169.725 234.899 168.525V168.075H238.099V168.425C238.099 169.358 238.424 170.108 239.074 170.675C239.724 171.225 240.582 171.5 241.649 171.5C242.732 171.5 243.565 171.242 244.149 170.725C244.749 170.208 245.049 169.558 245.049 168.775V168.525C245.049 167.992 244.915 167.558 244.649 167.225C244.382 166.892 244.024 166.65 243.574 166.5C243.124 166.333 242.615 166.25 242.049 166.25H238.549V162.75L244.199 159.75V159.35H235.349V156.5H247.749V160.75L242.474 163.55V163.95H243.399C244.182 163.95 244.94 164.108 245.674 164.425C246.424 164.742 247.04 165.233 247.524 165.9C248.007 166.55 248.249 167.4 248.249 168.45V168.75C248.249 169.883 247.974 170.875 247.424 171.725C246.874 172.558 246.099 173.208 245.099 173.675C244.115 174.125 242.965 174.35 241.649 174.35ZM258.009 174V170.45H249.409V166.75L255.459 156.5H261.209V167.6H264.109V170.45H261.209V174H258.009ZM252.459 167.6H258.009V158.55H257.559L252.459 167.2V167.6ZM271.652 174.35C270.319 174.35 269.136 174.15 268.102 173.75C267.086 173.35 266.286 172.775 265.702 172.025C265.136 171.258 264.852 170.358 264.852 169.325V169.025C264.852 168.225 264.994 167.567 265.277 167.05C265.561 166.517 265.911 166.1 266.327 165.8C266.761 165.5 267.169 165.292 267.552 165.175V164.725C267.169 164.592 266.786 164.375 266.402 164.075C266.019 163.775 265.702 163.375 265.452 162.875C265.219 162.375 265.102 161.775 265.102 161.075V160.775C265.102 159.858 265.369 159.058 265.902 158.375C266.452 157.675 267.219 157.133 268.202 156.75C269.186 156.35 270.336 156.15 271.652 156.15C272.969 156.15 274.119 156.35 275.102 156.75C276.086 157.133 276.844 157.675 277.377 158.375C277.927 159.058 278.202 159.858 278.202 160.775V161.075C278.202 161.775 278.077 162.375 277.827 162.875C277.594 163.375 277.286 163.775 276.902 164.075C276.536 164.375 276.152 164.592 275.752 164.725V165.175C276.152 165.292 276.561 165.5 276.977 165.8C277.394 166.1 277.744 166.517 278.027 167.05C278.311 167.567 278.452 168.225 278.452 169.025V169.325C278.452 170.358 278.161 171.258 277.577 172.025C277.011 172.775 276.211 173.35 275.177 173.75C274.161 174.15 272.986 174.35 271.652 174.35ZM271.652 171.5C272.802 171.5 273.686 171.283 274.302 170.85C274.936 170.4 275.252 169.808 275.252 169.075V168.875C275.252 168.142 274.944 167.558 274.327 167.125C273.727 166.675 272.836 166.45 271.652 166.45C270.486 166.45 269.594 166.675 268.977 167.125C268.361 167.558 268.052 168.142 268.052 168.875V169.075C268.052 169.808 268.361 170.4 268.977 170.85C269.611 171.283 270.502 171.5 271.652 171.5ZM271.652 163.6C272.719 163.6 273.544 163.408 274.127 163.025C274.711 162.642 275.002 162.1 275.002 161.4V161.2C275.002 160.5 274.702 159.958 274.102 159.575C273.502 159.192 272.686 159 271.652 159C270.619 159 269.802 159.192 269.202 159.575C268.602 159.958 268.302 160.5 268.302 161.2V161.4C268.302 162.1 268.594 162.642 269.177 163.025C269.761 163.408 270.586 163.6 271.652 163.6Z" fill="black"/>
</svg>
