<svg width="350" height="226" viewBox="0 0 350 226" fill="none" xmlns="http://www.w3.org/2000/svg">
<rect x="0.5" y="0.5" width="349" height="225" rx="11.5" fill="#F3F3F3" stroke="#0E0A0A"/>
<path d="M30.294 78.0001L33.094 68.2001H35.754L38.54 78.0001H36.986L36.342 75.6901H32.506L31.862 78.0001H30.294ZM32.884 74.2901H35.964L34.536 69.1381H34.312L32.884 74.2901ZM39.6297 78.0001V71.0981H41.0437V72.1341H41.2677C41.3984 71.8541 41.6317 71.5927 41.9677 71.3501C42.3037 71.1074 42.803 70.9861 43.4657 70.9861C43.9884 70.9861 44.4504 71.1027 44.8517 71.3361C45.2624 71.5694 45.5844 71.9007 45.8177 72.3301C46.051 72.7501 46.1677 73.2587 46.1677 73.8561V78.0001H44.7257V73.9681C44.7257 73.3707 44.5764 72.9321 44.2777 72.6521C43.979 72.3627 43.5684 72.2181 43.0457 72.2181C42.4484 72.2181 41.9677 72.4141 41.6037 72.8061C41.249 73.1981 41.0717 73.7674 41.0717 74.5141V78.0001H39.6297ZM54.4153 78.1961C53.7153 78.1961 53.104 78.0514 52.5813 77.7621C52.0587 77.4634 51.648 77.0481 51.3493 76.5161C51.06 75.9747 50.9153 75.3494 50.9153 74.6401V74.4721C50.9153 73.7534 51.06 73.1281 51.3493 72.5961C51.6387 72.0547 52.04 71.6394 52.5533 71.3501C53.076 71.0514 53.678 70.9021 54.3593 70.9021C55.022 70.9021 55.6007 71.0514 56.0953 71.3501C56.5993 71.6394 56.9913 72.0454 57.2713 72.5681C57.5513 73.0907 57.6913 73.7021 57.6913 74.4021V74.9481H52.3853C52.404 75.5547 52.6047 76.0401 52.9873 76.4041C53.3793 76.7587 53.8647 76.9361 54.4433 76.9361C54.9847 76.9361 55.3907 76.8147 55.6613 76.5721C55.9413 76.3294 56.156 76.0494 56.3053 75.7321L57.4953 76.3481C57.3647 76.6094 57.1733 76.8847 56.9213 77.1741C56.6787 77.4634 56.3567 77.7061 55.9553 77.9021C55.554 78.0981 55.0407 78.1961 54.4153 78.1961ZM52.3993 73.8421H56.2213C56.184 73.3194 55.9973 72.9134 55.6613 72.6241C55.3253 72.3254 54.8867 72.1761 54.3453 72.1761C53.804 72.1761 53.3607 72.3254 53.0153 72.6241C52.6793 72.9134 52.474 73.3194 52.3993 73.8421ZM58.108 78.0001L60.74 74.5141L58.164 71.0981H59.858L61.664 73.5761H61.888L63.694 71.0981H65.402L62.812 74.5141L65.444 78.0001H63.722L61.888 75.4661H61.664L59.83 78.0001H58.108ZM69.4696 78.1961C68.8069 78.1961 68.2049 78.0561 67.6636 77.7761C67.1316 77.4961 66.7069 77.0901 66.3896 76.5581C66.0816 76.0261 65.9276 75.3867 65.9276 74.6401V74.4581C65.9276 73.7114 66.0816 73.0767 66.3896 72.5541C66.7069 72.0221 67.1316 71.6161 67.6636 71.3361C68.2049 71.0467 68.8069 70.9021 69.4696 70.9021C70.1323 70.9021 70.6969 71.0234 71.1636 71.2661C71.6303 71.5087 72.0036 71.8307 72.2836 72.2321C72.5729 72.6334 72.7596 73.0767 72.8436 73.5621L71.4436 73.8561C71.3969 73.5481 71.2989 73.2681 71.1496 73.0161C71.0003 72.7641 70.7903 72.5634 70.5196 72.4141C70.2489 72.2647 69.9083 72.1901 69.4976 72.1901C69.0963 72.1901 68.7323 72.2834 68.4056 72.4701C68.0883 72.6474 67.8363 72.9087 67.6496 73.2541C67.4629 73.5901 67.3696 74.0007 67.3696 74.4861V74.6121C67.3696 75.0974 67.4629 75.5127 67.6496 75.8581C67.8363 76.2034 68.0883 76.4647 68.4056 76.6421C68.7323 76.8194 69.0963 76.9081 69.4976 76.9081C70.1043 76.9081 70.5663 76.7541 70.8836 76.4461C71.2009 76.1287 71.4016 75.7274 71.4856 75.2421L72.8856 75.5641C72.7736 76.0401 72.5729 76.4787 72.2836 76.8801C72.0036 77.2814 71.6303 77.6034 71.1636 77.8461C70.6969 78.0794 70.1323 78.1961 69.4696 78.1961ZM77.4328 78.1961C76.7328 78.1961 76.1214 78.0514 75.5988 77.7621C75.0761 77.4634 74.6654 77.0481 74.3668 76.5161C74.0774 75.9747 73.9328 75.3494 73.9328 74.6401V74.4721C73.9328 73.7534 74.0774 73.1281 74.3668 72.5961C74.6561 72.0547 75.0574 71.6394 75.5708 71.3501C76.0934 71.0514 76.6954 70.9021 77.3768 70.9021C78.0394 70.9021 78.6181 71.0514 79.1128 71.3501C79.6168 71.6394 80.0088 72.0454 80.2888 72.5681C80.5688 73.0907 80.7088 73.7021 80.7088 74.4021V74.9481H75.4028C75.4214 75.5547 75.6221 76.0401 76.0048 76.4041C76.3968 76.7587 76.8821 76.9361 77.4608 76.9361C78.0021 76.9361 78.4081 76.8147 78.6788 76.5721C78.9588 76.3294 79.1734 76.0494 79.3228 75.7321L80.5128 76.3481C80.3821 76.6094 80.1908 76.8847 79.9388 77.1741C79.6961 77.4634 79.3741 77.7061 78.9728 77.9021C78.5714 78.0981 78.0581 78.1961 77.4328 78.1961ZM75.4168 73.8421H79.2388C79.2014 73.3194 79.0148 72.9134 78.6788 72.6241C78.3428 72.3254 77.9041 72.1761 77.3628 72.1761C76.8214 72.1761 76.3781 72.3254 76.0328 72.6241C75.6968 72.9134 75.4914 73.3194 75.4168 73.8421ZM82.1645 78.0001V68.2001H83.6065V78.0001H82.1645ZM85.4666 78.0001V68.2001H86.9086V78.0001H85.4666ZM91.9326 78.1961C91.2326 78.1961 90.6213 78.0514 90.0986 77.7621C89.5759 77.4634 89.1653 77.0481 88.8666 76.5161C88.5773 75.9747 88.4326 75.3494 88.4326 74.6401V74.4721C88.4326 73.7534 88.5773 73.1281 88.8666 72.5961C89.1559 72.0547 89.5573 71.6394 90.0706 71.3501C90.5933 71.0514 91.1953 70.9021 91.8766 70.9021C92.5393 70.9021 93.1179 71.0514 93.6126 71.3501C94.1166 71.6394 94.5086 72.0454 94.7886 72.5681C95.0686 73.0907 95.2086 73.7021 95.2086 74.4021V74.9481H89.9026C89.9213 75.5547 90.1219 76.0401 90.5046 76.4041C90.8966 76.7587 91.3819 76.9361 91.9606 76.9361C92.5019 76.9361 92.9079 76.8147 93.1786 76.5721C93.4586 76.3294 93.6733 76.0494 93.8226 75.7321L95.0126 76.3481C94.8819 76.6094 94.6906 76.8847 94.4386 77.1741C94.1959 77.4634 93.8739 77.7061 93.4726 77.9021C93.0713 78.0981 92.5579 78.1961 91.9326 78.1961ZM89.9166 73.8421H93.7386C93.7013 73.3194 93.5146 72.9134 93.1786 72.6241C92.8426 72.3254 92.4039 72.1761 91.8626 72.1761C91.3213 72.1761 90.8779 72.3254 90.5326 72.6241C90.1966 72.9134 89.9913 73.3194 89.9166 73.8421ZM96.6644 78.0001V71.0981H98.0784V72.1341H98.3024C98.4331 71.8541 98.6664 71.5927 99.0024 71.3501C99.3384 71.1074 99.8377 70.9861 100.5 70.9861C101.023 70.9861 101.485 71.1027 101.886 71.3361C102.297 71.5694 102.619 71.9007 102.852 72.3301C103.086 72.7501 103.202 73.2587 103.202 73.8561V78.0001H101.76V73.9681C101.76 73.3707 101.611 72.9321 101.312 72.6521C101.014 72.3627 100.603 72.2181 100.08 72.2181C99.4831 72.2181 99.0024 72.4141 98.6384 72.8061C98.2837 73.1981 98.1064 73.7674 98.1064 74.5141V78.0001H96.6644ZM107.396 78.0001C106.976 78.0001 106.64 77.8741 106.388 77.6221C106.146 77.3701 106.024 77.0341 106.024 76.6141V72.3161H104.12V71.0981H106.024V68.8161H107.466V71.0981H109.524V72.3161H107.466V76.3621C107.466 76.6421 107.597 76.7821 107.858 76.7821H109.3V78.0001H107.396ZM235.111 74.5841V74.3741C235.111 73.6461 235.255 73.0254 235.545 72.5121C235.843 71.9987 236.235 71.6021 236.721 71.3221C237.206 71.0421 237.738 70.9021 238.317 70.9021C238.989 70.9021 239.502 71.0281 239.857 71.2801C240.221 71.5321 240.487 71.8027 240.655 72.0921H240.879V71.0981H242.279V79.4141C242.279 79.8341 242.153 80.1701 241.901 80.4221C241.658 80.6741 241.322 80.8001 240.893 80.8001H236.245V79.5401H240.445C240.715 79.5401 240.851 79.4001 240.851 79.1201V76.9221H240.627C240.524 77.0901 240.379 77.2627 240.193 77.4401C240.006 77.6174 239.759 77.7621 239.451 77.8741C239.152 77.9861 238.774 78.0421 238.317 78.0421C237.738 78.0421 237.201 77.9067 236.707 77.6361C236.221 77.3561 235.834 76.9594 235.545 76.4461C235.255 75.9234 235.111 75.3027 235.111 74.5841ZM238.709 76.7821C239.334 76.7821 239.847 76.5861 240.249 76.1941C240.659 75.7927 240.865 75.2421 240.865 74.5421V74.4161C240.865 73.6974 240.664 73.1467 240.263 72.7641C239.861 72.3721 239.343 72.1761 238.709 72.1761C238.093 72.1761 237.579 72.3721 237.169 72.7641C236.767 73.1467 236.567 73.6974 236.567 74.4161V74.5421C236.567 75.2421 236.767 75.7927 237.169 76.1941C237.579 76.5861 238.093 76.7821 238.709 76.7821ZM247.356 78.1961C246.665 78.1961 246.049 78.0561 245.508 77.7761C244.976 77.4867 244.556 77.0761 244.248 76.5441C243.94 76.0121 243.786 75.3821 243.786 74.6541V74.4441C243.786 73.7161 243.94 73.0907 244.248 72.5681C244.556 72.0361 244.976 71.6254 245.508 71.3361C246.049 71.0467 246.665 70.9021 247.356 70.9021C248.046 70.9021 248.662 71.0467 249.204 71.3361C249.745 71.6254 250.17 72.0361 250.478 72.5681C250.786 73.0907 250.94 73.7161 250.94 74.4441V74.6541C250.94 75.3821 250.786 76.0121 250.478 76.5441C250.17 77.0761 249.745 77.4867 249.204 77.7761C248.662 78.0561 248.046 78.1961 247.356 78.1961ZM247.356 76.9081C247.99 76.9081 248.504 76.7074 248.896 76.3061C249.297 75.8954 249.498 75.3307 249.498 74.6121V74.4861C249.498 73.7674 249.302 73.2074 248.91 72.8061C248.518 72.3954 248 72.1901 247.356 72.1901C246.73 72.1901 246.217 72.3954 245.816 72.8061C245.424 73.2074 245.228 73.7674 245.228 74.4861V74.6121C245.228 75.3307 245.424 75.8954 245.816 76.3061C246.217 76.7074 246.73 76.9081 247.356 76.9081ZM255.619 78.1961C254.919 78.1961 254.308 78.0514 253.785 77.7621C253.262 77.4634 252.852 77.0481 252.553 76.5161C252.264 75.9747 252.119 75.3494 252.119 74.6401V74.4721C252.119 73.7534 252.264 73.1281 252.553 72.5961C252.842 72.0547 253.244 71.6394 253.757 71.3501C254.28 71.0514 254.882 70.9021 255.563 70.9021C256.226 70.9021 256.804 71.0514 257.299 71.3501C257.803 71.6394 258.195 72.0454 258.475 72.5681C258.755 73.0907 258.895 73.7021 258.895 74.4021V74.9481H253.589C253.608 75.5547 253.808 76.0401 254.191 76.4041C254.583 76.7587 255.068 76.9361 255.647 76.9361C256.188 76.9361 256.594 76.8147 256.865 76.5721C257.145 76.3294 257.36 76.0494 257.509 75.7321L258.699 76.3481C258.568 76.6094 258.377 76.8847 258.125 77.1741C257.882 77.4634 257.56 77.7061 257.159 77.9021C256.758 78.0981 256.244 78.1961 255.619 78.1961ZM253.603 73.8421H257.425C257.388 73.3194 257.201 72.9134 256.865 72.6241C256.529 72.3254 256.09 72.1761 255.549 72.1761C255.008 72.1761 254.564 72.3254 254.219 72.6241C253.883 72.9134 253.678 73.3194 253.603 73.8421ZM263.179 78.1961C262.301 78.1961 261.573 78.0001 260.995 77.6081C260.416 77.2161 260.061 76.6234 259.931 75.8301L261.275 75.5081C261.349 75.8907 261.475 76.1941 261.653 76.4181C261.83 76.6421 262.049 76.8007 262.311 76.8941C262.581 76.9874 262.871 77.0341 263.179 77.0341C263.636 77.0341 263.986 76.9454 264.229 76.7681C264.481 76.5907 264.607 76.3621 264.607 76.0821C264.607 75.8021 264.49 75.5967 264.257 75.4661C264.023 75.3354 263.678 75.2281 263.221 75.1441L262.745 75.0601C262.278 74.9761 261.853 74.8547 261.471 74.6961C261.088 74.5374 260.785 74.3181 260.561 74.0381C260.337 73.7581 260.225 73.3987 260.225 72.9601C260.225 72.3067 260.467 71.8027 260.953 71.4481C261.438 71.0841 262.082 70.9021 262.885 70.9021C263.659 70.9021 264.294 71.0794 264.789 71.4341C265.293 71.7794 265.619 72.2507 265.769 72.8481L264.425 73.2261C264.341 72.8061 264.163 72.5121 263.893 72.3441C263.622 72.1667 263.286 72.0781 262.885 72.0781C262.493 72.0781 262.185 72.1527 261.961 72.3021C261.737 72.4421 261.625 72.6427 261.625 72.9041C261.625 73.1841 261.732 73.3894 261.947 73.5201C262.171 73.6507 262.469 73.7487 262.843 73.8141L263.333 73.8981C263.827 73.9821 264.28 74.0987 264.691 74.2481C265.101 74.3974 265.423 74.6121 265.657 74.8921C265.899 75.1721 266.021 75.5454 266.021 76.0121C266.021 76.7027 265.764 77.2394 265.251 77.6221C264.737 78.0047 264.047 78.1961 263.179 78.1961ZM35.054 104.196C34.382 104.196 33.864 104.075 33.5 103.832C33.1453 103.589 32.8793 103.319 32.702 103.02H32.478V104H31.064V94.2001H32.506V98.0361H32.73C32.842 97.8494 32.9913 97.6721 33.178 97.5041C33.3647 97.3267 33.612 97.1821 33.92 97.0701C34.228 96.9581 34.606 96.9021 35.054 96.9021C35.6327 96.9021 36.1647 97.0421 36.65 97.3221C37.1353 97.6021 37.5227 98.0081 37.812 98.5401C38.1013 99.0721 38.246 99.7067 38.246 100.444V100.654C38.246 101.401 38.0967 102.04 37.798 102.572C37.5087 103.095 37.1213 103.496 36.636 103.776C36.16 104.056 35.6327 104.196 35.054 104.196ZM34.634 102.936C35.2593 102.936 35.7727 102.735 36.174 102.334C36.5847 101.933 36.79 101.359 36.79 100.612V100.486C36.79 99.7487 36.5893 99.1794 36.188 98.7781C35.7867 98.3767 35.2687 98.1761 34.634 98.1761C34.018 98.1761 33.5047 98.3767 33.094 98.7781C32.6927 99.1794 32.492 99.7487 32.492 100.486V100.612C32.492 101.359 32.6927 101.933 33.094 102.334C33.5047 102.735 34.018 102.936 34.634 102.936ZM42.9168 104.196C42.2168 104.196 41.6054 104.051 41.0828 103.762C40.5601 103.463 40.1494 103.048 39.8508 102.516C39.5614 101.975 39.4168 101.349 39.4168 100.64V100.472C39.4168 99.7534 39.5614 99.1281 39.8508 98.5961C40.1401 98.0547 40.5414 97.6394 41.0548 97.3501C41.5774 97.0514 42.1794 96.9021 42.8608 96.9021C43.5234 96.9021 44.1021 97.0514 44.5968 97.3501C45.1008 97.6394 45.4928 98.0454 45.7728 98.5681C46.0528 99.0907 46.1928 99.7021 46.1928 100.402V100.948H40.8868C40.9054 101.555 41.1061 102.04 41.4888 102.404C41.8808 102.759 42.3661 102.936 42.9448 102.936C43.4861 102.936 43.8921 102.815 44.1628 102.572C44.4428 102.329 44.6574 102.049 44.8068 101.732L45.9968 102.348C45.8661 102.609 45.6748 102.885 45.4228 103.174C45.1801 103.463 44.8581 103.706 44.4568 103.902C44.0554 104.098 43.5421 104.196 42.9168 104.196ZM40.9008 99.8421H44.7228C44.6854 99.3194 44.4988 98.9134 44.1628 98.6241C43.8268 98.3254 43.3881 98.1761 42.8468 98.1761C42.3054 98.1761 41.8621 98.3254 41.5168 98.6241C41.1808 98.9134 40.9754 99.3194 40.9008 99.8421ZM48.4465 106.8V105.54H52.2965C52.5579 105.54 52.6885 105.4 52.6885 105.12V102.992H52.4645C52.3805 103.179 52.2499 103.361 52.0725 103.538C51.9045 103.706 51.6759 103.846 51.3865 103.958C51.0972 104.07 50.7332 104.126 50.2945 104.126C49.7719 104.126 49.3052 104.009 48.8945 103.776C48.4839 103.543 48.1619 103.211 47.9285 102.782C47.6952 102.353 47.5785 101.844 47.5785 101.256V97.0981H49.0205V101.144C49.0205 101.741 49.1699 102.185 49.4685 102.474C49.7672 102.754 50.1825 102.894 50.7145 102.894C51.3025 102.894 51.7739 102.698 52.1285 102.306C52.4925 101.914 52.6745 101.345 52.6745 100.598V97.0981H54.1165V105.414C54.1165 105.834 53.9905 106.17 53.7385 106.422C53.4959 106.674 53.1599 106.8 52.7305 106.8H48.4465ZM59.2021 104.196C58.5115 104.196 57.8955 104.056 57.3541 103.776C56.8221 103.487 56.4021 103.076 56.0941 102.544C55.7861 102.012 55.6321 101.382 55.6321 100.654V100.444C55.6321 99.7161 55.7861 99.0907 56.0941 98.5681C56.4021 98.0361 56.8221 97.6254 57.3541 97.3361C57.8955 97.0467 58.5115 96.9021 59.2021 96.9021C59.8928 96.9021 60.5088 97.0467 61.0501 97.3361C61.5915 97.6254 62.0161 98.0361 62.3241 98.5681C62.6321 99.0907 62.7861 99.7161 62.7861 100.444V100.654C62.7861 101.382 62.6321 102.012 62.3241 102.544C62.0161 103.076 61.5915 103.487 61.0501 103.776C60.5088 104.056 59.8928 104.196 59.2021 104.196ZM59.2021 102.908C59.8368 102.908 60.3501 102.707 60.7421 102.306C61.1435 101.895 61.3441 101.331 61.3441 100.612V100.486C61.3441 99.7674 61.1481 99.2074 60.7561 98.8061C60.3641 98.3954 59.8461 98.1901 59.2021 98.1901C58.5768 98.1901 58.0635 98.3954 57.6621 98.8061C57.2701 99.2074 57.0741 99.7674 57.0741 100.486V100.612C57.0741 101.331 57.2701 101.895 57.6621 102.306C58.0635 102.707 58.5768 102.908 59.2021 102.908ZM64.3014 104V97.0981H65.7154V98.1341H65.9394C66.0701 97.8541 66.3034 97.5927 66.6394 97.3501C66.9754 97.1074 67.4748 96.9861 68.1374 96.9861C68.6601 96.9861 69.1221 97.1027 69.5234 97.3361C69.9341 97.5694 70.2561 97.9007 70.4894 98.3301C70.7228 98.7501 70.8394 99.2587 70.8394 99.8561V104H69.3974V99.9681C69.3974 99.3707 69.2481 98.9321 68.9494 98.6521C68.6508 98.3627 68.2401 98.2181 67.7174 98.2181C67.1201 98.2181 66.6394 98.4141 66.2754 98.8061C65.9208 99.1981 65.7434 99.7674 65.7434 100.514V104H64.3014ZM75.4907 104.196C74.9214 104.196 74.394 104.056 73.9087 103.776C73.4234 103.496 73.0314 103.095 72.7327 102.572C72.4434 102.04 72.2987 101.401 72.2987 100.654V100.444C72.2987 99.7067 72.4434 99.0721 72.7327 98.5401C73.022 98.0081 73.4094 97.6021 73.8947 97.3221C74.38 97.0421 74.912 96.9021 75.4907 96.9021C75.9387 96.9021 76.312 96.9581 76.6107 97.0701C76.9187 97.1821 77.1707 97.3267 77.3667 97.5041C77.5627 97.6721 77.712 97.8494 77.8147 98.0361H78.0387V94.2001H79.4807V104H78.0667V103.02H77.8427C77.6654 103.319 77.3947 103.589 77.0307 103.832C76.676 104.075 76.1627 104.196 75.4907 104.196ZM75.8967 102.936C76.522 102.936 77.0354 102.735 77.4367 102.334C77.8474 101.933 78.0527 101.359 78.0527 100.612V100.486C78.0527 99.7487 77.852 99.1794 77.4507 98.7781C77.0494 98.3767 76.5314 98.1761 75.8967 98.1761C75.2807 98.1761 74.7674 98.3767 74.3567 98.7781C73.9554 99.1794 73.7547 99.7487 73.7547 100.486V100.612C73.7547 101.359 73.9554 101.933 74.3567 102.334C74.7674 102.735 75.2807 102.936 75.8967 102.936ZM83.2958 106.8V105.554H84.2338C84.5045 105.554 84.6398 105.414 84.6398 105.134V97.0981H86.0818V105.414C86.0818 105.834 85.9605 106.17 85.7178 106.422C85.4751 106.674 85.1345 106.8 84.6958 106.8H83.2958ZM85.3678 96.1601C85.0878 96.1601 84.8498 96.0714 84.6538 95.8941C84.4671 95.7074 84.3738 95.4694 84.3738 95.1801C84.3738 94.8907 84.4671 94.6574 84.6538 94.4801C84.8498 94.2934 85.0878 94.2001 85.3678 94.2001C85.6571 94.2001 85.8951 94.2934 86.0818 94.4801C86.2685 94.6574 86.3618 94.8907 86.3618 95.1801C86.3618 95.4694 86.2685 95.7074 86.0818 95.8941C85.8951 96.0714 85.6571 96.1601 85.3678 96.1601ZM90.5872 104.126C90.0645 104.126 89.5979 104.009 89.1872 103.776C88.7765 103.543 88.4545 103.211 88.2212 102.782C87.9879 102.353 87.8712 101.839 87.8712 101.242V97.0981H89.3132V101.144C89.3132 101.741 89.4625 102.185 89.7612 102.474C90.0599 102.754 90.4752 102.894 91.0072 102.894C91.5952 102.894 92.0665 102.698 92.4212 102.306C92.7852 101.905 92.9672 101.331 92.9672 100.584V97.0981H94.4092V104H92.9952V102.964H92.7712C92.6405 103.244 92.4072 103.51 92.0712 103.762C91.7352 104.005 91.2405 104.126 90.5872 104.126ZM99.0888 104.196C98.2115 104.196 97.4835 104 96.9048 103.608C96.3261 103.216 95.9715 102.623 95.8408 101.83L97.1848 101.508C97.2595 101.891 97.3855 102.194 97.5628 102.418C97.7401 102.642 97.9595 102.801 98.2208 102.894C98.4915 102.987 98.7808 103.034 99.0888 103.034C99.5461 103.034 99.8961 102.945 100.139 102.768C100.391 102.591 100.517 102.362 100.517 102.082C100.517 101.802 100.4 101.597 100.167 101.466C99.9335 101.335 99.5881 101.228 99.1308 101.144L98.6548 101.06C98.1881 100.976 97.7635 100.855 97.3808 100.696C96.9981 100.537 96.6948 100.318 96.4708 100.038C96.2468 99.7581 96.1348 99.3987 96.1348 98.9601C96.1348 98.3067 96.3775 97.8027 96.8628 97.4481C97.3481 97.0841 97.9921 96.9021 98.7948 96.9021C99.5695 96.9021 100.204 97.0794 100.699 97.4341C101.203 97.7794 101.529 98.2507 101.679 98.8481L100.335 99.2261C100.251 98.8061 100.073 98.5121 99.8028 98.3441C99.5321 98.1667 99.1961 98.0781 98.7948 98.0781C98.4028 98.0781 98.0948 98.1527 97.8708 98.3021C97.6468 98.4421 97.5348 98.6427 97.5348 98.9041C97.5348 99.1841 97.6421 99.3894 97.8568 99.5201C98.0808 99.6507 98.3795 99.7487 98.7528 99.8141L99.2428 99.8981C99.7375 99.9821 100.19 100.099 100.601 100.248C101.011 100.397 101.333 100.612 101.567 100.892C101.809 101.172 101.931 101.545 101.931 102.012C101.931 102.703 101.674 103.239 101.161 103.622C100.647 104.005 99.9568 104.196 99.0888 104.196ZM105.776 104C105.356 104 105.02 103.874 104.768 103.622C104.525 103.37 104.404 103.034 104.404 102.614V98.3161H102.5V97.0981H104.404V94.8161H105.846V97.0981H107.904V98.3161H105.846V102.362C105.846 102.642 105.977 102.782 106.238 102.782H107.68V104H105.776ZM115.84 104.196C115.15 104.196 114.534 104.056 113.992 103.776C113.46 103.487 113.04 103.076 112.732 102.544C112.424 102.012 112.27 101.382 112.27 100.654V100.444C112.27 99.7161 112.424 99.0907 112.732 98.5681C113.04 98.0361 113.46 97.6254 113.992 97.3361C114.534 97.0467 115.15 96.9021 115.84 96.9021C116.531 96.9021 117.147 97.0467 117.688 97.3361C118.23 97.6254 118.654 98.0361 118.962 98.5681C119.27 99.0907 119.424 99.7161 119.424 100.444V100.654C119.424 101.382 119.27 102.012 118.962 102.544C118.654 103.076 118.23 103.487 117.688 103.776C117.147 104.056 116.531 104.196 115.84 104.196ZM115.84 102.908C116.475 102.908 116.988 102.707 117.38 102.306C117.782 101.895 117.982 101.331 117.982 100.612V100.486C117.982 99.7674 117.786 99.2074 117.394 98.8061C117.002 98.3954 116.484 98.1901 115.84 98.1901C115.215 98.1901 114.702 98.3954 114.3 98.8061C113.908 99.2074 113.712 99.7674 113.712 100.486V100.612C113.712 101.331 113.908 101.895 114.3 102.306C114.702 102.707 115.215 102.908 115.84 102.908ZM120.94 104V97.0981H122.354V98.1341H122.578C122.708 97.8541 122.942 97.5927 123.278 97.3501C123.614 97.1074 124.113 96.9861 124.776 96.9861C125.298 96.9861 125.76 97.1027 126.162 97.3361C126.572 97.5694 126.894 97.9007 127.128 98.3301C127.361 98.7501 127.478 99.2587 127.478 99.8561V104H126.036V99.9681C126.036 99.3707 125.886 98.9321 125.588 98.6521C125.289 98.3627 124.878 98.2181 124.356 98.2181C123.758 98.2181 123.278 98.4141 122.914 98.8061C122.559 99.1981 122.382 99.7674 122.382 100.514V104H120.94ZM132.437 104.196C131.737 104.196 131.126 104.051 130.603 103.762C130.08 103.463 129.67 103.048 129.371 102.516C129.082 101.975 128.937 101.349 128.937 100.64V100.472C128.937 99.7534 129.082 99.1281 129.371 98.5961C129.66 98.0547 130.062 97.6394 130.575 97.3501C131.098 97.0514 131.7 96.9021 132.381 96.9021C133.044 96.9021 133.622 97.0514 134.117 97.3501C134.621 97.6394 135.013 98.0454 135.293 98.5681C135.573 99.0907 135.713 99.7021 135.713 100.402V100.948H130.407C130.426 101.555 130.626 102.04 131.009 102.404C131.401 102.759 131.886 102.936 132.465 102.936C133.006 102.936 133.412 102.815 133.683 102.572C133.963 102.329 134.178 102.049 134.327 101.732L135.517 102.348C135.386 102.609 135.195 102.885 134.943 103.174C134.7 103.463 134.378 103.706 133.977 103.902C133.576 104.098 133.062 104.196 132.437 104.196ZM130.421 99.8421H134.243C134.206 99.3194 134.019 98.9134 133.683 98.6241C133.347 98.3254 132.908 98.1761 132.367 98.1761C131.826 98.1761 131.382 98.3254 131.037 98.6241C130.701 98.9134 130.496 99.3194 130.421 99.8421ZM142.599 104.196C142.104 104.196 141.661 104.112 141.269 103.944C140.886 103.776 140.578 103.529 140.345 103.202C140.121 102.875 140.009 102.479 140.009 102.012C140.009 101.536 140.121 101.144 140.345 100.836C140.578 100.519 140.891 100.281 141.283 100.122C141.684 99.9634 142.137 99.8841 142.641 99.8841H144.741V99.4361C144.741 99.0347 144.62 98.7127 144.377 98.4701C144.134 98.2274 143.761 98.1061 143.257 98.1061C142.762 98.1061 142.384 98.2227 142.123 98.4561C141.862 98.6894 141.689 98.9927 141.605 99.3661L140.261 98.9321C140.373 98.5587 140.55 98.2227 140.793 97.9241C141.045 97.6161 141.376 97.3687 141.787 97.1821C142.198 96.9954 142.692 96.9021 143.271 96.9021C144.167 96.9021 144.872 97.1307 145.385 97.5881C145.898 98.0454 146.155 98.6941 146.155 99.5341V102.376C146.155 102.656 146.286 102.796 146.547 102.796H147.135V104H146.057C145.73 104 145.464 103.916 145.259 103.748C145.054 103.58 144.951 103.351 144.951 103.062V103.02H144.741C144.666 103.16 144.554 103.323 144.405 103.51C144.256 103.697 144.036 103.86 143.747 104C143.458 104.131 143.075 104.196 142.599 104.196ZM142.809 103.006C143.388 103.006 143.854 102.843 144.209 102.516C144.564 102.18 144.741 101.723 144.741 101.144V101.004H142.725C142.342 101.004 142.034 101.088 141.801 101.256C141.568 101.415 141.451 101.653 141.451 101.97C141.451 102.287 141.572 102.539 141.815 102.726C142.058 102.913 142.389 103.006 142.809 103.006ZM148.257 104V97.0981H149.671V97.9101H149.895C150.007 97.6207 150.184 97.4107 150.427 97.2801C150.679 97.1401 150.987 97.0701 151.351 97.0701H152.177V98.3721H151.295C150.828 98.3721 150.446 98.5027 150.147 98.7641C149.848 99.0161 149.699 99.4081 149.699 99.9401V104H148.257ZM155.981 104C155.561 104 155.225 103.874 154.973 103.622C154.731 103.37 154.609 103.034 154.609 102.614V98.3161H152.705V97.0981H154.609V94.8161H156.051V97.0981H158.109V98.3161H156.051V102.362C156.051 102.642 156.182 102.782 156.443 102.782H157.885V104H155.981ZM159.523 104V97.0981H160.965V104H159.523ZM160.251 96.1601C159.971 96.1601 159.733 96.0714 159.537 95.8941C159.351 95.7074 159.257 95.4694 159.257 95.1801C159.257 94.8907 159.351 94.6574 159.537 94.4801C159.733 94.2934 159.971 94.2001 160.251 94.2001C160.541 94.2001 160.779 94.2934 160.965 94.4801C161.152 94.6574 161.245 94.8907 161.245 95.1801C161.245 95.4694 161.152 95.7074 160.965 95.8941C160.779 96.0714 160.541 96.1601 160.251 96.1601ZM166.031 104.196C165.369 104.196 164.767 104.056 164.225 103.776C163.693 103.496 163.269 103.09 162.951 102.558C162.643 102.026 162.489 101.387 162.489 100.64V100.458C162.489 99.7114 162.643 99.0767 162.951 98.5541C163.269 98.0221 163.693 97.6161 164.225 97.3361C164.767 97.0467 165.369 96.9021 166.031 96.9021C166.694 96.9021 167.259 97.0234 167.725 97.2661C168.192 97.5087 168.565 97.8307 168.845 98.2321C169.135 98.6334 169.321 99.0767 169.405 99.5621L168.005 99.8561C167.959 99.5481 167.861 99.2681 167.711 99.0161C167.562 98.7641 167.352 98.5634 167.081 98.4141C166.811 98.2647 166.47 98.1901 166.059 98.1901C165.658 98.1901 165.294 98.2834 164.967 98.4701C164.65 98.6474 164.398 98.9087 164.211 99.2541C164.025 99.5901 163.931 100.001 163.931 100.486V100.612C163.931 101.097 164.025 101.513 164.211 101.858C164.398 102.203 164.65 102.465 164.967 102.642C165.294 102.819 165.658 102.908 166.059 102.908C166.666 102.908 167.128 102.754 167.445 102.446C167.763 102.129 167.963 101.727 168.047 101.242L169.447 101.564C169.335 102.04 169.135 102.479 168.845 102.88C168.565 103.281 168.192 103.603 167.725 103.846C167.259 104.079 166.694 104.196 166.031 104.196ZM170.83 104V94.2001H172.272V104H170.83ZM177.297 104.196C176.597 104.196 175.985 104.051 175.463 103.762C174.94 103.463 174.529 103.048 174.231 102.516C173.941 101.975 173.797 101.349 173.797 100.64V100.472C173.797 99.7534 173.941 99.1281 174.231 98.5961C174.52 98.0547 174.921 97.6394 175.435 97.3501C175.957 97.0514 176.559 96.9021 177.241 96.9021C177.903 96.9021 178.482 97.0514 178.977 97.3501C179.481 97.6394 179.873 98.0454 180.153 98.5681C180.433 99.0907 180.573 99.7021 180.573 100.402V100.948H175.267C175.285 101.555 175.486 102.04 175.869 102.404C176.261 102.759 176.746 102.936 177.325 102.936C177.866 102.936 178.272 102.815 178.543 102.572C178.823 102.329 179.037 102.049 179.187 101.732L180.377 102.348C180.246 102.609 180.055 102.885 179.803 103.174C179.56 103.463 179.238 103.706 178.837 103.902C178.435 104.098 177.922 104.196 177.297 104.196ZM175.281 99.8421H179.103C179.065 99.3194 178.879 98.9134 178.543 98.6241C178.207 98.3254 177.768 98.1761 177.227 98.1761C176.685 98.1761 176.242 98.3254 175.897 98.6241C175.561 98.9134 175.355 99.3194 175.281 99.8421ZM182.801 104.196C182.474 104.196 182.199 104.089 181.975 103.874C181.76 103.659 181.653 103.384 181.653 103.048C181.653 102.712 181.76 102.441 181.975 102.236C182.199 102.021 182.474 101.914 182.801 101.914C183.127 101.914 183.398 102.021 183.613 102.236C183.837 102.451 183.949 102.721 183.949 103.048C183.949 103.384 183.837 103.659 183.613 103.874C183.398 104.089 183.127 104.196 182.801 104.196ZM188.331 104V94.2001H192.447C193.053 94.2001 193.585 94.3074 194.043 94.5221C194.509 94.7274 194.869 95.0261 195.121 95.4181C195.382 95.8101 195.513 96.2767 195.513 96.8181V96.9721C195.513 97.5881 195.363 98.0827 195.065 98.4561C194.775 98.8201 194.421 99.0767 194.001 99.2261V99.4501C194.355 99.4687 194.64 99.5901 194.855 99.8141C195.069 100.029 195.177 100.341 195.177 100.752V104H193.651V100.962C193.651 100.71 193.585 100.509 193.455 100.36C193.324 100.211 193.114 100.136 192.825 100.136H189.843V104H188.331ZM189.843 98.7641H192.279C192.82 98.7641 193.24 98.6287 193.539 98.3581C193.837 98.0781 193.987 97.7001 193.987 97.2241V97.1121C193.987 96.6361 193.837 96.2627 193.539 95.9921C193.249 95.7121 192.829 95.5721 192.279 95.5721H189.843V98.7641ZM200.102 104.196C199.402 104.196 198.791 104.051 198.268 103.762C197.746 103.463 197.335 103.048 197.036 102.516C196.747 101.975 196.602 101.349 196.602 100.64V100.472C196.602 99.7534 196.747 99.1281 197.036 98.5961C197.326 98.0547 197.727 97.6394 198.24 97.3501C198.763 97.0514 199.365 96.9021 200.046 96.9021C200.709 96.9021 201.288 97.0514 201.782 97.3501C202.286 97.6394 202.678 98.0454 202.958 98.5681C203.238 99.0907 203.378 99.7021 203.378 100.402V100.948H198.072C198.091 101.555 198.292 102.04 198.674 102.404C199.066 102.759 199.552 102.936 200.13 102.936C200.672 102.936 201.078 102.815 201.348 102.572C201.628 102.329 201.843 102.049 201.992 101.732L203.182 102.348C203.052 102.609 202.86 102.885 202.608 103.174C202.366 103.463 202.044 103.706 201.642 103.902C201.241 104.098 200.728 104.196 200.102 104.196ZM198.086 99.8421H201.908C201.871 99.3194 201.684 98.9134 201.348 98.6241C201.012 98.3254 200.574 98.1761 200.032 98.1761C199.491 98.1761 199.048 98.3254 198.702 98.6241C198.366 98.9134 198.161 99.3194 198.086 99.8421ZM205.508 104L204.332 97.0981H205.774L206.642 103.034H206.866L208.07 97.0981H210.408L211.598 103.034H211.822L212.69 97.0981H214.132L212.956 104H210.534L209.344 98.0781H209.12L207.93 104H205.508ZM218.712 104.196C218.021 104.196 217.405 104.056 216.864 103.776C216.332 103.487 215.912 103.076 215.604 102.544C215.296 102.012 215.142 101.382 215.142 100.654V100.444C215.142 99.7161 215.296 99.0907 215.604 98.5681C215.912 98.0361 216.332 97.6254 216.864 97.3361C217.405 97.0467 218.021 96.9021 218.712 96.9021C219.403 96.9021 220.019 97.0467 220.56 97.3361C221.101 97.6254 221.526 98.0361 221.834 98.5681C222.142 99.0907 222.296 99.7161 222.296 100.444V100.654C222.296 101.382 222.142 102.012 221.834 102.544C221.526 103.076 221.101 103.487 220.56 103.776C220.019 104.056 219.403 104.196 218.712 104.196ZM218.712 102.908C219.347 102.908 219.86 102.707 220.252 102.306C220.653 101.895 220.854 101.331 220.854 100.612V100.486C220.854 99.7674 220.658 99.2074 220.266 98.8061C219.874 98.3954 219.356 98.1901 218.712 98.1901C218.087 98.1901 217.573 98.3954 217.172 98.8061C216.78 99.2074 216.584 99.7674 216.584 100.486V100.612C216.584 101.331 216.78 101.895 217.172 102.306C217.573 102.707 218.087 102.908 218.712 102.908ZM223.811 104V97.0981H225.225V97.9101H225.449C225.561 97.6207 225.739 97.4107 225.981 97.2801C226.233 97.1401 226.541 97.0701 226.905 97.0701H227.731V98.3721H226.849C226.383 98.3721 226 98.5027 225.701 98.7641C225.403 99.0161 225.253 99.4081 225.253 99.9401V104H223.811ZM231.555 104.196C230.986 104.196 230.458 104.056 229.973 103.776C229.488 103.496 229.096 103.095 228.797 102.572C228.508 102.04 228.363 101.401 228.363 100.654V100.444C228.363 99.7067 228.508 99.0721 228.797 98.5401C229.086 98.0081 229.474 97.6021 229.959 97.3221C230.444 97.0421 230.976 96.9021 231.555 96.9021C232.003 96.9021 232.376 96.9581 232.675 97.0701C232.983 97.1821 233.235 97.3267 233.431 97.5041C233.627 97.6721 233.776 97.8494 233.879 98.0361H234.103V94.2001H235.545V104H234.131V103.02H233.907C233.73 103.319 233.459 103.589 233.095 103.832C232.74 104.075 232.227 104.196 231.555 104.196ZM231.961 102.936C232.586 102.936 233.1 102.735 233.501 102.334C233.912 101.933 234.117 101.359 234.117 100.612V100.486C234.117 99.7487 233.916 99.1794 233.515 98.7781C233.114 98.3767 232.596 98.1761 231.961 98.1761C231.345 98.1761 230.832 98.3767 230.421 98.7781C230.02 99.1794 229.819 99.7487 229.819 100.486V100.612C229.819 101.359 230.02 101.933 230.421 102.334C230.832 102.735 231.345 102.936 231.961 102.936ZM240.676 104V97.0981H242.118V104H240.676ZM241.404 96.1601C241.124 96.1601 240.886 96.0714 240.69 95.8941C240.504 95.7074 240.41 95.4694 240.41 95.1801C240.41 94.8907 240.504 94.6574 240.69 94.4801C240.886 94.2934 241.124 94.2001 241.404 94.2001C241.694 94.2001 241.932 94.2934 242.118 94.4801C242.305 94.6574 242.398 94.8907 242.398 95.1801C242.398 95.4694 242.305 95.7074 242.118 95.8941C241.932 96.0714 241.694 96.1601 241.404 96.1601ZM246.806 104.196C245.929 104.196 245.201 104 244.622 103.608C244.044 103.216 243.689 102.623 243.558 101.83L244.902 101.508C244.977 101.891 245.103 102.194 245.28 102.418C245.458 102.642 245.677 102.801 245.938 102.894C246.209 102.987 246.498 103.034 246.806 103.034C247.264 103.034 247.614 102.945 247.856 102.768C248.108 102.591 248.234 102.362 248.234 102.082C248.234 101.802 248.118 101.597 247.884 101.466C247.651 101.335 247.306 101.228 246.848 101.144L246.372 101.06C245.906 100.976 245.481 100.855 245.098 100.696C244.716 100.537 244.412 100.318 244.188 100.038C243.964 99.7581 243.852 99.3987 243.852 98.9601C243.852 98.3067 244.095 97.8027 244.58 97.4481C245.066 97.0841 245.71 96.9021 246.512 96.9021C247.287 96.9021 247.922 97.0794 248.416 97.4341C248.92 97.7794 249.247 98.2507 249.396 98.8481L248.052 99.2261C247.968 98.8061 247.791 98.5121 247.52 98.3441C247.25 98.1667 246.914 98.0781 246.512 98.0781C246.12 98.0781 245.812 98.1527 245.588 98.3021C245.364 98.4421 245.252 98.6427 245.252 98.9041C245.252 99.1841 245.36 99.3894 245.574 99.5201C245.798 99.6507 246.097 99.7487 246.47 99.8141L246.96 99.8981C247.455 99.9821 247.908 100.099 248.318 100.248C248.729 100.397 249.051 100.612 249.284 100.892C249.527 101.172 249.648 101.545 249.648 102.012C249.648 102.703 249.392 103.239 248.878 103.622C248.365 104.005 247.674 104.196 246.806 104.196ZM256.932 104C256.512 104 256.176 103.874 255.924 103.622C255.681 103.37 255.56 103.034 255.56 102.614V98.3161H253.656V97.0981H255.56V94.8161H257.002V97.0981H259.06V98.3161H257.002V102.362C257.002 102.642 257.133 102.782 257.394 102.782H258.836V104H256.932ZM260.474 104V97.0981H261.888V97.9101H262.112C262.224 97.6207 262.402 97.4107 262.644 97.2801C262.896 97.1401 263.204 97.0701 263.568 97.0701H264.394V98.3721H263.512C263.046 98.3721 262.663 98.5027 262.364 98.7641C262.066 99.0161 261.916 99.4081 261.916 99.9401V104H260.474ZM267.559 104.196C267.064 104.196 266.621 104.112 266.229 103.944C265.846 103.776 265.538 103.529 265.305 103.202C265.081 102.875 264.969 102.479 264.969 102.012C264.969 101.536 265.081 101.144 265.305 100.836C265.538 100.519 265.851 100.281 266.243 100.122C266.644 99.9634 267.097 99.8841 267.601 99.8841H269.701V99.4361C269.701 99.0347 269.58 98.7127 269.337 98.4701C269.094 98.2274 268.721 98.1061 268.217 98.1061C267.722 98.1061 267.344 98.2227 267.083 98.4561C266.822 98.6894 266.649 98.9927 266.565 99.3661L265.221 98.9321C265.333 98.5587 265.51 98.2227 265.753 97.9241C266.005 97.6161 266.336 97.3687 266.747 97.1821C267.158 96.9954 267.652 96.9021 268.231 96.9021C269.127 96.9021 269.832 97.1307 270.345 97.5881C270.858 98.0454 271.115 98.6941 271.115 99.5341V102.376C271.115 102.656 271.246 102.796 271.507 102.796H272.095V104H271.017C270.69 104 270.424 103.916 270.219 103.748C270.014 103.58 269.911 103.351 269.911 103.062V103.02H269.701C269.626 103.16 269.514 103.323 269.365 103.51C269.216 103.697 268.996 103.86 268.707 104C268.418 104.131 268.035 104.196 267.559 104.196ZM267.769 103.006C268.348 103.006 268.814 102.843 269.169 102.516C269.524 102.18 269.701 101.723 269.701 101.144V101.004H267.685C267.302 101.004 266.994 101.088 266.761 101.256C266.528 101.415 266.411 101.653 266.411 101.97C266.411 102.287 266.532 102.539 266.775 102.726C267.018 102.913 267.349 103.006 267.769 103.006ZM273.217 104V97.0981H274.659V104H273.217ZM273.945 96.1601C273.665 96.1601 273.427 96.0714 273.231 95.8941C273.044 95.7074 272.951 95.4694 272.951 95.1801C272.951 94.8907 273.044 94.6574 273.231 94.4801C273.427 94.2934 273.665 94.2001 273.945 94.2001C274.234 94.2001 274.472 94.2934 274.659 94.4801C274.846 94.6574 274.939 94.8907 274.939 95.1801C274.939 95.4694 274.846 95.7074 274.659 95.8941C274.472 96.0714 274.234 96.1601 273.945 96.1601ZM276.519 104V97.0981H277.933V98.1341H278.157C278.288 97.8541 278.521 97.5927 278.857 97.3501C279.193 97.1074 279.692 96.9861 280.355 96.9861C280.878 96.9861 281.34 97.1027 281.741 97.3361C282.152 97.5694 282.474 97.9007 282.707 98.3301C282.94 98.7501 283.057 99.2587 283.057 99.8561V104H281.615V99.9681C281.615 99.3707 281.466 98.9321 281.167 98.6521C280.868 98.3627 280.458 98.2181 279.935 98.2181C279.338 98.2181 278.857 98.4141 278.493 98.8061C278.138 99.1981 277.961 99.7674 277.961 100.514V104H276.519ZM288.016 104.196C287.316 104.196 286.705 104.051 286.182 103.762C285.66 103.463 285.249 103.048 284.95 102.516C284.661 101.975 284.516 101.349 284.516 100.64V100.472C284.516 99.7534 284.661 99.1281 284.95 98.5961C285.24 98.0547 285.641 97.6394 286.154 97.3501C286.677 97.0514 287.279 96.9021 287.96 96.9021C288.623 96.9021 289.202 97.0514 289.696 97.3501C290.2 97.6394 290.592 98.0454 290.872 98.5681C291.152 99.0907 291.292 99.7021 291.292 100.402V100.948H285.986C286.005 101.555 286.206 102.04 286.588 102.404C286.98 102.759 287.466 102.936 288.044 102.936C288.586 102.936 288.992 102.815 289.262 102.572C289.542 102.329 289.757 102.049 289.906 101.732L291.096 102.348C290.966 102.609 290.774 102.885 290.522 103.174C290.28 103.463 289.958 103.706 289.556 103.902C289.155 104.098 288.642 104.196 288.016 104.196ZM286 99.8421H289.822C289.785 99.3194 289.598 98.9134 289.262 98.6241C288.926 98.3254 288.488 98.1761 287.946 98.1761C287.405 98.1761 286.962 98.3254 286.616 98.6241C286.28 98.9134 286.075 99.3194 286 99.8421ZM295.604 104.196C295.035 104.196 294.507 104.056 294.022 103.776C293.537 103.496 293.145 103.095 292.846 102.572C292.557 102.04 292.412 101.401 292.412 100.654V100.444C292.412 99.7067 292.557 99.0721 292.846 98.5401C293.135 98.0081 293.523 97.6021 294.008 97.3221C294.493 97.0421 295.025 96.9021 295.604 96.9021C296.052 96.9021 296.425 96.9581 296.724 97.0701C297.032 97.1821 297.284 97.3267 297.48 97.5041C297.676 97.6721 297.825 97.8494 297.928 98.0361H298.152V94.2001H299.594V104H298.18V103.02H297.956C297.779 103.319 297.508 103.589 297.144 103.832C296.789 104.075 296.276 104.196 295.604 104.196ZM296.01 102.936C296.635 102.936 297.149 102.735 297.55 102.334C297.961 101.933 298.166 101.359 298.166 100.612V100.486C298.166 99.7487 297.965 99.1794 297.564 98.7781C297.163 98.3767 296.645 98.1761 296.01 98.1761C295.394 98.1761 294.881 98.3767 294.47 98.7781C294.069 99.1794 293.868 99.7487 293.868 100.486V100.612C293.868 101.359 294.069 101.933 294.47 102.334C294.881 102.735 295.394 102.936 296.01 102.936ZM34.298 130.196C33.6073 130.196 32.9913 130.056 32.45 129.776C31.918 129.487 31.498 129.076 31.19 128.544C30.882 128.012 30.728 127.382 30.728 126.654V126.444C30.728 125.716 30.882 125.091 31.19 124.568C31.498 124.036 31.918 123.625 32.45 123.336C32.9913 123.047 33.6073 122.902 34.298 122.902C34.9887 122.902 35.6047 123.047 36.146 123.336C36.6873 123.625 37.112 124.036 37.42 124.568C37.728 125.091 37.882 125.716 37.882 126.444V126.654C37.882 127.382 37.728 128.012 37.42 128.544C37.112 129.076 36.6873 129.487 36.146 129.776C35.6047 130.056 34.9887 130.196 34.298 130.196ZM34.298 128.908C34.9327 128.908 35.446 128.707 35.838 128.306C36.2393 127.895 36.44 127.331 36.44 126.612V126.486C36.44 125.767 36.244 125.207 35.852 124.806C35.46 124.395 34.942 124.19 34.298 124.19C33.6727 124.19 33.1593 124.395 32.758 124.806C32.366 125.207 32.17 125.767 32.17 126.486V126.612C32.17 127.331 32.366 127.895 32.758 128.306C33.1593 128.707 33.6727 128.908 34.298 128.908ZM39.3973 130V123.098H40.8113V124.134H41.0353C41.1659 123.854 41.3993 123.593 41.7353 123.35C42.0713 123.107 42.5706 122.986 43.2333 122.986C43.7559 122.986 44.2179 123.103 44.6193 123.336C45.0299 123.569 45.3519 123.901 45.5853 124.33C45.8186 124.75 45.9353 125.259 45.9353 125.856V130H44.4933V125.968C44.4933 125.371 44.3439 124.932 44.0453 124.652C43.7466 124.363 43.3359 124.218 42.8133 124.218C42.2159 124.218 41.7353 124.414 41.3713 124.806C41.0166 125.198 40.8393 125.767 40.8393 126.514V130H39.3973ZM51.8169 132.8V131.54H55.6669C55.9283 131.54 56.0589 131.4 56.0589 131.12V128.992H55.8349C55.7509 129.179 55.6203 129.361 55.4429 129.538C55.2749 129.706 55.0463 129.846 54.7569 129.958C54.4676 130.07 54.1036 130.126 53.6649 130.126C53.1423 130.126 52.6756 130.009 52.2649 129.776C51.8543 129.543 51.5323 129.211 51.2989 128.782C51.0656 128.353 50.9489 127.844 50.9489 127.256V123.098H52.3909V127.144C52.3909 127.741 52.5403 128.185 52.8389 128.474C53.1376 128.754 53.5529 128.894 54.0849 128.894C54.6729 128.894 55.1443 128.698 55.4989 128.306C55.8629 127.914 56.0449 127.345 56.0449 126.598V123.098H57.4869V131.414C57.4869 131.834 57.3609 132.17 57.1089 132.422C56.8663 132.674 56.5303 132.8 56.1009 132.8H51.8169ZM62.5725 130.196C61.8819 130.196 61.2659 130.056 60.7245 129.776C60.1925 129.487 59.7725 129.076 59.4645 128.544C59.1565 128.012 59.0025 127.382 59.0025 126.654V126.444C59.0025 125.716 59.1565 125.091 59.4645 124.568C59.7725 124.036 60.1925 123.625 60.7245 123.336C61.2659 123.047 61.8819 122.902 62.5725 122.902C63.2632 122.902 63.8792 123.047 64.4205 123.336C64.9619 123.625 65.3865 124.036 65.6945 124.568C66.0025 125.091 66.1565 125.716 66.1565 126.444V126.654C66.1565 127.382 66.0025 128.012 65.6945 128.544C65.3865 129.076 64.9619 129.487 64.4205 129.776C63.8792 130.056 63.2632 130.196 62.5725 130.196ZM62.5725 128.908C63.2072 128.908 63.7205 128.707 64.1125 128.306C64.5139 127.895 64.7145 127.331 64.7145 126.612V126.486C64.7145 125.767 64.5185 125.207 64.1265 124.806C63.7345 124.395 63.2165 124.19 62.5725 124.19C61.9472 124.19 61.4339 124.395 61.0325 124.806C60.6405 125.207 60.4445 125.767 60.4445 126.486V126.612C60.4445 127.331 60.6405 127.895 61.0325 128.306C61.4339 128.707 61.9472 128.908 62.5725 128.908ZM70.3178 130.126C69.7951 130.126 69.3285 130.009 68.9178 129.776C68.5071 129.543 68.1851 129.211 67.9518 128.782C67.7185 128.353 67.6018 127.839 67.6018 127.242V123.098H69.0438V127.144C69.0438 127.741 69.1931 128.185 69.4918 128.474C69.7905 128.754 70.2058 128.894 70.7378 128.894C71.3258 128.894 71.7971 128.698 72.1518 128.306C72.5158 127.905 72.6978 127.331 72.6978 126.584V123.098H74.1398V130H72.7258V128.964H72.5018C72.3711 129.244 72.1378 129.51 71.8018 129.762C71.4658 130.005 70.9711 130.126 70.3178 130.126ZM75.9914 130V123.098H77.4054V123.91H77.6294C77.7414 123.621 77.9188 123.411 78.1614 123.28C78.4134 123.14 78.7214 123.07 79.0854 123.07H79.9114V124.372H79.0294C78.5628 124.372 78.1801 124.503 77.8814 124.764C77.5828 125.016 77.4334 125.408 77.4334 125.94V130H75.9914ZM86.5558 130.196C86.0612 130.196 85.6178 130.112 85.2258 129.944C84.8432 129.776 84.5352 129.529 84.3018 129.202C84.0778 128.875 83.9658 128.479 83.9658 128.012C83.9658 127.536 84.0778 127.144 84.3018 126.836C84.5352 126.519 84.8478 126.281 85.2398 126.122C85.6412 125.963 86.0938 125.884 86.5978 125.884H88.6978V125.436C88.6978 125.035 88.5765 124.713 88.3338 124.47C88.0912 124.227 87.7178 124.106 87.2138 124.106C86.7192 124.106 86.3412 124.223 86.0798 124.456C85.8185 124.689 85.6458 124.993 85.5618 125.366L84.2178 124.932C84.3298 124.559 84.5072 124.223 84.7498 123.924C85.0018 123.616 85.3332 123.369 85.7438 123.182C86.1545 122.995 86.6492 122.902 87.2278 122.902C88.1238 122.902 88.8285 123.131 89.3418 123.588C89.8552 124.045 90.1118 124.694 90.1118 125.534V128.376C90.1118 128.656 90.2425 128.796 90.5038 128.796H91.0918V130H90.0138C89.6872 130 89.4212 129.916 89.2158 129.748C89.0105 129.58 88.9078 129.351 88.9078 129.062V129.02H88.6978C88.6232 129.16 88.5112 129.323 88.3618 129.51C88.2125 129.697 87.9932 129.86 87.7038 130C87.4145 130.131 87.0318 130.196 86.5558 130.196ZM86.7658 129.006C87.3445 129.006 87.8112 128.843 88.1658 128.516C88.5205 128.18 88.6978 127.723 88.6978 127.144V127.004H86.6818C86.2992 127.004 85.9912 127.088 85.7578 127.256C85.5245 127.415 85.4078 127.653 85.4078 127.97C85.4078 128.287 85.5292 128.539 85.7718 128.726C86.0145 128.913 86.3458 129.006 86.7658 129.006ZM92.2139 130V123.098H93.6279V123.91H93.8519C93.9639 123.621 94.1413 123.411 94.3839 123.28C94.6359 123.14 94.9439 123.07 95.3079 123.07H96.1339V124.372H95.2519C94.7853 124.372 94.4026 124.503 94.1039 124.764C93.8053 125.016 93.6559 125.408 93.6559 125.94V130H92.2139ZM99.938 130C99.518 130 99.182 129.874 98.93 129.622C98.6873 129.37 98.566 129.034 98.566 128.614V124.316H96.662V123.098H98.566V120.816H100.008V123.098H102.066V124.316H100.008V128.362C100.008 128.642 100.139 128.782 100.4 128.782H101.842V130H99.938ZM103.48 130V123.098H104.922V130H103.48ZM104.208 122.16C103.928 122.16 103.69 122.071 103.494 121.894C103.307 121.707 103.214 121.469 103.214 121.18C103.214 120.891 103.307 120.657 103.494 120.48C103.69 120.293 103.928 120.2 104.208 120.2C104.497 120.2 104.735 120.293 104.922 120.48C105.109 120.657 105.202 120.891 105.202 121.18C105.202 121.469 105.109 121.707 104.922 121.894C104.735 122.071 104.497 122.16 104.208 122.16ZM109.988 130.196C109.325 130.196 108.723 130.056 108.182 129.776C107.65 129.496 107.225 129.09 106.908 128.558C106.6 128.026 106.446 127.387 106.446 126.64V126.458C106.446 125.711 106.6 125.077 106.908 124.554C107.225 124.022 107.65 123.616 108.182 123.336C108.723 123.047 109.325 122.902 109.988 122.902C110.651 122.902 111.215 123.023 111.682 123.266C112.149 123.509 112.522 123.831 112.802 124.232C113.091 124.633 113.278 125.077 113.362 125.562L111.962 125.856C111.915 125.548 111.817 125.268 111.668 125.016C111.519 124.764 111.309 124.563 111.038 124.414C110.767 124.265 110.427 124.19 110.016 124.19C109.615 124.19 109.251 124.283 108.924 124.47C108.607 124.647 108.355 124.909 108.168 125.254C107.981 125.59 107.888 126.001 107.888 126.486V126.612C107.888 127.097 107.981 127.513 108.168 127.858C108.355 128.203 108.607 128.465 108.924 128.642C109.251 128.819 109.615 128.908 110.016 128.908C110.623 128.908 111.085 128.754 111.402 128.446C111.719 128.129 111.92 127.727 112.004 127.242L113.404 127.564C113.292 128.04 113.091 128.479 112.802 128.88C112.522 129.281 112.149 129.603 111.682 129.846C111.215 130.079 110.651 130.196 109.988 130.196ZM114.787 130V120.2H116.229V130H114.787ZM121.253 130.196C120.553 130.196 119.942 130.051 119.419 129.762C118.897 129.463 118.486 129.048 118.187 128.516C117.898 127.975 117.753 127.349 117.753 126.64V126.472C117.753 125.753 117.898 125.128 118.187 124.596C118.477 124.055 118.878 123.639 119.391 123.35C119.914 123.051 120.516 122.902 121.197 122.902C121.86 122.902 122.439 123.051 122.933 123.35C123.437 123.639 123.829 124.045 124.109 124.568C124.389 125.091 124.529 125.702 124.529 126.402V126.948H119.223C119.242 127.555 119.443 128.04 119.825 128.404C120.217 128.759 120.703 128.936 121.281 128.936C121.823 128.936 122.229 128.815 122.499 128.572C122.779 128.329 122.994 128.049 123.143 127.732L124.333 128.348C124.203 128.609 124.011 128.885 123.759 129.174C123.517 129.463 123.195 129.706 122.793 129.902C122.392 130.098 121.879 130.196 121.253 130.196ZM119.237 125.842H123.059C123.022 125.319 122.835 124.913 122.499 124.624C122.163 124.325 121.725 124.176 121.183 124.176C120.642 124.176 120.199 124.325 119.853 124.624C119.517 124.913 119.312 125.319 119.237 125.842ZM128.813 130.196C127.936 130.196 127.208 130 126.629 129.608C126.05 129.216 125.696 128.623 125.565 127.83L126.909 127.508C126.984 127.891 127.11 128.194 127.287 128.418C127.464 128.642 127.684 128.801 127.945 128.894C128.216 128.987 128.505 129.034 128.813 129.034C129.27 129.034 129.62 128.945 129.863 128.768C130.115 128.591 130.241 128.362 130.241 128.082C130.241 127.802 130.124 127.597 129.891 127.466C129.658 127.335 129.312 127.228 128.855 127.144L128.379 127.06C127.912 126.976 127.488 126.855 127.105 126.696C126.722 126.537 126.419 126.318 126.195 126.038C125.971 125.758 125.859 125.399 125.859 124.96C125.859 124.307 126.102 123.803 126.587 123.448C127.072 123.084 127.716 122.902 128.519 122.902C129.294 122.902 129.928 123.079 130.423 123.434C130.927 123.779 131.254 124.251 131.403 124.848L130.059 125.226C129.975 124.806 129.798 124.512 129.527 124.344C129.256 124.167 128.92 124.078 128.519 124.078C128.127 124.078 127.819 124.153 127.595 124.302C127.371 124.442 127.259 124.643 127.259 124.904C127.259 125.184 127.366 125.389 127.581 125.52C127.805 125.651 128.104 125.749 128.477 125.814L128.967 125.898C129.462 125.982 129.914 126.099 130.325 126.248C130.736 126.397 131.058 126.612 131.291 126.892C131.534 127.172 131.655 127.545 131.655 128.012C131.655 128.703 131.398 129.239 130.885 129.622C130.372 130.005 129.681 130.196 128.813 130.196ZM133.075 131.904V131.078H133.551C133.933 131.078 134.125 130.887 134.125 130.504V130.056H133.915C133.588 130.056 133.317 129.958 133.103 129.762C132.888 129.566 132.781 129.319 132.781 129.02C132.781 128.693 132.888 128.432 133.103 128.236C133.317 128.031 133.588 127.928 133.915 127.928C134.241 127.928 134.507 128.035 134.713 128.25C134.927 128.455 135.035 128.726 135.035 129.062V130.518C135.035 131.442 134.573 131.904 133.649 131.904H133.075ZM142.288 130.196C141.41 130.196 140.682 130 140.104 129.608C139.525 129.216 139.17 128.623 139.04 127.83L140.384 127.508C140.458 127.891 140.584 128.194 140.762 128.418C140.939 128.642 141.158 128.801 141.42 128.894C141.69 128.987 141.98 129.034 142.288 129.034C142.745 129.034 143.095 128.945 143.338 128.768C143.59 128.591 143.716 128.362 143.716 128.082C143.716 127.802 143.599 127.597 143.366 127.466C143.132 127.335 142.787 127.228 142.33 127.144L141.854 127.06C141.387 126.976 140.962 126.855 140.58 126.696C140.197 126.537 139.894 126.318 139.67 126.038C139.446 125.758 139.334 125.399 139.334 124.96C139.334 124.307 139.576 123.803 140.062 123.448C140.547 123.084 141.191 122.902 141.994 122.902C142.768 122.902 143.403 123.079 143.898 123.434C144.402 123.779 144.728 124.251 144.878 124.848L143.534 125.226C143.45 124.806 143.272 124.512 143.002 124.344C142.731 124.167 142.395 124.078 141.994 124.078C141.602 124.078 141.294 124.153 141.07 124.302C140.846 124.442 140.734 124.643 140.734 124.904C140.734 125.184 140.841 125.389 141.056 125.52C141.28 125.651 141.578 125.749 141.952 125.814L142.442 125.898C142.936 125.982 143.389 126.099 143.8 126.248C144.21 126.397 144.532 126.612 144.766 126.892C145.008 127.172 145.13 127.545 145.13 128.012C145.13 128.703 144.873 129.239 144.36 129.622C143.846 130.005 143.156 130.196 142.288 130.196ZM149.769 130.196C149.078 130.196 148.462 130.056 147.921 129.776C147.389 129.487 146.969 129.076 146.661 128.544C146.353 128.012 146.199 127.382 146.199 126.654V126.444C146.199 125.716 146.353 125.091 146.661 124.568C146.969 124.036 147.389 123.625 147.921 123.336C148.462 123.047 149.078 122.902 149.769 122.902C150.46 122.902 151.076 123.047 151.617 123.336C152.158 123.625 152.583 124.036 152.891 124.568C153.199 125.091 153.353 125.716 153.353 126.444V126.654C153.353 127.382 153.199 128.012 152.891 128.544C152.583 129.076 152.158 129.487 151.617 129.776C151.076 130.056 150.46 130.196 149.769 130.196ZM149.769 128.908C150.404 128.908 150.917 128.707 151.309 128.306C151.71 127.895 151.911 127.331 151.911 126.612V126.486C151.911 125.767 151.715 125.207 151.323 124.806C150.931 124.395 150.413 124.19 149.769 124.19C149.144 124.19 148.63 124.395 148.229 124.806C147.837 125.207 147.641 125.767 147.641 126.486V126.612C147.641 127.331 147.837 127.895 148.229 128.306C148.63 128.707 149.144 128.908 149.769 128.908ZM158.157 130V123.098H159.599V130H158.157ZM158.885 122.16C158.605 122.16 158.367 122.071 158.171 121.894C157.984 121.707 157.891 121.469 157.891 121.18C157.891 120.891 157.984 120.657 158.171 120.48C158.367 120.293 158.605 120.2 158.885 120.2C159.174 120.2 159.412 120.293 159.599 120.48C159.785 120.657 159.879 120.891 159.879 121.18C159.879 121.469 159.785 121.707 159.599 121.894C159.412 122.071 159.174 122.16 158.885 122.16ZM164.049 130C163.629 130 163.293 129.874 163.041 129.622C162.798 129.37 162.677 129.034 162.677 128.614V124.316H160.773V123.098H162.677V120.816H164.119V123.098H166.177V124.316H164.119V128.362C164.119 128.642 164.249 128.782 164.511 128.782H165.953V130H164.049ZM174.085 130.196C173.422 130.196 172.82 130.056 172.279 129.776C171.747 129.496 171.322 129.09 171.005 128.558C170.697 128.026 170.543 127.387 170.543 126.64V126.458C170.543 125.711 170.697 125.077 171.005 124.554C171.322 124.022 171.747 123.616 172.279 123.336C172.82 123.047 173.422 122.902 174.085 122.902C174.748 122.902 175.312 123.023 175.779 123.266C176.246 123.509 176.619 123.831 176.899 124.232C177.188 124.633 177.375 125.077 177.459 125.562L176.059 125.856C176.012 125.548 175.914 125.268 175.765 125.016C175.616 124.764 175.406 124.563 175.135 124.414C174.864 124.265 174.524 124.19 174.113 124.19C173.712 124.19 173.348 124.283 173.021 124.47C172.704 124.647 172.452 124.909 172.265 125.254C172.078 125.59 171.985 126.001 171.985 126.486V126.612C171.985 127.097 172.078 127.513 172.265 127.858C172.452 128.203 172.704 128.465 173.021 128.642C173.348 128.819 173.712 128.908 174.113 128.908C174.72 128.908 175.182 128.754 175.499 128.446C175.816 128.129 176.017 127.727 176.101 127.242L177.501 127.564C177.389 128.04 177.188 128.479 176.899 128.88C176.619 129.281 176.246 129.603 175.779 129.846C175.312 130.079 174.748 130.196 174.085 130.196ZM181.026 130.196C180.532 130.196 180.088 130.112 179.696 129.944C179.314 129.776 179.006 129.529 178.772 129.202C178.548 128.875 178.436 128.479 178.436 128.012C178.436 127.536 178.548 127.144 178.772 126.836C179.006 126.519 179.318 126.281 179.71 126.122C180.112 125.963 180.564 125.884 181.068 125.884H183.168V125.436C183.168 125.035 183.047 124.713 182.804 124.47C182.562 124.227 182.188 124.106 181.684 124.106C181.19 124.106 180.812 124.223 180.55 124.456C180.289 124.689 180.116 124.993 180.032 125.366L178.688 124.932C178.8 124.559 178.978 124.223 179.22 123.924C179.472 123.616 179.804 123.369 180.214 123.182C180.625 122.995 181.12 122.902 181.698 122.902C182.594 122.902 183.299 123.131 183.812 123.588C184.326 124.045 184.582 124.694 184.582 125.534V128.376C184.582 128.656 184.713 128.796 184.974 128.796H185.562V130H184.484C184.158 130 183.892 129.916 183.686 129.748C183.481 129.58 183.378 129.351 183.378 129.062V129.02H183.168C183.094 129.16 182.982 129.323 182.832 129.51C182.683 129.697 182.464 129.86 182.174 130C181.885 130.131 181.502 130.196 181.026 130.196ZM181.236 129.006C181.815 129.006 182.282 128.843 182.636 128.516C182.991 128.18 183.168 127.723 183.168 127.144V127.004H181.152C180.77 127.004 180.462 127.088 180.228 127.256C179.995 127.415 179.878 127.653 179.878 127.97C179.878 128.287 180 128.539 180.242 128.726C180.485 128.913 180.816 129.006 181.236 129.006ZM186.684 130V123.098H188.098V124.134H188.322C188.453 123.854 188.686 123.593 189.022 123.35C189.358 123.107 189.858 122.986 190.52 122.986C191.043 122.986 191.505 123.103 191.906 123.336C192.317 123.569 192.639 123.901 192.872 124.33C193.106 124.75 193.222 125.259 193.222 125.856V130H191.78V125.968C191.78 125.371 191.631 124.932 191.332 124.652C191.034 124.363 190.623 124.218 190.1 124.218C189.503 124.218 189.022 124.414 188.658 124.806C188.304 125.198 188.126 125.767 188.126 126.514V130H186.684ZM198.306 130V123.098H199.72V124.134H199.944C200.075 123.854 200.308 123.593 200.644 123.35C200.98 123.107 201.479 122.986 202.142 122.986C202.665 122.986 203.127 123.103 203.528 123.336C203.939 123.569 204.261 123.901 204.494 124.33C204.727 124.75 204.844 125.259 204.844 125.856V130H203.402V125.968C203.402 125.371 203.253 124.932 202.954 124.652C202.655 124.363 202.245 124.218 201.722 124.218C201.125 124.218 200.644 124.414 200.28 124.806C199.925 125.198 199.748 125.767 199.748 126.514V130H198.306ZM208.781 130.196C208.287 130.196 207.843 130.112 207.451 129.944C207.069 129.776 206.761 129.529 206.527 129.202C206.303 128.875 206.191 128.479 206.191 128.012C206.191 127.536 206.303 127.144 206.527 126.836C206.761 126.519 207.073 126.281 207.465 126.122C207.867 125.963 208.319 125.884 208.823 125.884H210.923V125.436C210.923 125.035 210.802 124.713 210.559 124.47C210.317 124.227 209.943 124.106 209.439 124.106C208.945 124.106 208.567 124.223 208.305 124.456C208.044 124.689 207.871 124.993 207.787 125.366L206.443 124.932C206.555 124.559 206.733 124.223 206.975 123.924C207.227 123.616 207.559 123.369 207.969 123.182C208.38 122.995 208.875 122.902 209.453 122.902C210.349 122.902 211.054 123.131 211.567 123.588C212.081 124.045 212.337 124.694 212.337 125.534V128.376C212.337 128.656 212.468 128.796 212.729 128.796H213.317V130H212.239C211.913 130 211.647 129.916 211.441 129.748C211.236 129.58 211.133 129.351 211.133 129.062V129.02H210.923C210.849 129.16 210.737 129.323 210.587 129.51C210.438 129.697 210.219 129.86 209.929 130C209.64 130.131 209.257 130.196 208.781 130.196ZM208.991 129.006C209.57 129.006 210.037 128.843 210.391 128.516C210.746 128.18 210.923 127.723 210.923 127.144V127.004H208.907C208.525 127.004 208.217 127.088 207.983 127.256C207.75 127.415 207.633 127.653 207.633 127.97C207.633 128.287 207.755 128.539 207.997 128.726C208.24 128.913 208.571 129.006 208.991 129.006ZM216.551 130C216.131 130 215.795 129.874 215.543 129.622C215.3 129.37 215.179 129.034 215.179 128.614V124.316H213.275V123.098H215.179V120.816H216.621V123.098H218.679V124.316H216.621V128.362C216.621 128.642 216.752 128.782 217.013 128.782H218.455V130H216.551ZM222.739 130.126C222.216 130.126 221.75 130.009 221.339 129.776C220.928 129.543 220.606 129.211 220.373 128.782C220.14 128.353 220.023 127.839 220.023 127.242V123.098H221.465V127.144C221.465 127.741 221.614 128.185 221.913 128.474C222.212 128.754 222.627 128.894 223.159 128.894C223.747 128.894 224.218 128.698 224.573 128.306C224.937 127.905 225.119 127.331 225.119 126.584V123.098H226.561V130H225.147V128.964H224.923C224.792 129.244 224.559 129.51 224.223 129.762C223.887 130.005 223.392 130.126 222.739 130.126ZM228.413 130V123.098H229.827V123.91H230.051C230.163 123.621 230.34 123.411 230.583 123.28C230.835 123.14 231.143 123.07 231.507 123.07H232.333V124.372H231.451C230.984 124.372 230.601 124.503 230.303 124.764C230.004 125.016 229.855 125.408 229.855 125.94V130H228.413ZM235.497 130.196C235.003 130.196 234.559 130.112 234.167 129.944C233.785 129.776 233.477 129.529 233.243 129.202C233.019 128.875 232.907 128.479 232.907 128.012C232.907 127.536 233.019 127.144 233.243 126.836C233.477 126.519 233.789 126.281 234.181 126.122C234.583 125.963 235.035 125.884 235.539 125.884H237.639V125.436C237.639 125.035 237.518 124.713 237.275 124.47C237.033 124.227 236.659 124.106 236.155 124.106C235.661 124.106 235.283 124.223 235.021 124.456C234.76 124.689 234.587 124.993 234.503 125.366L233.159 124.932C233.271 124.559 233.449 124.223 233.691 123.924C233.943 123.616 234.275 123.369 234.685 123.182C235.096 122.995 235.591 122.902 236.169 122.902C237.065 122.902 237.77 123.131 238.283 123.588C238.797 124.045 239.053 124.694 239.053 125.534V128.376C239.053 128.656 239.184 128.796 239.445 128.796H240.033V130H238.955C238.629 130 238.363 129.916 238.157 129.748C237.952 129.58 237.849 129.351 237.849 129.062V129.02H237.639C237.565 129.16 237.453 129.323 237.303 129.51C237.154 129.697 236.935 129.86 236.645 130C236.356 130.131 235.973 130.196 235.497 130.196ZM235.707 129.006C236.286 129.006 236.753 128.843 237.107 128.516C237.462 128.18 237.639 127.723 237.639 127.144V127.004H235.623C235.241 127.004 234.933 127.088 234.699 127.256C234.466 127.415 234.349 127.653 234.349 127.97C234.349 128.287 234.471 128.539 234.713 128.726C234.956 128.913 235.287 129.006 235.707 129.006ZM241.155 130V120.2H242.597V130H241.155ZM244.457 130V120.2H245.899V130H244.457ZM248.557 132.8V131.54H252.407C252.669 131.54 252.799 131.4 252.799 131.12V128.992H252.575C252.491 129.179 252.361 129.361 252.183 129.538C252.015 129.706 251.787 129.846 251.497 129.958C251.208 130.07 250.844 130.126 250.405 130.126C249.883 130.126 249.416 130.009 249.005 129.776C248.595 129.543 248.273 129.211 248.039 128.782C247.806 128.353 247.689 127.844 247.689 127.256V123.098H249.131V127.144C249.131 127.741 249.281 128.185 249.579 128.474C249.878 128.754 250.293 128.894 250.825 128.894C251.413 128.894 251.885 128.698 252.239 128.306C252.603 127.914 252.785 127.345 252.785 126.598V123.098H254.227V131.414C254.227 131.834 254.101 132.17 253.849 132.422C253.607 132.674 253.271 132.8 252.841 132.8H248.557ZM259.367 130V123.098H260.809V130H259.367ZM260.095 122.16C259.815 122.16 259.577 122.071 259.381 121.894C259.195 121.707 259.101 121.469 259.101 121.18C259.101 120.891 259.195 120.657 259.381 120.48C259.577 120.293 259.815 120.2 260.095 120.2C260.385 120.2 260.623 120.293 260.809 120.48C260.996 120.657 261.089 120.891 261.089 121.18C261.089 121.469 260.996 121.707 260.809 121.894C260.623 122.071 260.385 122.16 260.095 122.16ZM262.669 130V123.098H264.083V124.134H264.307C264.438 123.854 264.671 123.593 265.007 123.35C265.343 123.107 265.843 122.986 266.505 122.986C267.028 122.986 267.49 123.103 267.891 123.336C268.302 123.569 268.624 123.901 268.857 124.33C269.091 124.75 269.207 125.259 269.207 125.856V130H267.765V125.968C267.765 125.371 267.616 124.932 267.317 124.652C267.019 124.363 266.608 124.218 266.085 124.218C265.488 124.218 265.007 124.414 264.643 124.806C264.289 125.198 264.111 125.767 264.111 126.514V130H262.669ZM273.831 130.196C272.953 130.196 272.225 130 271.647 129.608C271.068 129.216 270.713 128.623 270.583 127.83L271.927 127.508C272.001 127.891 272.127 128.194 272.305 128.418C272.482 128.642 272.701 128.801 272.963 128.894C273.233 128.987 273.523 129.034 273.831 129.034C274.288 129.034 274.638 128.945 274.881 128.768C275.133 128.591 275.259 128.362 275.259 128.082C275.259 127.802 275.142 127.597 274.909 127.466C274.675 127.335 274.33 127.228 273.873 127.144L273.397 127.06C272.93 126.976 272.505 126.855 272.123 126.696C271.74 126.537 271.437 126.318 271.213 126.038C270.989 125.758 270.877 125.399 270.877 124.96C270.877 124.307 271.119 123.803 271.605 123.448C272.09 123.084 272.734 122.902 273.537 122.902C274.311 122.902 274.946 123.079 275.441 123.434C275.945 123.779 276.271 124.251 276.421 124.848L275.077 125.226C274.993 124.806 274.815 124.512 274.545 124.344C274.274 124.167 273.938 124.078 273.537 124.078C273.145 124.078 272.837 124.153 272.613 124.302C272.389 124.442 272.277 124.643 272.277 124.904C272.277 125.184 272.384 125.389 272.599 125.52C272.823 125.651 273.121 125.749 273.495 125.814L273.985 125.898C274.479 125.982 274.932 126.099 275.343 126.248C275.753 126.397 276.075 126.612 276.309 126.892C276.551 127.172 276.673 127.545 276.673 128.012C276.673 128.703 276.416 129.239 275.903 129.622C275.389 130.005 274.699 130.196 273.831 130.196ZM281.242 130.196C280.542 130.196 279.931 130.051 279.408 129.762C278.885 129.463 278.475 129.048 278.176 128.516C277.887 127.975 277.742 127.349 277.742 126.64V126.472C277.742 125.753 277.887 125.128 278.176 124.596C278.465 124.055 278.867 123.639 279.38 123.35C279.903 123.051 280.505 122.902 281.186 122.902C281.849 122.902 282.427 123.051 282.922 123.35C283.426 123.639 283.818 124.045 284.098 124.568C284.378 125.091 284.518 125.702 284.518 126.402V126.948H279.212C279.231 127.555 279.431 128.04 279.814 128.404C280.206 128.759 280.691 128.936 281.27 128.936C281.811 128.936 282.217 128.815 282.488 128.572C282.768 128.329 282.983 128.049 283.132 127.732L284.322 128.348C284.191 128.609 284 128.885 283.748 129.174C283.505 129.463 283.183 129.706 282.782 129.902C282.381 130.098 281.867 130.196 281.242 130.196ZM279.226 125.842H283.048C283.011 125.319 282.824 124.913 282.488 124.624C282.152 124.325 281.713 124.176 281.172 124.176C280.631 124.176 280.187 124.325 279.842 124.624C279.506 124.913 279.301 125.319 279.226 125.842ZM285.974 130V123.098H287.388V123.91H287.612C287.724 123.621 287.901 123.411 288.144 123.28C288.396 123.14 288.704 123.07 289.068 123.07H289.894V124.372H289.012C288.545 124.372 288.163 124.503 287.864 124.764C287.565 125.016 287.416 125.408 287.416 125.94V130H285.974ZM293.698 130C293.278 130 292.942 129.874 292.69 129.622C292.447 129.37 292.326 129.034 292.326 128.614V124.316H290.422V123.098H292.326V120.816H293.768V123.098H295.826V124.316H293.768V128.362C293.768 128.642 293.899 128.782 294.16 128.782H295.602V130H293.698ZM118.303 156V150.316H116.371V149.098H118.303V147.586C118.303 147.166 118.429 146.83 118.681 146.578C118.933 146.326 119.269 146.2 119.689 146.2H121.467V147.418H120.151C119.881 147.418 119.745 147.558 119.745 147.838V149.098H121.733V150.316H119.745V156H118.303ZM125.89 156.196C125.2 156.196 124.584 156.056 124.042 155.776C123.51 155.487 123.09 155.076 122.782 154.544C122.474 154.012 122.32 153.382 122.32 152.654V152.444C122.32 151.716 122.474 151.091 122.782 150.568C123.09 150.036 123.51 149.625 124.042 149.336C124.584 149.047 125.2 148.902 125.89 148.902C126.581 148.902 127.197 149.047 127.738 149.336C128.28 149.625 128.704 150.036 129.012 150.568C129.32 151.091 129.474 151.716 129.474 152.444V152.654C129.474 153.382 129.32 154.012 129.012 154.544C128.704 155.076 128.28 155.487 127.738 155.776C127.197 156.056 126.581 156.196 125.89 156.196ZM125.89 154.908C126.525 154.908 127.038 154.707 127.43 154.306C127.832 153.895 128.032 153.331 128.032 152.612V152.486C128.032 151.767 127.836 151.207 127.444 150.806C127.052 150.395 126.534 150.19 125.89 150.19C125.265 150.19 124.752 150.395 124.35 150.806C123.958 151.207 123.762 151.767 123.762 152.486V152.612C123.762 153.331 123.958 153.895 124.35 154.306C124.752 154.707 125.265 154.908 125.89 154.908ZM130.99 156V149.098H132.404V149.91H132.628C132.74 149.621 132.917 149.411 133.16 149.28C133.412 149.14 133.72 149.07 134.084 149.07H134.91V150.372H134.028C133.561 150.372 133.178 150.503 132.88 150.764C132.581 151.016 132.432 151.408 132.432 151.94V156H130.99ZM140.21 158.8V157.54H144.06C144.321 157.54 144.452 157.4 144.452 157.12V154.992H144.228C144.144 155.179 144.013 155.361 143.836 155.538C143.668 155.706 143.439 155.846 143.15 155.958C142.861 156.07 142.497 156.126 142.058 156.126C141.535 156.126 141.069 156.009 140.658 155.776C140.247 155.543 139.925 155.211 139.692 154.782C139.459 154.353 139.342 153.844 139.342 153.256V149.098H140.784V153.144C140.784 153.741 140.933 154.185 141.232 154.474C141.531 154.754 141.946 154.894 142.478 154.894C143.066 154.894 143.537 154.698 143.892 154.306C144.256 153.914 144.438 153.345 144.438 152.598V149.098H145.88V157.414C145.88 157.834 145.754 158.17 145.502 158.422C145.259 158.674 144.923 158.8 144.494 158.8H140.21ZM150.966 156.196C150.275 156.196 149.659 156.056 149.118 155.776C148.586 155.487 148.166 155.076 147.858 154.544C147.55 154.012 147.396 153.382 147.396 152.654V152.444C147.396 151.716 147.55 151.091 147.858 150.568C148.166 150.036 148.586 149.625 149.118 149.336C149.659 149.047 150.275 148.902 150.966 148.902C151.656 148.902 152.272 149.047 152.814 149.336C153.355 149.625 153.78 150.036 154.088 150.568C154.396 151.091 154.55 151.716 154.55 152.444V152.654C154.55 153.382 154.396 154.012 154.088 154.544C153.78 155.076 153.355 155.487 152.814 155.776C152.272 156.056 151.656 156.196 150.966 156.196ZM150.966 154.908C151.6 154.908 152.114 154.707 152.506 154.306C152.907 153.895 153.108 153.331 153.108 152.612V152.486C153.108 151.767 152.912 151.207 152.52 150.806C152.128 150.395 151.61 150.19 150.966 150.19C150.34 150.19 149.827 150.395 149.426 150.806C149.034 151.207 148.838 151.767 148.838 152.486V152.612C148.838 153.331 149.034 153.895 149.426 154.306C149.827 154.707 150.34 154.908 150.966 154.908ZM158.711 156.126C158.188 156.126 157.722 156.009 157.311 155.776C156.9 155.543 156.578 155.211 156.345 154.782C156.112 154.353 155.995 153.839 155.995 153.242V149.098H157.437V153.144C157.437 153.741 157.586 154.185 157.885 154.474C158.184 154.754 158.599 154.894 159.131 154.894C159.719 154.894 160.19 154.698 160.545 154.306C160.909 153.905 161.091 153.331 161.091 152.584V149.098H162.533V156H161.119V154.964H160.895C160.764 155.244 160.531 155.51 160.195 155.762C159.859 156.005 159.364 156.126 158.711 156.126ZM165.252 156.196C164.926 156.196 164.65 156.089 164.426 155.874C164.212 155.659 164.104 155.384 164.104 155.048C164.104 154.712 164.212 154.441 164.426 154.236C164.65 154.021 164.926 153.914 165.252 153.914C165.579 153.914 165.85 154.021 166.064 154.236C166.288 154.451 166.4 154.721 166.4 155.048C166.4 155.384 166.288 155.659 166.064 155.874C165.85 156.089 165.579 156.196 165.252 156.196Z" fill="#0E0A0A"/>
<path d="M114.185 78.0001V71.0841H115.767V71.8821H116.005C116.107 71.5927 116.28 71.3827 116.523 71.2521C116.765 71.1214 117.055 71.0561 117.391 71.0561H118.231V72.4841H117.363C116.896 72.4841 116.518 72.6101 116.229 72.8621C115.939 73.1047 115.795 73.4827 115.795 73.9961V78.0001H114.185ZM122.291 78.1961C121.601 78.1961 120.989 78.0514 120.457 77.7621C119.935 77.4634 119.524 77.0481 119.225 76.5161C118.936 75.9747 118.791 75.3447 118.791 74.6261V74.4581C118.791 73.7301 118.936 73.1001 119.225 72.5681C119.515 72.0361 119.921 71.6254 120.443 71.3361C120.966 71.0374 121.568 70.8881 122.249 70.8881C122.921 70.8881 123.509 71.0374 124.013 71.3361C124.517 71.6254 124.909 72.0361 125.189 72.5681C125.469 73.1001 125.609 73.7207 125.609 74.4301V75.0041H120.415C120.434 75.5454 120.625 75.9794 120.989 76.3061C121.353 76.6327 121.801 76.7961 122.333 76.7961C122.856 76.7961 123.243 76.6841 123.495 76.4601C123.747 76.2267 123.939 75.9654 124.069 75.6761L125.399 76.3621C125.269 76.6141 125.077 76.8847 124.825 77.1741C124.583 77.4541 124.256 77.6967 123.845 77.9021C123.435 78.0981 122.917 78.1961 122.291 78.1961ZM120.429 73.7861H123.971C123.934 73.3287 123.757 72.9647 123.439 72.6941C123.131 72.4234 122.73 72.2881 122.235 72.2881C121.722 72.2881 121.311 72.4234 121.003 72.6941C120.695 72.9647 120.504 73.3287 120.429 73.7861ZM129.124 78.1961C128.639 78.1961 128.2 78.1121 127.808 77.9441C127.416 77.7667 127.103 77.5147 126.87 77.1881C126.646 76.8614 126.534 76.4601 126.534 75.9841C126.534 75.5174 126.646 75.1254 126.87 74.8081C127.103 74.4907 127.421 74.2527 127.822 74.0941C128.223 73.9261 128.681 73.8421 129.194 73.8421H131.196V73.4221C131.196 73.0581 131.084 72.7641 130.86 72.5401C130.636 72.3067 130.286 72.1901 129.81 72.1901C129.343 72.1901 128.989 72.3021 128.746 72.5261C128.513 72.7407 128.359 73.0207 128.284 73.3661L126.8 72.8761C126.912 72.5121 127.089 72.1807 127.332 71.8821C127.584 71.5834 127.915 71.3454 128.326 71.1681C128.737 70.9814 129.241 70.8881 129.838 70.8881C130.743 70.8881 131.453 71.1167 131.966 71.5741C132.489 72.0221 132.75 72.6754 132.75 73.5341V76.2501C132.75 76.5301 132.881 76.6701 133.142 76.6701H133.73V78.0001H132.596C132.26 78.0001 131.985 77.9161 131.77 77.7481C131.555 77.5801 131.448 77.3514 131.448 77.0621V77.0341H131.21C131.154 77.1647 131.056 77.3234 130.916 77.5101C130.776 77.6967 130.561 77.8601 130.272 78.0001C129.992 78.1307 129.609 78.1961 129.124 78.1961ZM129.39 76.8801C129.922 76.8801 130.356 76.7307 130.692 76.4321C131.028 76.1241 131.196 75.7134 131.196 75.2001V75.0601H129.292C128.947 75.0601 128.667 75.1347 128.452 75.2841C128.237 75.4334 128.13 75.6527 128.13 75.9421C128.13 76.2221 128.242 76.4507 128.466 76.6281C128.69 76.7961 128.998 76.8801 129.39 76.8801ZM137.46 78.1961C136.9 78.1961 136.377 78.0607 135.892 77.7901C135.407 77.5101 135.019 77.1041 134.73 76.5721C134.441 76.0401 134.296 75.4007 134.296 74.6541V74.4301C134.296 73.6834 134.441 73.0441 134.73 72.5121C135.019 71.9801 135.402 71.5787 135.878 71.3081C136.363 71.0281 136.891 70.8881 137.46 70.8881C137.889 70.8881 138.253 70.9394 138.552 71.0421C138.851 71.1447 139.089 71.2754 139.266 71.4341C139.453 71.5927 139.597 71.7654 139.7 71.9521H139.938V68.2001H141.534V78.0001H139.966V77.0901H139.728C139.56 77.3701 139.303 77.6267 138.958 77.8601C138.613 78.0841 138.113 78.1961 137.46 78.1961ZM137.936 76.7961C138.515 76.7961 138.995 76.6094 139.378 76.2361C139.761 75.8534 139.952 75.3121 139.952 74.6121V74.4721C139.952 73.7627 139.761 73.2214 139.378 72.8481C139.005 72.4747 138.524 72.2881 137.936 72.2881C137.357 72.2881 136.872 72.4747 136.48 72.8481C136.097 73.2214 135.906 73.7627 135.906 74.4721V74.6121C135.906 75.3121 136.097 75.8534 136.48 76.2361C136.872 76.6094 137.357 76.7961 137.936 76.7961ZM146.457 78.1961C145.767 78.1961 145.155 78.0514 144.623 77.7621C144.101 77.4634 143.69 77.0481 143.391 76.5161C143.102 75.9747 142.957 75.3447 142.957 74.6261V74.4581C142.957 73.7301 143.102 73.1001 143.391 72.5681C143.681 72.0361 144.087 71.6254 144.609 71.3361C145.132 71.0374 145.734 70.8881 146.415 70.8881C147.087 70.8881 147.675 71.0374 148.179 71.3361C148.683 71.6254 149.075 72.0361 149.355 72.5681C149.635 73.1001 149.775 73.7207 149.775 74.4301V75.0041H144.581C144.6 75.5454 144.791 75.9794 145.155 76.3061C145.519 76.6327 145.967 76.7961 146.499 76.7961C147.022 76.7961 147.409 76.6841 147.661 76.4601C147.913 76.2267 148.105 75.9654 148.235 75.6761L149.565 76.3621C149.435 76.6141 149.243 76.8847 148.991 77.1741C148.749 77.4541 148.422 77.6967 148.011 77.9021C147.601 78.0981 147.083 78.1961 146.457 78.1961ZM144.595 73.7861H148.137C148.1 73.3287 147.923 72.9647 147.605 72.6941C147.297 72.4234 146.896 72.2881 146.401 72.2881C145.888 72.2881 145.477 72.4234 145.169 72.6941C144.861 72.9647 144.67 73.3287 144.595 73.7861ZM151.148 78.0001V71.0841H152.73V71.8821H152.968C153.071 71.5927 153.243 71.3827 153.486 71.2521C153.729 71.1214 154.018 71.0561 154.354 71.0561H155.194V72.4841H154.326C153.859 72.4841 153.481 72.6101 153.192 72.8621C152.903 73.1047 152.758 73.4827 152.758 73.9961V78.0001H151.148ZM162.789 78.1961C162.098 78.1961 161.487 78.0514 160.955 77.7621C160.432 77.4634 160.022 77.0481 159.723 76.5161C159.434 75.9747 159.289 75.3447 159.289 74.6261V74.4581C159.289 73.7301 159.434 73.1001 159.723 72.5681C160.012 72.0361 160.418 71.6254 160.941 71.3361C161.464 71.0374 162.066 70.8881 162.747 70.8881C163.419 70.8881 164.007 71.0374 164.511 71.3361C165.015 71.6254 165.407 72.0361 165.687 72.5681C165.967 73.1001 166.107 73.7207 166.107 74.4301V75.0041H160.913C160.932 75.5454 161.123 75.9794 161.487 76.3061C161.851 76.6327 162.299 76.7961 162.831 76.7961C163.354 76.7961 163.741 76.6841 163.993 76.4601C164.245 76.2267 164.436 75.9654 164.567 75.6761L165.897 76.3621C165.766 76.6141 165.575 76.8847 165.323 77.1741C165.08 77.4541 164.754 77.6967 164.343 77.9021C163.932 78.0981 163.414 78.1961 162.789 78.1961ZM160.927 73.7861H164.469C164.432 73.3287 164.254 72.9647 163.937 72.6941C163.629 72.4234 163.228 72.2881 162.733 72.2881C162.22 72.2881 161.809 72.4234 161.501 72.6941C161.193 72.9647 161.002 73.3287 160.927 73.7861ZM166.427 78.0001L169.003 74.5141L166.469 71.0841H168.345L170.039 73.4781H170.277L171.971 71.0841H173.833L171.299 74.5141L173.875 78.0001H171.985L170.277 75.5641H170.039L168.331 78.0001H166.427ZM175.034 80.8001V71.0841H176.616V71.9941H176.854C177.013 71.7047 177.265 71.4481 177.61 71.2241C177.965 71.0001 178.469 70.8881 179.122 70.8881C179.682 70.8881 180.2 71.0281 180.676 71.3081C181.161 71.5787 181.549 71.9801 181.838 72.5121C182.127 73.0441 182.272 73.6834 182.272 74.4301V74.6541C182.272 75.4007 182.127 76.0401 181.838 76.5721C181.549 77.1041 181.166 77.5101 180.69 77.7901C180.214 78.0607 179.691 78.1961 179.122 78.1961C178.683 78.1961 178.315 78.1447 178.016 78.0421C177.727 77.9394 177.489 77.8041 177.302 77.6361C177.125 77.4681 176.985 77.3001 176.882 77.1321H176.644V80.8001H175.034ZM178.646 76.7961C179.234 76.7961 179.715 76.6094 180.088 76.2361C180.471 75.8534 180.662 75.3121 180.662 74.6121V74.4721C180.662 73.7627 180.471 73.2214 180.088 72.8481C179.705 72.4747 179.225 72.2881 178.646 72.2881C178.067 72.2881 177.582 72.4747 177.19 72.8481C176.807 73.2214 176.616 73.7627 176.616 74.4721V74.6121C176.616 75.3121 176.807 75.8534 177.19 76.2361C177.582 76.6094 178.067 76.7961 178.646 76.7961ZM186.859 78.1961C186.169 78.1961 185.557 78.0514 185.025 77.7621C184.503 77.4634 184.092 77.0481 183.793 76.5161C183.504 75.9747 183.359 75.3447 183.359 74.6261V74.4581C183.359 73.7301 183.504 73.1001 183.793 72.5681C184.083 72.0361 184.489 71.6254 185.011 71.3361C185.534 71.0374 186.136 70.8881 186.817 70.8881C187.489 70.8881 188.077 71.0374 188.581 71.3361C189.085 71.6254 189.477 72.0361 189.757 72.5681C190.037 73.1001 190.177 73.7207 190.177 74.4301V75.0041H184.983C185.002 75.5454 185.193 75.9794 185.557 76.3061C185.921 76.6327 186.369 76.7961 186.901 76.7961C187.424 76.7961 187.811 76.6841 188.063 76.4601C188.315 76.2267 188.507 75.9654 188.637 75.6761L189.967 76.3621C189.837 76.6141 189.645 76.8847 189.393 77.1741C189.151 77.4541 188.824 77.6967 188.413 77.9021C188.003 78.0981 187.485 78.1961 186.859 78.1961ZM184.997 73.7861H188.539C188.502 73.3287 188.325 72.9647 188.007 72.6941C187.699 72.4234 187.298 72.2881 186.803 72.2881C186.29 72.2881 185.879 72.4234 185.571 72.6941C185.263 72.9647 185.072 73.3287 184.997 73.7861ZM191.55 78.0001V71.0841H193.132V71.8821H193.37C193.473 71.5927 193.645 71.3827 193.888 71.2521C194.131 71.1214 194.42 71.0561 194.756 71.0561H195.596V72.4841H194.728C194.261 72.4841 193.883 72.6101 193.594 72.8621C193.305 73.1047 193.16 73.4827 193.16 73.9961V78.0001H191.55ZM196.739 78.0001V71.0841H198.349V78.0001H196.739ZM197.537 70.2021C197.247 70.2021 196.995 70.1087 196.781 69.9221C196.575 69.7261 196.473 69.4694 196.473 69.1521C196.473 68.8347 196.575 68.5827 196.781 68.3961C196.995 68.2001 197.247 68.1021 197.537 68.1021C197.845 68.1021 198.097 68.2001 198.293 68.3961C198.498 68.5827 198.601 68.8347 198.601 69.1521C198.601 69.4694 198.498 69.7261 198.293 69.9221C198.097 70.1087 197.845 70.2021 197.537 70.2021ZM203.273 78.1961C202.583 78.1961 201.971 78.0514 201.439 77.7621C200.917 77.4634 200.506 77.0481 200.207 76.5161C199.918 75.9747 199.773 75.3447 199.773 74.6261V74.4581C199.773 73.7301 199.918 73.1001 200.207 72.5681C200.497 72.0361 200.903 71.6254 201.425 71.3361C201.948 71.0374 202.55 70.8881 203.231 70.8881C203.903 70.8881 204.491 71.0374 204.995 71.3361C205.499 71.6254 205.891 72.0361 206.171 72.5681C206.451 73.1001 206.591 73.7207 206.591 74.4301V75.0041H201.397C201.416 75.5454 201.607 75.9794 201.971 76.3061C202.335 76.6327 202.783 76.7961 203.315 76.7961C203.838 76.7961 204.225 76.6841 204.477 76.4601C204.729 76.2267 204.921 75.9654 205.051 75.6761L206.381 76.3621C206.251 76.6141 206.059 76.8847 205.807 77.1741C205.565 77.4541 205.238 77.6967 204.827 77.9021C204.417 78.0981 203.899 78.1961 203.273 78.1961ZM201.411 73.7861H204.953C204.916 73.3287 204.739 72.9647 204.421 72.6941C204.113 72.4234 203.712 72.2881 203.217 72.2881C202.704 72.2881 202.293 72.4234 201.985 72.6941C201.677 72.9647 201.486 73.3287 201.411 73.7861ZM207.964 78.0001V71.0841H209.546V72.0501H209.784C209.905 71.7887 210.125 71.5414 210.442 71.3081C210.759 71.0747 211.24 70.9581 211.884 70.9581C212.416 70.9581 212.887 71.0794 213.298 71.3221C213.709 71.5647 214.026 71.9007 214.25 72.3301C214.483 72.7594 214.6 73.2681 214.6 73.8561V78.0001H212.99V73.9821C212.99 73.4221 212.85 73.0067 212.57 72.7361C212.299 72.4561 211.912 72.3161 211.408 72.3161C210.839 72.3161 210.391 72.5074 210.064 72.8901C209.737 73.2634 209.574 73.8001 209.574 74.5001V78.0001H207.964ZM219.531 78.1961C218.859 78.1961 218.253 78.0561 217.711 77.7761C217.17 77.4961 216.741 77.0901 216.423 76.5581C216.115 76.0261 215.961 75.3867 215.961 74.6401V74.4441C215.961 73.6974 216.115 73.0581 216.423 72.5261C216.741 71.9941 217.17 71.5881 217.711 71.3081C218.253 71.0281 218.859 70.8881 219.531 70.8881C220.194 70.8881 220.759 71.0047 221.225 71.2381C221.701 71.4714 222.084 71.7934 222.373 72.2041C222.663 72.6054 222.849 73.0581 222.933 73.5621L221.379 73.8841C221.342 73.5947 221.253 73.3334 221.113 73.1001C220.973 72.8574 220.773 72.6661 220.511 72.5261C220.259 72.3861 219.947 72.3161 219.573 72.3161C219.191 72.3161 218.845 72.4001 218.537 72.5681C218.239 72.7267 218.001 72.9694 217.823 73.2961C217.655 73.6227 217.571 74.0147 217.571 74.4721V74.6121C217.571 75.0694 217.655 75.4614 217.823 75.7881C218.001 76.1054 218.239 76.3481 218.537 76.5161C218.845 76.6841 219.191 76.7681 219.573 76.7681C220.143 76.7681 220.572 76.6234 220.861 76.3341C221.16 76.0354 221.347 75.6527 221.421 75.1861L222.975 75.5501C222.863 76.0354 222.663 76.4787 222.373 76.8801C222.084 77.2814 221.701 77.6034 221.225 77.8461C220.759 78.0794 220.194 78.1961 219.531 78.1961ZM227.425 78.1961C226.735 78.1961 226.123 78.0514 225.591 77.7621C225.069 77.4634 224.658 77.0481 224.359 76.5161C224.07 75.9747 223.925 75.3447 223.925 74.6261V74.4581C223.925 73.7301 224.07 73.1001 224.359 72.5681C224.649 72.0361 225.055 71.6254 225.577 71.3361C226.1 71.0374 226.702 70.8881 227.383 70.8881C228.055 70.8881 228.643 71.0374 229.147 71.3361C229.651 71.6254 230.043 72.0361 230.323 72.5681C230.603 73.1001 230.743 73.7207 230.743 74.4301V75.0041H225.549C225.568 75.5454 225.759 75.9794 226.123 76.3061C226.487 76.6327 226.935 76.7961 227.467 76.7961C227.99 76.7961 228.377 76.6841 228.629 76.4601C228.881 76.2267 229.073 75.9654 229.203 75.6761L230.533 76.3621C230.403 76.6141 230.211 76.8847 229.959 77.1741C229.717 77.4541 229.39 77.6967 228.979 77.9021C228.569 78.0981 228.051 78.1961 227.425 78.1961ZM225.563 73.7861H229.105C229.068 73.3287 228.891 72.9647 228.573 72.6941C228.265 72.4234 227.864 72.2881 227.369 72.2881C226.856 72.2881 226.445 72.4234 226.137 72.6941C225.829 72.9647 225.638 73.3287 225.563 73.7861ZM31.022 156V149.084H32.632V156H31.022ZM31.82 148.202C31.5307 148.202 31.2787 148.109 31.064 147.922C30.8587 147.726 30.756 147.469 30.756 147.152C30.756 146.835 30.8587 146.583 31.064 146.396C31.2787 146.2 31.5307 146.102 31.82 146.102C32.128 146.102 32.38 146.2 32.576 146.396C32.7813 146.583 32.884 146.835 32.884 147.152C32.884 147.469 32.7813 147.726 32.576 147.922C32.38 148.109 32.128 148.202 31.82 148.202ZM34.3924 156V149.084H35.9744V150.05H36.2124C36.3337 149.789 36.5531 149.541 36.8704 149.308C37.1877 149.075 37.6684 148.958 38.3124 148.958C38.8444 148.958 39.3157 149.079 39.7264 149.322C40.1371 149.565 40.4544 149.901 40.6784 150.33C40.9117 150.759 41.0284 151.268 41.0284 151.856V156H39.4184V151.982C39.4184 151.422 39.2784 151.007 38.9984 150.736C38.7277 150.456 38.3404 150.316 37.8364 150.316C37.2671 150.316 36.8191 150.507 36.4924 150.89C36.1657 151.263 36.0024 151.8 36.0024 152.5V156H34.3924ZM45.1663 156C44.7183 156 44.3589 155.869 44.0883 155.608C43.8269 155.337 43.6963 154.973 43.6963 154.516V150.414H41.8903V149.084H43.6963V146.858H45.3063V149.084H47.2943V150.414H45.3063V154.25C45.3063 154.53 45.4369 154.67 45.6983 154.67H47.0843V156H45.1663ZM51.5706 156.196C50.8799 156.196 50.2686 156.051 49.7366 155.762C49.2139 155.463 48.8033 155.048 48.5046 154.516C48.2153 153.975 48.0706 153.345 48.0706 152.626V152.458C48.0706 151.73 48.2153 151.1 48.5046 150.568C48.7939 150.036 49.1999 149.625 49.7226 149.336C50.2453 149.037 50.8473 148.888 51.5286 148.888C52.2006 148.888 52.7886 149.037 53.2926 149.336C53.7966 149.625 54.1886 150.036 54.4686 150.568C54.7486 151.1 54.8886 151.721 54.8886 152.43V153.004H49.6946C49.7133 153.545 49.9046 153.979 50.2686 154.306C50.6326 154.633 51.0806 154.796 51.6126 154.796C52.1353 154.796 52.5226 154.684 52.7746 154.46C53.0266 154.227 53.2179 153.965 53.3486 153.676L54.6786 154.362C54.5479 154.614 54.3566 154.885 54.1046 155.174C53.8619 155.454 53.5353 155.697 53.1246 155.902C52.7139 156.098 52.1959 156.196 51.5706 156.196ZM49.7086 151.786H53.2506C53.2133 151.329 53.0359 150.965 52.7186 150.694C52.4106 150.423 52.0093 150.288 51.5146 150.288C51.0013 150.288 50.5906 150.423 50.2826 150.694C49.9746 150.965 49.7833 151.329 49.7086 151.786ZM56.2614 156V149.084H57.8434V149.882H58.0814C58.184 149.593 58.3567 149.383 58.5994 149.252C58.842 149.121 59.1314 149.056 59.4674 149.056H60.3074V150.484H59.4394C58.9727 150.484 58.5947 150.61 58.3054 150.862C58.016 151.105 57.8714 151.483 57.8714 151.996V156H56.2614ZM61.4501 156V149.084H63.0321V150.05H63.2701C63.3915 149.789 63.6108 149.541 63.9281 149.308C64.2455 149.075 64.7261 148.958 65.3701 148.958C65.9021 148.958 66.3735 149.079 66.7841 149.322C67.1948 149.565 67.5121 149.901 67.7361 150.33C67.9695 150.759 68.0861 151.268 68.0861 151.856V156H66.4761V151.982C66.4761 151.422 66.3361 151.007 66.0561 150.736C65.7855 150.456 65.3981 150.316 64.8941 150.316C64.3248 150.316 63.8768 150.507 63.5501 150.89C63.2235 151.263 63.0601 151.8 63.0601 152.5V156H61.4501ZM71.9254 156.196C71.4401 156.196 71.0014 156.112 70.6094 155.944C70.2174 155.767 69.9047 155.515 69.6714 155.188C69.4474 154.861 69.3354 154.46 69.3354 153.984C69.3354 153.517 69.4474 153.125 69.6714 152.808C69.9047 152.491 70.2221 152.253 70.6234 152.094C71.0247 151.926 71.4821 151.842 71.9954 151.842H73.9974V151.422C73.9974 151.058 73.8854 150.764 73.6614 150.54C73.4374 150.307 73.0874 150.19 72.6114 150.19C72.1447 150.19 71.7901 150.302 71.5474 150.526C71.3141 150.741 71.1601 151.021 71.0854 151.366L69.6014 150.876C69.7134 150.512 69.8907 150.181 70.1334 149.882C70.3854 149.583 70.7167 149.345 71.1274 149.168C71.5381 148.981 72.0421 148.888 72.6394 148.888C73.5447 148.888 74.2541 149.117 74.7674 149.574C75.2901 150.022 75.5514 150.675 75.5514 151.534V154.25C75.5514 154.53 75.6821 154.67 75.9434 154.67H76.5314V156H75.3974C75.0614 156 74.7861 155.916 74.5714 155.748C74.3567 155.58 74.2494 155.351 74.2494 155.062V155.034H74.0114C73.9554 155.165 73.8574 155.323 73.7174 155.51C73.5774 155.697 73.3627 155.86 73.0734 156C72.7934 156.131 72.4107 156.196 71.9254 156.196ZM72.1914 154.88C72.7234 154.88 73.1574 154.731 73.4934 154.432C73.8294 154.124 73.9974 153.713 73.9974 153.2V153.06H72.0934C71.7481 153.06 71.4681 153.135 71.2534 153.284C71.0387 153.433 70.9314 153.653 70.9314 153.942C70.9314 154.222 71.0434 154.451 71.2674 154.628C71.4914 154.796 71.7994 154.88 72.1914 154.88ZM77.5835 156V146.2H79.1935V156H77.5835ZM84.2422 156V146.2H85.8522V156H84.2422ZM87.6126 156V149.084H89.2226V156H87.6126ZM88.4106 148.202C88.1213 148.202 87.8693 148.109 87.6546 147.922C87.4493 147.726 87.3466 147.469 87.3466 147.152C87.3466 146.835 87.4493 146.583 87.6546 146.396C87.8693 146.2 88.1213 146.102 88.4106 146.102C88.7186 146.102 88.9706 146.2 89.1666 146.396C89.372 146.583 89.4746 146.835 89.4746 147.152C89.4746 147.469 89.372 147.726 89.1666 147.922C88.9706 148.109 88.7186 148.202 88.4106 148.202ZM90.983 156V149.084H92.565V150.05H92.803C92.9243 149.789 93.1437 149.541 93.461 149.308C93.7783 149.075 94.259 148.958 94.903 148.958C95.435 148.958 95.9063 149.079 96.317 149.322C96.7277 149.565 97.045 149.901 97.269 150.33C97.5023 150.759 97.619 151.268 97.619 151.856V156H96.009V151.982C96.009 151.422 95.869 151.007 95.589 150.736C95.3183 150.456 94.931 150.316 94.427 150.316C93.8577 150.316 93.4097 150.507 93.083 150.89C92.7563 151.263 92.593 151.8 92.593 152.5V156H90.983ZM99.3163 156V146.2H100.926V151.702H101.164L103.656 149.084H105.77L102.424 152.43L105.882 156H103.796L101.164 153.186H100.926V156H99.3163ZM109.508 156.196C108.612 156.196 107.874 156 107.296 155.608C106.717 155.216 106.367 154.642 106.246 153.886L107.73 153.508C107.795 153.863 107.912 154.143 108.08 154.348C108.248 154.553 108.453 154.698 108.696 154.782C108.948 154.866 109.218 154.908 109.508 154.908C109.946 154.908 110.273 154.829 110.488 154.67C110.712 154.511 110.824 154.311 110.824 154.068C110.824 153.816 110.716 153.629 110.502 153.508C110.296 153.387 109.979 153.284 109.55 153.2L109.116 153.13C108.64 153.037 108.206 152.911 107.814 152.752C107.422 152.584 107.104 152.36 106.862 152.08C106.628 151.791 106.512 151.427 106.512 150.988C106.512 150.316 106.759 149.798 107.254 149.434C107.758 149.07 108.416 148.888 109.228 148.888C110.002 148.888 110.642 149.061 111.146 149.406C111.65 149.751 111.976 150.213 112.126 150.792L110.642 151.24C110.567 150.848 110.404 150.573 110.152 150.414C109.9 150.246 109.592 150.162 109.228 150.162C108.854 150.162 108.565 150.227 108.36 150.358C108.164 150.489 108.066 150.675 108.066 150.918C108.066 151.161 108.168 151.343 108.374 151.464C108.579 151.585 108.854 151.674 109.2 151.73L109.634 151.814C110.147 151.907 110.609 152.029 111.02 152.178C111.44 152.327 111.771 152.542 112.014 152.822C112.256 153.102 112.378 153.48 112.378 153.956C112.378 154.675 112.116 155.23 111.594 155.622C111.08 156.005 110.385 156.196 109.508 156.196Z" fill="#16a34a"/>
<path d="M113.163 79.7501H231.093V80.4501H113.163V79.7501ZM30 157.75H112.7V158.45H30V157.75Z" fill="#16a34a"/>
<mask id="path-3-inside-1_1661_1296" fill="white">
<path fill-rule="evenodd" clip-rule="evenodd" d="M149.589 32.91C149 33.8719 149 35.1813 149 37.8V51.23C149 53.8487 149 55.1581 149.589 56.12C149.919 56.6582 150.372 57.1107 150.91 57.4406C151.872 58.03 153.181 58.03 155.8 58.03H165.888L171 62.99L176.112 58.03H185.2C187.819 58.03 189.128 58.03 190.09 57.4406C190.628 57.1107 191.081 56.6582 191.411 56.12C192 55.1581 192 53.8487 192 51.23V37.8C192 35.1813 192 33.8719 191.411 32.91C191.081 32.3718 190.628 31.9193 190.09 31.5894C189.128 31 187.819 31 185.2 31H155.8C153.181 31 151.872 31 150.91 31.5894C150.372 31.9193 149.919 32.3718 149.589 32.91Z"/>
</mask>
<path fill-rule="evenodd" clip-rule="evenodd" d="M149.589 32.91C149 33.8719 149 35.1813 149 37.8V51.23C149 53.8487 149 55.1581 149.589 56.12C149.919 56.6582 150.372 57.1107 150.91 57.4406C151.872 58.03 153.181 58.03 155.8 58.03H165.888L171 62.99L176.112 58.03H185.2C187.819 58.03 189.128 58.03 190.09 57.4406C190.628 57.1107 191.081 56.6582 191.411 56.12C192 55.1581 192 53.8487 192 51.23V37.8C192 35.1813 192 33.8719 191.411 32.91C191.081 32.3718 190.628 31.9193 190.09 31.5894C189.128 31 187.819 31 185.2 31H155.8C153.181 31 151.872 31 150.91 31.5894C150.372 31.9193 149.919 32.3718 149.589 32.91Z" fill="white"/>
<path d="M149.589 32.91L150.442 33.4325L150.442 33.4325L149.589 32.91ZM149.589 56.12L148.737 56.6425L148.737 56.6425L149.589 56.12ZM150.91 57.4406L151.433 56.5879L151.433 56.5879L150.91 57.4406ZM165.888 58.03L166.585 57.3123L166.294 57.03H165.888V58.03ZM171 62.99L170.304 63.7077L171 64.3834L171.696 63.7077L171 62.99ZM176.112 58.03V57.03H175.706L175.415 57.3123L176.112 58.03ZM190.09 57.4406L189.567 56.5879L189.567 56.5879L190.09 57.4406ZM191.411 56.12L192.263 56.6425L192.263 56.6425L191.411 56.12ZM191.411 32.91L190.558 33.4325L190.558 33.4325L191.411 32.91ZM190.09 31.5894L189.567 32.4421L189.567 32.4421L190.09 31.5894ZM150.91 31.5894L150.388 30.7368L150.388 30.7368L150.91 31.5894ZM150 37.8C150 36.4713 150.001 35.5449 150.069 34.8283C150.136 34.1266 150.26 33.7299 150.442 33.4325L148.737 32.3875C148.33 33.052 148.159 33.7909 148.078 34.639C147.999 35.4723 148 36.51 148 37.8H150ZM150 51.23V37.8H148V51.23H150ZM150.442 55.5975C150.26 55.3001 150.136 54.9034 150.069 54.2017C150.001 53.4851 150 52.5587 150 51.23H148C148 52.52 147.999 53.5577 148.078 54.391C148.159 55.2391 148.33 55.978 148.737 56.6425L150.442 55.5975ZM151.433 56.5879C151.029 56.3406 150.689 56.0012 150.442 55.5975L148.737 56.6425C149.149 57.3153 149.715 57.8809 150.388 58.2932L151.433 56.5879ZM155.8 57.03C154.471 57.03 153.545 57.0289 152.828 56.9608C152.127 56.8941 151.73 56.7702 151.433 56.5879L150.388 58.2932C151.052 58.7004 151.791 58.8712 152.639 58.9518C153.472 59.0311 154.51 59.03 155.8 59.03V57.03ZM165.888 57.03H155.8V59.03H165.888V57.03ZM171.696 62.2723L166.585 57.3123L165.192 58.7477L170.304 63.7077L171.696 62.2723ZM175.415 57.3123L170.304 62.2723L171.696 63.7077L176.808 58.7477L175.415 57.3123ZM185.2 57.03H176.112V59.03H185.2V57.03ZM189.567 56.5879C189.27 56.7702 188.873 56.8941 188.172 56.9608C187.455 57.0289 186.529 57.03 185.2 57.03V59.03C186.49 59.03 187.528 59.0311 188.361 58.9518C189.209 58.8712 189.948 58.7004 190.612 58.2932L189.567 56.5879ZM190.558 55.5975C190.311 56.0012 189.971 56.3406 189.567 56.5879L190.612 58.2932C191.285 57.8809 191.851 57.3153 192.263 56.6425L190.558 55.5975ZM191 51.23C191 52.5587 190.999 53.4851 190.931 54.2017C190.864 54.9034 190.74 55.3001 190.558 55.5975L192.263 56.6425C192.67 55.978 192.841 55.2391 192.922 54.391C193.001 53.5577 193 52.52 193 51.23H191ZM191 37.8V51.23H193V37.8H191ZM190.558 33.4325C190.74 33.7299 190.864 34.1266 190.931 34.8283C190.999 35.5449 191 36.4713 191 37.8H193C193 36.51 193.001 35.4723 192.922 34.639C192.841 33.7909 192.67 33.052 192.263 32.3875L190.558 33.4325ZM189.567 32.4421C189.971 32.6894 190.311 33.0288 190.558 33.4325L192.263 32.3875C191.851 31.7147 191.285 31.1491 190.612 30.7368L189.567 32.4421ZM185.2 32C186.529 32 187.455 32.0011 188.172 32.0692C188.873 32.1359 189.27 32.2598 189.567 32.4421L190.612 30.7368C189.948 30.3296 189.209 30.1588 188.361 30.0782C187.528 29.9989 186.49 30 185.2 30V32ZM155.8 32H185.2V30H155.8V32ZM151.433 32.4421C151.73 32.2598 152.127 32.1359 152.828 32.0692C153.545 32.0011 154.471 32 155.8 32V30C154.51 30 153.472 29.9989 152.639 30.0782C151.791 30.1588 151.052 30.3296 150.388 30.7368L151.433 32.4421ZM150.442 33.4325C150.689 33.0288 151.029 32.6894 151.433 32.4421L150.388 30.7368C149.715 31.1491 149.149 31.7147 148.737 32.3875L150.442 33.4325Z" fill="#0E0A0A" mask="url(#path-3-inside-1_1661_1296)"/>
<path d="M169.667 45.2322C169.953 45.6044 170.319 45.9123 170.738 46.1351C171.157 46.3579 171.621 46.4904 172.098 46.5236C172.575 46.5568 173.053 46.4899 173.501 46.3275C173.949 46.1651 174.356 45.9109 174.694 45.5822L176.694 43.6377C177.301 43.0265 177.637 42.2078 177.629 41.3581C177.622 40.5083 177.271 39.6954 176.653 39.0946C176.035 38.4937 175.199 38.1528 174.325 38.1454C173.451 38.1381 172.609 38.4647 171.98 39.0551L170.834 40.1635" stroke="black" stroke-width="1.33333" stroke-linecap="round" stroke-linejoin="round"/>
<path d="M172.333 43.9358C172.047 43.5636 171.682 43.2557 171.262 43.0329C170.843 42.8101 170.379 42.6776 169.902 42.6444C169.426 42.6112 168.947 42.6781 168.499 42.8405C168.051 43.0029 167.645 43.2571 167.307 43.5858L165.307 45.5303C164.7 46.1415 164.364 46.9602 164.371 47.8099C164.379 48.6597 164.729 49.4725 165.347 50.0734C165.965 50.6743 166.801 51.0152 167.675 51.0225C168.549 51.0299 169.391 50.7033 170.02 50.1129L171.16 49.0045" stroke="black" stroke-width="1.33333" stroke-linecap="round" stroke-linejoin="round"/>
<mask id="path-7-inside-2_1661_1296" fill="white">
<path fill-rule="evenodd" clip-rule="evenodd" d="M64.99 167.974L70 164L75.01 167.974H84.2C86.8187 167.974 88.1281 167.974 89.09 168.564C89.6282 168.894 90.0807 169.346 90.4106 169.884C91 170.846 91 172.156 91 174.774V188.2C91 190.819 91 192.128 90.4106 193.09C90.0807 193.628 89.6282 194.081 89.09 194.411C88.1281 195 86.8187 195 84.2 195H54.8C52.1813 195 50.8719 195 49.91 194.411C49.3718 194.081 48.9193 193.628 48.5894 193.09C48 192.128 48 190.819 48 188.2V174.774C48 172.156 48 170.846 48.5894 169.884C48.9193 169.346 49.3718 168.894 49.91 168.564C50.8719 167.974 52.1813 167.974 54.8 167.974H64.99Z"/>
</mask>
<path fill-rule="evenodd" clip-rule="evenodd" d="M64.99 167.974L70 164L75.01 167.974H84.2C86.8187 167.974 88.1281 167.974 89.09 168.564C89.6282 168.894 90.0807 169.346 90.4106 169.884C91 170.846 91 172.156 91 174.774V188.2C91 190.819 91 192.128 90.4106 193.09C90.0807 193.628 89.6282 194.081 89.09 194.411C88.1281 195 86.8187 195 84.2 195H54.8C52.1813 195 50.8719 195 49.91 194.411C49.3718 194.081 48.9193 193.628 48.5894 193.09C48 192.128 48 190.819 48 188.2V174.774C48 172.156 48 170.846 48.5894 169.884C48.9193 169.346 49.3718 168.894 49.91 168.564C50.8719 167.974 52.1813 167.974 54.8 167.974H64.99Z" fill="white"/>
<path d="M70 164L70.6215 163.217L70 162.724L69.3785 163.217L70 164ZM64.99 167.974V168.974H65.3385L65.6115 168.758L64.99 167.974ZM75.01 167.974L74.3885 168.758L74.6615 168.974H75.01V167.974ZM89.09 168.564L88.5675 169.416L88.5675 169.416L89.09 168.564ZM90.4106 169.884L89.5579 170.407L89.5579 170.407L90.4106 169.884ZM90.4106 193.09L89.5579 192.567L89.5579 192.567L90.4106 193.09ZM89.09 194.411L89.6125 195.263L89.6125 195.263L89.09 194.411ZM49.91 194.411L49.3875 195.263L49.3875 195.263L49.91 194.411ZM48.5894 193.09L49.4421 192.567L49.4421 192.567L48.5894 193.09ZM48.5894 169.884L47.7368 169.362L47.7368 169.362L48.5894 169.884ZM49.91 168.564L50.4325 169.416L50.4325 169.416L49.91 168.564ZM69.3785 163.217L64.3685 167.191L65.6115 168.758L70.6215 164.783L69.3785 163.217ZM75.6315 167.191L70.6215 163.217L69.3785 164.783L74.3885 168.758L75.6315 167.191ZM75.01 168.974H84.2V166.974H75.01V168.974ZM84.2 168.974C85.5287 168.974 86.4551 168.975 87.1717 169.044C87.8734 169.11 88.2701 169.234 88.5675 169.416L89.6125 167.711C88.948 167.304 88.2091 167.133 87.361 167.053C86.5277 166.973 85.49 166.974 84.2 166.974V168.974ZM88.5675 169.416C88.9712 169.664 89.3106 170.003 89.5579 170.407L91.2632 169.362C90.8509 168.689 90.2853 168.123 89.6125 167.711L88.5675 169.416ZM89.5579 170.407C89.7402 170.704 89.8641 171.101 89.9308 171.803C89.9989 172.519 90 173.446 90 174.774H92C92 173.484 92.0011 172.447 91.9218 171.613C91.8412 170.765 91.6704 170.026 91.2632 169.362L89.5579 170.407ZM90 174.774V188.2H92V174.774H90ZM90 188.2C90 189.529 89.9989 190.455 89.9308 191.172C89.8641 191.873 89.7402 192.27 89.5579 192.567L91.2632 193.612C91.6704 192.948 91.8412 192.209 91.9218 191.361C92.0011 190.528 92 189.49 92 188.2H90ZM89.5579 192.567C89.3106 192.971 88.9712 193.311 88.5675 193.558L89.6125 195.263C90.2853 194.851 90.8509 194.285 91.2632 193.612L89.5579 192.567ZM88.5675 193.558C88.2701 193.74 87.8734 193.864 87.1717 193.931C86.4551 193.999 85.5287 194 84.2 194V196C85.49 196 86.5277 196.001 87.361 195.922C88.2091 195.841 88.948 195.67 89.6125 195.263L88.5675 193.558ZM84.2 194H54.8V196H84.2V194ZM54.8 194C53.4713 194 52.5449 193.999 51.8283 193.931C51.1266 193.864 50.7299 193.74 50.4325 193.558L49.3875 195.263C50.052 195.67 50.7909 195.841 51.639 195.922C52.4723 196.001 53.51 196 54.8 196V194ZM50.4325 193.558C50.0288 193.311 49.6894 192.971 49.4421 192.567L47.7368 193.612C48.1491 194.285 48.7147 194.851 49.3875 195.263L50.4325 193.558ZM49.4421 192.567C49.2598 192.27 49.1359 191.873 49.0692 191.172C49.0011 190.455 49 189.529 49 188.2H47C47 189.49 46.9989 190.528 47.0782 191.361C47.1588 192.209 47.3296 192.948 47.7368 193.612L49.4421 192.567ZM49 188.2V174.774H47V188.2H49ZM49 174.774C49 173.446 49.0011 172.519 49.0692 171.803C49.1359 171.101 49.2598 170.704 49.4421 170.407L47.7368 169.362C47.3296 170.026 47.1588 170.765 47.0782 171.613C46.9989 172.447 47 173.484 47 174.774H49ZM49.4421 170.407C49.6894 170.003 50.0288 169.664 50.4325 169.416L49.3875 167.711C48.7147 168.123 48.1491 168.689 47.7368 169.362L49.4421 170.407ZM50.4325 169.416C50.7299 169.234 51.1266 169.11 51.8283 169.044C52.5449 168.975 53.4713 168.974 54.8 168.974V166.974C53.51 166.974 52.4723 166.973 51.639 167.053C50.7909 167.133 50.052 167.304 49.3875 167.711L50.4325 169.416ZM54.8 168.974H64.99V166.974H54.8V168.974Z" fill="#0E0A0A" mask="url(#path-7-inside-2_1661_1296)"/>
<g clip-path="url(#clip0_1661_1296)">
<path d="M68.667 182.499C68.9533 182.879 69.3186 183.193 69.738 183.42C70.1575 183.647 70.6213 183.782 71.0981 183.816C71.5749 183.85 72.0534 183.782 72.5012 183.616C72.9491 183.45 73.3557 183.191 73.6937 182.856L75.6937 180.873C76.3009 180.25 76.6368 179.415 76.6292 178.548C76.6216 177.682 76.2711 176.853 75.6531 176.24C75.035 175.627 74.199 175.28 73.325 175.272C72.451 175.265 71.609 175.598 70.9803 176.2L69.8337 177.33" stroke="black" stroke-width="1.33333" stroke-linecap="round" stroke-linejoin="round"/>
<path d="M71.3335 181.177C71.0472 180.798 70.6819 180.484 70.2624 180.256C69.843 180.029 69.3791 179.894 68.9024 179.86C68.4256 179.826 67.9471 179.894 67.4992 180.06C67.0514 180.226 66.6447 180.485 66.3068 180.82L64.3068 182.803C63.6996 183.426 63.3636 184.261 63.3712 185.128C63.3788 185.994 63.7294 186.823 64.3474 187.436C64.9654 188.049 65.8015 188.396 66.6755 188.404C67.5495 188.411 68.3915 188.078 69.0201 187.476L70.1601 186.346" stroke="black" stroke-width="1.33333" stroke-linecap="round" stroke-linejoin="round"/>
</g>
<defs>
<clipPath id="clip0_1661_1296">
<rect width="16" height="15.8637" fill="white" transform="translate(62 173.906)"/>
</clipPath>
</defs>
</svg>
