<svg width="48" height="52" viewBox="0 0 48 52" fill="none" xmlns="http://www.w3.org/2000/svg">
<path d="M25.4217 46.3609C25.5685 47.2655 25.7048 48.1765 25.7582 49.0925" stroke="#16a34a" stroke-width="2.15167" stroke-miterlimit="1.5" stroke-linecap="round" stroke-linejoin="round"/>
<path d="M4.42866 37.7729C5.31181 37.1392 6.24948 36.5887 7.14583 35.9754" stroke="#16a34a" stroke-width="2.15167" stroke-miterlimit="1.5" stroke-linecap="round" stroke-linejoin="round"/>
<path d="M1.73828 18.2373C2.8943 18.766 4.01396 19.372 5.17161 19.8945" stroke="#16a34a" stroke-width="2.15167" stroke-miterlimit="1.5" stroke-linecap="round" stroke-linejoin="round"/>
<path d="M21.6196 7.34721C21.3981 6.01538 21.2236 4.68684 21.0823 3.34446" stroke="#16a34a" stroke-width="2.15167" stroke-miterlimit="1.5" stroke-linecap="round" stroke-linejoin="round"/>
<path d="M39.3312 14.1882C40.5441 13.1211 41.8042 12.1019 43.0448 11.0671" stroke="#16a34a" stroke-width="2.15167" stroke-miterlimit="1.5" stroke-linecap="round" stroke-linejoin="round"/>
<path d="M39.5107 32.7285C40.6668 33.5091 41.8258 34.2783 42.9537 35.0994" stroke="#16a34a" stroke-width="2.15167" stroke-miterlimit="1.5" stroke-linecap="round" stroke-linejoin="round"/>
<path fill-rule="evenodd" clip-rule="evenodd" d="M11.5196 30.7435C9.37023 24.4729 12.259 18.2124 18.8978 14.818C33.5168 7.30427 45.8826 26.2881 32.8773 36.1046C31.801 36.9169 32.0665 37.4177 32.4875 38.2117C32.6789 38.5728 32.9025 38.9945 33.0467 39.5338C34.0268 43.2007 29.6657 48.3903 22.0096 46.3149C18.5992 45.1741 17.6846 44.5627 17.4205 42.5918C17.2166 41.0706 18.9688 38.6207 18.9688 38.6207L17.6398 38.2067C14.5634 36.8763 12.6395 34.0105 11.5196 30.7435ZM30.0726 35.191C35.5001 32.3 35.8272 26.3273 34.124 21.7879C29.1485 8.3893 9.67257 17.5384 15.6124 30.4004C17.0025 33.3393 19.5146 37.1229 21.806 37.2796C21.9241 37.286 22.0195 37.307 22.0945 37.3406C24.3771 37.3827 26.6111 36.9297 28.8229 36.1465C29.0475 35.8433 29.4461 35.5249 30.0726 35.191ZM29.8599 38.4003C27.3295 39.1275 24.827 39.671 22.3039 39.8825L22.2999 39.8834C21.8153 39.9907 21.3298 40.0981 20.843 40.2054C20.8259 40.2273 20.8089 40.249 20.7921 40.2706C18.4914 43.1791 22.4525 45.4267 27.6984 44.1C30.575 43.3725 31.9208 40.3415 29.8599 38.4003Z" fill="#16a34a"/>
</svg>
