<svg width="52" height="48" viewBox="0 0 52 48" fill="none" xmlns="http://www.w3.org/2000/svg">
<path fill-rule="evenodd" clip-rule="evenodd" d="M46.4866 10.5042C43.7161 11.5907 42.3086 12.2821 38.7324 14.3155C35.6737 16.0431 35.7237 16.031 35.1762 15.1279C34.0621 13.1996 28.9702 10.5259 27.2353 11.001C26.409 11.2125 26.3245 11.9945 27.1083 12.1739C29.2307 12.6831 30.976 14.1196 32.3329 15.9149C33.5412 17.5348 33.5565 17.4676 30.9473 19.0859C28.1504 20.8026 24.0574 23.7548 21.6949 25.736L19.8861 27.2547L19.1162 25.2638C17.3046 20.5125 14.7924 17.793 12.7356 18.3356C11.9817 18.5403 12.0424 18.7899 13.5711 21.3788C14.915 23.6425 16.1466 26.7054 16.8562 29.578C17.4321 31.9019 20.0301 32.4964 22.4861 29.9003C24.2599 28.0199 28.5 24.6302 31.8556 22.4284L34.8536 20.4512L35.1386 21.8834C37.6745 34.6958 21.9183 45.2547 12.5906 36.9924C3.06955 28.5444 9.90477 10.0046 22.164 11.0189C24.57 11.2159 24.7941 10.4423 22.5539 9.62327C16.7812 7.45375 7.55242 12.7658 5.13686 19.6136C0.54402 32.6801 11.7811 44.4433 26.0634 41.5603C34.7341 39.8207 41.3179 27.9405 37.9955 20.1097C37.7501 19.5351 37.5665 18.9981 37.5922 18.886C37.6998 18.4158 42.5286 15.7498 47.532 13.4538C53.1703 10.8553 51.0432 8.71875 46.4866 10.5042Z" fill="#16a34a"/>
</svg>
