<svg xmlns:xlink="http://www.w3.org/1999/xlink" xmlns="http://www.w3.org/2000/svg" width="80" height="80" viewBox="0 0 80 80" fill="none">
<path fill-rule="evenodd" clip-rule="evenodd" d="M43.0499 61.2859C43.2089 63.2729 43.3615 67.1805 43.3809 68.4538C44.9282 69.1071 48.5945 70.8295 50.6351 72.7713C46.9134 73.1458 29.6297 72.7195 27.6343 72.3844C30.1909 70.8467 33.1079 69.4448 35.9226 68.4834C35.8765 66.188 36.0169 62.0245 36.1658 59.7296C36.2835 57.9158 36.4065 55.0199 36.447 52.9118C36.1654 52.8589 35.7004 52.7379 35.2403 52.618C34.8097 52.5059 34.3833 52.3949 34.1155 52.3419C30.773 51.6805 28.3375 49.8279 26.5778 47.4219C24.184 48.4747 21.1953 47.2108 19.2287 45.8585C15.1006 43.0204 9.60748 37.3298 12.3024 31.8595C13.9108 28.5947 19.2022 27.5648 22.4474 27.42C22.6276 25.899 23.0333 24.4194 23.9771 23.4324C25.6883 21.643 28.6313 20.8927 30.9848 20.5517C36.2173 19.7935 41.5718 19.7237 46.7658 20.9343C46.8915 20.9633 47.0246 20.9938 47.1642 21.0257C49.5 21.5596 53.6835 22.5158 56.2476 24.55C56.8306 25.0543 57.2978 25.633 57.5963 26.3013C57.8633 26.8991 58.018 28.0503 58.0234 29.5507C58.4434 29.6652 58.8989 29.7787 59.3766 29.8977C62.5002 30.6761 66.5735 31.691 67.8584 34.7427C69.0785 37.6405 67.5315 40.3861 65.8366 42.6702C62.668 46.9402 56.7084 52.4218 50.8807 49.5109C49.8542 50.4779 48.6983 51.2723 47.4014 51.8296C46.102 52.388 44.4324 52.8436 42.6884 53.0675C42.5993 54.6553 42.8306 58.5461 43.0499 61.2859Z" stroke="#16a34a" stroke-width="3" stroke-miterlimit="1.5" stroke-linecap="round" stroke-linejoin="round"/>
<path fill-rule="evenodd" clip-rule="evenodd" d="M61.8397 37.6594C60.5807 40.7828 57.6349 43.7856 54.0254 43.4283C55.6082 40.6241 57.1834 37.258 57.5537 34.0322C57.6501 34.0531 57.7474 34.0723 57.845 34.0915C58.0769 34.1373 58.31 34.1834 58.5346 34.2521C59.9836 34.696 62.6862 35.5595 61.8397 37.6594Z" stroke="#16a34a" stroke-width="3" stroke-miterlimit="1.5" stroke-linecap="round" stroke-linejoin="round"/>
<path fill-rule="evenodd" clip-rule="evenodd" d="M19.4661 33.6376C16.2956 34.6508 18.4542 38.8851 20.26 40.1903C20.8089 40.5871 21.3927 40.9463 21.9867 41.2837C22.6816 41.6786 24.2385 42.2083 25.0843 41.9152C24.678 41.0734 24.3688 40.1408 24.0782 39.2144C23.4759 37.2946 23.203 35.1656 23.1177 33.1645C21.8867 33.115 20.6358 33.2638 19.4661 33.6376Z" stroke="#16a34a" stroke-width="3" stroke-miterlimit="1.5" stroke-linecap="round" stroke-linejoin="round"/>
<path d="M44.8481 44.4941C41.7488 43.5396 38.6554 43.3743 36.1589 43.9319C35.1212 44.1637 34.031 44.2956 33.0586 45" stroke="#16a34a" stroke-width="3" stroke-miterlimit="1.5" stroke-linecap="round" stroke-linejoin="round"/>
<path d="M47.6213 39.4353C46.6158 39.1481 45.6249 38.8567 44.5905 38.6682C40.5016 37.9232 36.4585 37.8496 32.3643 38.4483" stroke="#16a34a" stroke-width="3" stroke-miterlimit="1.5" stroke-linecap="round" stroke-linejoin="round"/>
<path d="M16 7C15.5809 8.31465 15.0721 9.67914 15 11" stroke="#16a34a" stroke-width="3" stroke-miterlimit="1.5" stroke-linecap="round" stroke-linejoin="round"/>
<path d="M9 14C9.66544 14 10.3337 14 11 14" stroke="#16a34a" stroke-width="3" stroke-miterlimit="1.5" stroke-linecap="round" stroke-linejoin="round"/>
<path d="M16.8379 13.9712C17.9037 14.1522 18.9337 14.1034 20.0059 14.1206" stroke="#16a34a" stroke-width="3" stroke-miterlimit="1.5" stroke-linecap="round" stroke-linejoin="round"/>
<path d="M14.2008 20.2381C14.0137 19.1951 13.8252 17.7128 14.0972 16.656" stroke="#16a34a" stroke-width="3" stroke-miterlimit="1.5" stroke-linecap="round" stroke-linejoin="round"/>
<path d="M58.8271 14.5027C58.5102 11.8919 58.4552 9.90144 55.9365 8.54096C58.1364 7.94583 59.6516 5.1395 60.0097 3C60.4033 5.04149 60.7246 7.42573 62.3502 8.89634C60.2896 9.73674 59.0725 12.1182 58.8274 14.232" stroke="#16a34a" stroke-width="2" stroke-miterlimit="1.5" stroke-linecap="round" stroke-linejoin="round"/>
<path fill-rule="evenodd" clip-rule="evenodd" d="M22.2068 67C21.9633 65.1893 21.3843 63.0533 19 62.4319C21.1577 61.7199 22.2519 59.7973 22.5234 58C22.5845 59.5281 23.0393 61.5722 25 62.1869C22.8052 62.9082 22.7129 65.3303 22.2068 67Z" stroke="#16a34a" stroke-width="2" stroke-miterlimit="1.5" stroke-linecap="round" stroke-linejoin="round"/>
</svg>