<svg width="58" height="42" viewBox="0 0 58 42" fill="none" xmlns="http://www.w3.org/2000/svg">
<path d="M29.2933 28.1952C19.6387 34.7447 16.8012 36.5472 16.8012 37.029C16.8012 37.3681 18.0861 37.1361 19.0499 36.6186C24.2608 33.8346 35.3968 25.9289 35.129 25.1793C34.9149 24.537 33.9513 25.0365 29.2933 28.1952Z" fill="#16a34a"/>
<path d="M0.563456 40.455C0.563456 41.0796 2.04458 41.6864 2.95473 41.4366C3.6329 41.2581 6.57754 39.2058 12.2526 35.6188C17.7314 32.1745 18.9805 31.2287 18.6593 30.7291C18.1595 29.9259 15.4471 31.9425 5.73878 37.2963C0.402863 40.2587 0.563456 40.1695 0.563456 40.455Z" fill="#16a34a"/>
<path d="M24.4763 27.7304C35.6837 21.3595 33.203 22.3053 42.0011 17.8973C49.8533 13.9533 50.9062 13.7035 53.7438 14.9707C56.9203 16.3982 57.3486 15.9878 56.0459 12.7398C55.4748 11.3123 55.3321 10.7589 55.4034 10.1699C55.5641 8.8316 56.2422 6.8863 56.8847 6.01195C58.9191 3.19229 54.7075 4.38803 54.3862 4.53062C52.7265 5.24459 51.049 4.53063 48.622 2.08575C47.0158 0.479637 44.5174 0.158453 45.1241 1.63958C46.4269 4.81621 46.0164 8.08204 41.7691 11.776C38.3248 14.7565 33.1316 18.8967 28.5275 22.0375C21.7994 26.6419 21.2285 27.1236 21.7816 27.7662C22.1564 28.2122 23.6733 28.1944 24.4763 27.7304ZM44.9814 12.2402C49.0503 8.15343 48.6755 5.40518 48.7826 5.0838C51.1026 6.27953 50.7456 6.19034 53.7081 6.35093L53.2441 7.35028C52.2268 9.54536 53.0121 12.49 53.0121 12.5078L51.6736 12.0796C49.1216 11.2765 47.0158 11.6691 44.3389 13.4358C43.7679 13.8105 43.2503 14.1317 43.1968 14.1317C43.1254 14.1497 43.9285 13.293 44.9814 12.2402Z" fill="#16a34a"/>
</svg>
