<svg width="330" height="408" viewBox="0 0 330 408" fill="none" xmlns="http://www.w3.org/2000/svg">
<rect x="1.42734" y="1.42734" width="327.145" height="404.931" rx="10.7773" fill="white" stroke="#0E0A0A" stroke-width="2.85467"/>
<rect x="26.21" y="343.479" width="275.199" height="35.7401" rx="4.76534" fill="#0E0A0A"/>
<path d="M119.128 365.132C118.095 365.132 117.277 364.846 116.673 364.274C116.07 363.694 115.768 362.868 115.768 361.796V359.794C115.768 358.722 116.07 357.9 116.673 357.328C117.277 356.749 118.095 356.459 119.128 356.459C120.152 356.459 120.942 356.741 121.498 357.305C122.062 357.861 122.344 358.627 122.344 359.604V359.675H120.795V359.556C120.795 359.064 120.656 358.659 120.378 358.341C120.108 358.023 119.691 357.864 119.128 357.864C118.572 357.864 118.135 358.035 117.817 358.377C117.499 358.718 117.341 359.183 117.341 359.771V361.82C117.341 362.4 117.499 362.864 117.817 363.214C118.135 363.555 118.572 363.726 119.128 363.726C119.691 363.726 120.108 363.567 120.378 363.249C120.656 362.924 120.795 362.519 120.795 362.034V361.82H122.344V361.987C122.344 362.963 122.062 363.734 121.498 364.298C120.942 364.854 120.152 365.132 119.128 365.132ZM123.673 364.965V359.056H125.15V359.723H125.365C125.452 359.485 125.595 359.31 125.794 359.199C126 359.088 126.239 359.032 126.509 359.032H127.223V360.366H126.485C126.103 360.366 125.79 360.47 125.544 360.676C125.297 360.875 125.174 361.184 125.174 361.605V364.965H123.673ZM130.88 365.132C130.292 365.132 129.772 365.009 129.319 364.762C128.874 364.508 128.525 364.155 128.271 363.702C128.024 363.241 127.901 362.701 127.901 362.082V361.939C127.901 361.319 128.024 360.783 128.271 360.331C128.517 359.87 128.862 359.516 129.307 359.27C129.752 359.016 130.268 358.889 130.856 358.889C131.436 358.889 131.94 359.02 132.369 359.282C132.798 359.536 133.131 359.894 133.37 360.354C133.608 360.807 133.727 361.335 133.727 361.939V362.451H129.426C129.442 362.856 129.593 363.186 129.879 363.44C130.165 363.694 130.514 363.821 130.927 363.821C131.348 363.821 131.658 363.73 131.857 363.547C132.055 363.364 132.206 363.162 132.309 362.94L133.536 363.583C133.425 363.789 133.262 364.016 133.048 364.262C132.841 364.5 132.563 364.707 132.214 364.881C131.864 365.048 131.42 365.132 130.88 365.132ZM129.438 361.331H132.202C132.17 360.99 132.031 360.716 131.785 360.509C131.547 360.303 131.233 360.2 130.844 360.2C130.439 360.2 130.117 360.303 129.879 360.509C129.641 360.716 129.494 360.99 129.438 361.331ZM136.898 365.132C136.477 365.132 136.099 365.06 135.766 364.917C135.432 364.766 135.166 364.552 134.968 364.274C134.777 363.988 134.682 363.642 134.682 363.237C134.682 362.832 134.777 362.495 134.968 362.225C135.166 361.947 135.436 361.74 135.778 361.605C136.127 361.462 136.524 361.391 136.969 361.391H138.589V361.057C138.589 360.779 138.502 360.553 138.327 360.378C138.153 360.196 137.875 360.104 137.493 360.104C137.12 360.104 136.842 360.192 136.659 360.366C136.477 360.533 136.358 360.751 136.302 361.022L134.92 360.557C135.015 360.255 135.166 359.981 135.373 359.735C135.587 359.481 135.869 359.278 136.219 359.127C136.576 358.968 137.009 358.889 137.517 358.889C138.295 358.889 138.911 359.084 139.364 359.473C139.816 359.862 140.043 360.426 140.043 361.164V363.368C140.043 363.607 140.154 363.726 140.376 363.726H140.853V364.965H139.852C139.558 364.965 139.316 364.893 139.125 364.75C138.935 364.607 138.84 364.417 138.84 364.179V364.167H138.613C138.581 364.262 138.51 364.389 138.399 364.548C138.288 364.699 138.113 364.834 137.875 364.953C137.636 365.072 137.311 365.132 136.898 365.132ZM137.16 363.916C137.581 363.916 137.922 363.801 138.184 363.571C138.454 363.333 138.589 363.019 138.589 362.63V362.511H137.076C136.798 362.511 136.58 362.57 136.421 362.689C136.262 362.809 136.183 362.975 136.183 363.19C136.183 363.404 136.266 363.579 136.433 363.714C136.6 363.849 136.842 363.916 137.16 363.916ZM143.783 364.965C143.394 364.965 143.077 364.846 142.83 364.607C142.592 364.361 142.473 364.036 142.473 363.631V360.295H140.996V359.056H142.473V357.221H143.974V359.056H145.594V360.295H143.974V363.368C143.974 363.607 144.085 363.726 144.308 363.726H145.451V364.965H143.783ZM149.436 365.132C148.848 365.132 148.328 365.009 147.875 364.762C147.431 364.508 147.081 364.155 146.827 363.702C146.581 363.241 146.458 362.701 146.458 362.082V361.939C146.458 361.319 146.581 360.783 146.827 360.331C147.073 359.87 147.419 359.516 147.864 359.27C148.308 359.016 148.825 358.889 149.412 358.889C149.992 358.889 150.496 359.02 150.925 359.282C151.354 359.536 151.688 359.894 151.926 360.354C152.164 360.807 152.283 361.335 152.283 361.939V362.451H147.983C147.999 362.856 148.149 363.186 148.435 363.44C148.721 363.694 149.071 363.821 149.484 363.821C149.905 363.821 150.214 363.73 150.413 363.547C150.612 363.364 150.762 363.162 150.866 362.94L152.093 363.583C151.982 363.789 151.819 364.016 151.604 364.262C151.398 364.5 151.12 364.707 150.77 364.881C150.421 365.048 149.976 365.132 149.436 365.132ZM147.995 361.331H150.758C150.727 360.99 150.588 360.716 150.341 360.509C150.103 360.303 149.79 360.2 149.4 360.2C148.995 360.2 148.674 360.303 148.435 360.509C148.197 360.716 148.05 360.99 147.995 361.331ZM158.479 365.132C158.058 365.132 157.681 365.06 157.347 364.917C157.014 364.766 156.748 364.552 156.549 364.274C156.358 363.988 156.263 363.642 156.263 363.237C156.263 362.832 156.358 362.495 156.549 362.225C156.748 361.947 157.018 361.74 157.359 361.605C157.709 361.462 158.106 361.391 158.55 361.391H160.171V361.057C160.171 360.779 160.083 360.553 159.909 360.378C159.734 360.196 159.456 360.104 159.075 360.104C158.701 360.104 158.423 360.192 158.241 360.366C158.058 360.533 157.939 360.751 157.883 361.022L156.501 360.557C156.597 360.255 156.748 359.981 156.954 359.735C157.168 359.481 157.45 359.278 157.8 359.127C158.157 358.968 158.59 358.889 159.098 358.889C159.877 358.889 160.492 359.084 160.945 359.473C161.398 359.862 161.624 360.426 161.624 361.164V363.368C161.624 363.607 161.735 363.726 161.958 363.726H162.434V364.965H161.433C161.14 364.965 160.897 364.893 160.707 364.75C160.516 364.607 160.421 364.417 160.421 364.179V364.167H160.194C160.163 364.262 160.091 364.389 159.98 364.548C159.869 364.699 159.694 364.834 159.456 364.953C159.218 365.072 158.892 365.132 158.479 365.132ZM158.741 363.916C159.162 363.916 159.504 363.801 159.766 363.571C160.036 363.333 160.171 363.019 160.171 362.63V362.511H158.658C158.38 362.511 158.161 362.57 158.002 362.689C157.844 362.809 157.764 362.975 157.764 363.19C157.764 363.404 157.848 363.579 158.014 363.714C158.181 363.849 158.423 363.916 158.741 363.916ZM168.939 365.132C168.471 365.132 168.03 365.016 167.617 364.786C167.212 364.548 166.886 364.202 166.64 363.75C166.394 363.297 166.271 362.749 166.271 362.106V361.915C166.271 361.272 166.394 360.724 166.64 360.271C166.886 359.818 167.212 359.477 167.617 359.246C168.022 359.008 168.463 358.889 168.939 358.889C169.297 358.889 169.594 358.933 169.833 359.02C170.079 359.099 170.278 359.203 170.428 359.33C170.579 359.457 170.694 359.592 170.774 359.735H170.988V356.625H172.489V364.965H171.012V364.25H170.798C170.663 364.472 170.452 364.675 170.166 364.858C169.888 365.04 169.479 365.132 168.939 365.132ZM169.392 363.821C169.853 363.821 170.238 363.674 170.548 363.38C170.857 363.079 171.012 362.642 171.012 362.07V361.951C171.012 361.379 170.857 360.946 170.548 360.652C170.246 360.35 169.861 360.2 169.392 360.2C168.931 360.2 168.546 360.35 168.236 360.652C167.927 360.946 167.772 361.379 167.772 361.951V362.07C167.772 362.642 167.927 363.079 168.236 363.38C168.546 363.674 168.931 363.821 169.392 363.821ZM174.154 364.965V359.056H175.631V359.723H175.845C175.933 359.485 176.076 359.31 176.274 359.199C176.481 359.088 176.719 359.032 176.989 359.032H177.704V360.366H176.965C176.584 360.366 176.27 360.47 176.024 360.676C175.778 360.875 175.655 361.184 175.655 361.605V364.965H174.154ZM180.572 365.132C180.151 365.132 179.774 365.06 179.44 364.917C179.107 364.766 178.841 364.552 178.642 364.274C178.452 363.988 178.356 363.642 178.356 363.237C178.356 362.832 178.452 362.495 178.642 362.225C178.841 361.947 179.111 361.74 179.452 361.605C179.802 361.462 180.199 361.391 180.644 361.391H182.264V361.057C182.264 360.779 182.177 360.553 182.002 360.378C181.827 360.196 181.549 360.104 181.168 360.104C180.795 360.104 180.517 360.192 180.334 360.366C180.151 360.533 180.032 360.751 179.977 361.022L178.595 360.557C178.69 360.255 178.841 359.981 179.047 359.735C179.262 359.481 179.544 359.278 179.893 359.127C180.251 358.968 180.683 358.889 181.192 358.889C181.97 358.889 182.586 359.084 183.038 359.473C183.491 359.862 183.717 360.426 183.717 361.164V363.368C183.717 363.607 183.829 363.726 184.051 363.726H184.527V364.965H183.527C183.233 364.965 182.991 364.893 182.8 364.75C182.609 364.607 182.514 364.417 182.514 364.179V364.167H182.288C182.256 364.262 182.184 364.389 182.073 364.548C181.962 364.699 181.787 364.834 181.549 364.953C181.311 365.072 180.985 365.132 180.572 365.132ZM180.834 363.916C181.255 363.916 181.597 363.801 181.859 363.571C182.129 363.333 182.264 363.019 182.264 362.63V362.511H180.751C180.473 362.511 180.255 362.57 180.096 362.689C179.937 362.809 179.857 362.975 179.857 363.19C179.857 363.404 179.941 363.579 180.108 363.714C180.274 363.849 180.517 363.916 180.834 363.916ZM186.171 364.965V360.295H184.67V359.056H186.171V357.96C186.171 357.555 186.291 357.233 186.529 356.995C186.775 356.749 187.093 356.625 187.482 356.625H189.031V357.864H188.006C187.784 357.864 187.672 357.984 187.672 358.222V359.056H189.221V360.295H187.672V364.965H186.171ZM192.531 364.965C192.141 364.965 191.824 364.846 191.577 364.607C191.339 364.361 191.22 364.036 191.22 363.631V360.295H189.743V359.056H191.22V357.221H192.721V359.056H194.341V360.295H192.721V363.368C192.721 363.607 192.832 363.726 193.055 363.726H194.198V364.965H192.531Z" fill="white"/>
<g clip-path="url(#clip0_2548_1468)">
<path d="M209.049 366.488C211.625 366.488 213.714 364.399 213.714 361.822C213.714 359.246 211.625 357.157 209.049 357.157C206.472 357.157 204.384 359.246 204.384 361.822C204.384 364.399 206.472 366.488 209.049 366.488Z" stroke="white" stroke-width="0.933036" stroke-linecap="round" stroke-linejoin="round"/>
<path d="M209.048 363.688L210.914 361.822L209.048 359.956" stroke="white" stroke-width="0.933036" stroke-linecap="round" stroke-linejoin="round"/>
<path d="M207.183 361.821H210.915" stroke="white" stroke-width="0.933036" stroke-linecap="round" stroke-linejoin="round"/>
</g>
<rect x="26.863" y="138.107" width="132.468" height="76.1307" rx="4.57157" fill="white" stroke="black" stroke-width="1.30616"/>
<path d="M45.2574 197.541C43.8596 197.541 42.6452 197.279 41.6143 196.754C40.5834 196.23 39.7884 195.505 39.2292 194.579C38.6701 193.653 38.3905 192.587 38.3905 191.382V185.118C38.3905 183.632 38.6876 182.4 39.2817 181.422C39.8932 180.426 40.7232 179.683 41.7716 179.194C42.8374 178.705 44.0518 178.46 45.4147 178.46C46.7776 178.46 47.957 178.687 48.9529 179.142C49.9664 179.596 50.7439 180.251 51.2856 181.107C51.8447 181.964 52.1243 182.986 52.1243 184.174H48.717C48.717 183.44 48.4637 182.802 47.957 182.261C47.4503 181.719 46.6028 181.448 45.4147 181.448C44.244 181.448 43.3354 181.754 42.6889 182.366C42.0599 182.977 41.7453 183.825 41.7453 184.908V186.795H42.2171C42.5142 186.445 42.9685 186.113 43.58 185.799C44.1916 185.484 45.0827 185.327 46.2534 185.327C47.3192 185.327 48.2977 185.554 49.1888 186.009C50.0974 186.463 50.8313 187.127 51.3904 188.001C51.9495 188.857 52.2291 189.896 52.2291 191.119V191.434C52.2291 192.64 51.9408 193.705 51.3642 194.632C50.7876 195.54 49.9751 196.256 48.9267 196.781C47.8783 197.287 46.6552 197.541 45.2574 197.541ZM45.3098 194.553C46.4106 194.553 47.2755 194.265 47.9046 193.688C48.5511 193.111 48.8743 192.343 48.8743 191.382V191.172C48.8743 190.525 48.7258 189.966 48.4287 189.494C48.1492 189.023 47.7386 188.656 47.1969 188.394C46.6727 188.132 46.0437 188.001 45.3098 188.001C44.5934 188.001 43.9644 188.132 43.4228 188.394C42.8811 188.656 42.4617 189.023 42.1647 189.494C41.8851 189.966 41.7453 190.525 41.7453 191.172V191.382C41.7453 192.343 42.0599 193.111 42.6889 193.688C43.3354 194.265 44.209 194.553 45.3098 194.553ZM55.064 191.984V188.996H62.822V191.984H55.064ZM72.4576 197.541C71.0598 197.541 69.8192 197.331 68.7359 196.912C67.6701 196.492 66.8314 195.89 66.2198 195.103C65.6257 194.3 65.3287 193.356 65.3287 192.273V191.958C65.3287 191.119 65.4772 190.429 65.7742 189.888C66.0713 189.328 66.4382 188.892 66.875 188.577C67.3293 188.263 67.7574 188.044 68.1593 187.922V187.45C67.7574 187.31 67.3555 187.083 66.9537 186.769C66.5518 186.454 66.2198 186.035 65.9577 185.511C65.7131 184.986 65.5908 184.357 65.5908 183.624V183.309C65.5908 182.348 65.8703 181.509 66.4295 180.793C67.0061 180.059 67.8098 179.491 68.8407 179.089C69.8716 178.67 71.0773 178.46 72.4576 178.46C73.838 178.46 75.0436 178.67 76.0745 179.089C77.1054 179.491 77.9005 180.059 78.4596 180.793C79.0362 181.509 79.3245 182.348 79.3245 183.309V183.624C79.3245 184.357 79.1934 184.986 78.9314 185.511C78.6867 186.035 78.3635 186.454 77.9616 186.769C77.5772 187.083 77.1753 187.31 76.756 187.45V187.922C77.1753 188.044 77.6034 188.263 78.0402 188.577C78.4771 188.892 78.844 189.328 79.141 189.888C79.4381 190.429 79.5866 191.119 79.5866 191.958V192.273C79.5866 193.356 79.2808 194.3 78.6693 195.103C78.0752 195.89 77.2365 196.492 76.1532 196.912C75.0873 197.331 73.8555 197.541 72.4576 197.541ZM72.4576 194.553C73.6633 194.553 74.5893 194.326 75.2358 193.871C75.8998 193.4 76.2318 192.779 76.2318 192.011V191.801C76.2318 191.032 75.9085 190.421 75.262 189.966C74.633 189.494 73.6982 189.259 72.4576 189.259C71.2345 189.259 70.2997 189.494 69.6532 189.966C69.0067 190.421 68.6835 191.032 68.6835 191.801V192.011C68.6835 192.779 69.0067 193.4 69.6532 193.871C70.3172 194.326 71.252 194.553 72.4576 194.553ZM72.4576 186.271C73.5759 186.271 74.4408 186.07 75.0524 185.668C75.6639 185.266 75.9697 184.698 75.9697 183.964V183.755C75.9697 183.021 75.6552 182.453 75.0262 182.051C74.3971 181.649 73.541 181.448 72.4576 181.448C71.3743 181.448 70.5181 181.649 69.8891 182.051C69.2601 182.453 68.9456 183.021 68.9456 183.755V183.964C68.9456 184.698 69.2514 185.266 69.8629 185.668C70.4745 186.07 71.3394 186.271 72.4576 186.271Z" fill="#228252"/>
<path d="M37.7976 159.685V152.805H38.859V155.753H41.7486V152.805H42.8101V159.685H41.7486V156.716H38.859V159.685H37.7976ZM46.4982 159.822C46.0068 159.822 45.5776 159.721 45.2107 159.517C44.8438 159.308 44.5555 159.016 44.3458 158.643C44.1427 158.263 44.0411 157.824 44.0411 157.326V157.208C44.0411 156.703 44.1427 156.264 44.3458 155.891C44.5489 155.511 44.8307 155.219 45.1911 155.016C45.558 154.806 45.9806 154.702 46.4589 154.702C46.9241 154.702 47.3304 154.806 47.6777 155.016C48.0315 155.219 48.3067 155.504 48.5033 155.871C48.6998 156.238 48.7981 156.667 48.7981 157.159V157.542H45.0731C45.0862 157.968 45.2271 158.309 45.4957 158.564C45.7709 158.813 46.1117 158.938 46.5179 158.938C46.8979 158.938 47.183 158.852 47.373 158.682C47.5695 158.512 47.7203 158.315 47.8251 158.092L48.6605 158.525C48.5688 158.708 48.4345 158.902 48.2575 159.105C48.0872 159.308 47.8611 159.478 47.5794 159.616C47.2976 159.753 46.9372 159.822 46.4982 159.822ZM45.0829 156.766H47.7661C47.7399 156.399 47.6089 156.114 47.373 155.91C47.1371 155.701 46.8291 155.596 46.4491 155.596C46.0691 155.596 45.7578 155.701 45.5154 155.91C45.2795 156.114 45.1354 156.399 45.0829 156.766ZM51.5205 159.822C51.1732 159.822 50.8619 159.763 50.5867 159.645C50.3181 159.527 50.1019 159.354 49.9381 159.124C49.7808 158.895 49.7022 158.617 49.7022 158.289C49.7022 157.955 49.7808 157.68 49.9381 157.463C50.1019 157.241 50.3214 157.073 50.5966 156.962C50.8783 156.851 51.1961 156.795 51.5499 156.795H53.0242V156.48C53.0242 156.199 52.939 155.973 52.7687 155.802C52.5983 155.632 52.3362 155.547 51.9824 155.547C51.6351 155.547 51.3698 155.629 51.1863 155.792C51.0028 155.956 50.8816 156.169 50.8226 156.431L49.8791 156.127C49.9577 155.865 50.0822 155.629 50.2526 155.419C50.4295 155.203 50.6621 155.029 50.9504 154.898C51.2387 154.767 51.586 154.702 51.9922 154.702C52.6212 154.702 53.1159 154.862 53.4763 155.183C53.8367 155.504 54.0169 155.96 54.0169 156.549V158.544C54.0169 158.741 54.1086 158.839 54.2921 158.839H54.7049V159.685H53.9481C53.7188 159.685 53.532 159.626 53.3879 159.508C53.2437 159.39 53.1716 159.229 53.1716 159.026V158.997H53.0242C52.9718 159.095 52.8932 159.21 52.7883 159.341C52.6835 159.472 52.5295 159.586 52.3264 159.685C52.1233 159.776 51.8546 159.822 51.5205 159.822ZM51.6679 158.987C52.0741 158.987 52.4017 158.872 52.6507 158.643C52.8997 158.407 53.0242 158.086 53.0242 157.68V157.581H51.6089C51.3403 157.581 51.124 157.64 50.9602 157.758C50.7964 157.87 50.7145 158.037 50.7145 158.259C50.7145 158.482 50.7997 158.659 50.9701 158.79C51.1404 158.921 51.373 158.987 51.6679 158.987ZM57.579 159.822C57.1793 159.822 56.8091 159.724 56.4684 159.527C56.1277 159.331 55.8525 159.049 55.6428 158.682C55.4397 158.309 55.3381 157.86 55.3381 157.336V157.188C55.3381 156.67 55.4397 156.225 55.6428 155.851C55.8459 155.478 56.1179 155.193 56.4586 154.996C56.7993 154.8 57.1728 154.702 57.579 154.702C57.8935 154.702 58.1556 154.741 58.3653 154.819C58.5815 154.898 58.7585 155 58.8961 155.124C59.0337 155.242 59.1385 155.367 59.2106 155.498H59.3678V152.805H60.3802V159.685H59.3875V158.997H59.2302C59.1057 159.206 58.9157 159.396 58.6602 159.567C58.4112 159.737 58.0508 159.822 57.579 159.822ZM57.8641 158.938C58.3031 158.938 58.6634 158.797 58.9452 158.515C59.2335 158.233 59.3777 157.83 59.3777 157.306V157.218C59.3777 156.7 59.2368 156.3 58.955 156.019C58.6733 155.737 58.3096 155.596 57.8641 155.596C57.4316 155.596 57.0712 155.737 56.7829 156.019C56.5012 156.3 56.3603 156.7 56.3603 157.218V157.306C56.3603 157.83 56.5012 158.233 56.7829 158.515C57.0712 158.797 57.4316 158.938 57.8641 158.938ZM61.8704 159.685V152.805H62.8827V159.685H61.8704ZM64.3851 159.685V154.839H65.3975V159.685H64.3851ZM64.8962 154.181C64.6996 154.181 64.5326 154.118 64.395 153.994C64.2639 153.863 64.1984 153.696 64.1984 153.493C64.1984 153.289 64.2639 153.126 64.395 153.001C64.5326 152.87 64.6996 152.805 64.8962 152.805C65.0993 152.805 65.2664 152.87 65.3975 153.001C65.5285 153.126 65.594 153.289 65.594 153.493C65.594 153.696 65.5285 153.863 65.3975 153.994C65.2664 154.118 65.0993 154.181 64.8962 154.181ZM66.8998 159.685V154.839H67.8925V155.566H68.0498C68.1415 155.37 68.3053 155.186 68.5412 155.016C68.7771 154.846 69.1276 154.76 69.5928 154.76C69.9598 154.76 70.2841 154.842 70.5659 155.006C70.8542 155.17 71.0802 155.403 71.244 155.704C71.4078 155.999 71.4897 156.356 71.4897 156.775V159.685H70.4774V156.854C70.4774 156.435 70.3726 156.127 70.1629 155.93C69.9532 155.727 69.6649 155.625 69.298 155.625C68.8786 155.625 68.5412 155.763 68.2857 156.038C68.0367 156.313 67.9122 156.713 67.9122 157.237V159.685H66.8998ZM75.1679 159.822C74.6765 159.822 74.2473 159.721 73.8804 159.517C73.5135 159.308 73.2251 159.016 73.0155 158.643C72.8124 158.263 72.7108 157.824 72.7108 157.326V157.208C72.7108 156.703 72.8124 156.264 73.0155 155.891C73.2186 155.511 73.5003 155.219 73.8607 155.016C74.2277 154.806 74.6503 154.702 75.1286 154.702C75.5938 154.702 76.0001 154.806 76.3473 155.016C76.7012 155.219 76.9764 155.504 77.1729 155.871C77.3695 156.238 77.4678 156.667 77.4678 157.159V157.542H73.7428C73.7559 157.968 73.8968 158.309 74.1654 158.564C74.4406 158.813 74.7813 158.938 75.1876 158.938C75.5676 158.938 75.8526 158.852 76.0427 158.682C76.2392 158.512 76.3899 158.315 76.4948 158.092L77.3302 158.525C77.2385 158.708 77.1041 158.902 76.9272 159.105C76.7569 159.308 76.5308 159.478 76.2491 159.616C75.9673 159.753 75.6069 159.822 75.1679 159.822ZM73.7526 156.766H76.4358C76.4096 156.399 76.2785 156.114 76.0427 155.91C75.8068 155.701 75.4988 155.596 75.1188 155.596C74.7387 155.596 74.4275 155.701 74.1851 155.91C73.9492 156.114 73.805 156.399 73.7526 156.766ZM80.6717 159.822C80.0558 159.822 79.5447 159.685 79.1385 159.409C78.7322 159.134 78.4832 158.718 78.3915 158.161L79.335 157.935C79.3875 158.204 79.4759 158.417 79.6004 158.574C79.7249 158.731 79.8789 158.843 80.0624 158.908C80.2524 158.974 80.4555 159.006 80.6717 159.006C80.9928 159.006 81.2385 158.944 81.4089 158.82C81.5858 158.695 81.6742 158.535 81.6742 158.338C81.6742 158.141 81.5923 157.997 81.4285 157.906C81.2647 157.814 81.0223 157.739 80.7012 157.68L80.367 157.621C80.0394 157.562 79.7413 157.476 79.4726 157.365C79.204 157.254 78.991 157.1 78.8338 156.903C78.6765 156.707 78.5979 156.454 78.5979 156.146C78.5979 155.688 78.7683 155.334 79.109 155.085C79.4497 154.829 79.9018 154.702 80.4653 154.702C81.0092 154.702 81.4547 154.826 81.802 155.075C82.1558 155.317 82.3852 155.648 82.49 156.068L81.5465 156.333C81.4875 156.038 81.363 155.832 81.173 155.714C80.983 155.589 80.7471 155.527 80.4653 155.527C80.1901 155.527 79.9739 155.58 79.8166 155.684C79.6594 155.783 79.5808 155.924 79.5808 156.107C79.5808 156.304 79.6561 156.448 79.8068 156.539C79.9641 156.631 80.1737 156.7 80.4358 156.746L80.7798 156.805C81.1271 156.864 81.4449 156.946 81.7332 157.051C82.0215 157.155 82.2476 157.306 82.4114 157.503C82.5817 157.699 82.6669 157.961 82.6669 158.289C82.6669 158.774 82.4867 159.151 82.1263 159.419C81.766 159.688 81.2811 159.822 80.6717 159.822Z" fill="black"/>
<path d="M144.352 156.059V156.516C144.351 157.586 144.004 158.628 143.363 159.485C142.723 160.342 141.822 160.969 140.795 161.273C139.769 161.576 138.672 161.54 137.667 161.169C136.663 160.798 135.806 160.112 135.223 159.214C134.641 158.316 134.364 157.254 134.435 156.186C134.505 155.118 134.919 154.101 135.614 153.288C136.31 152.474 137.25 151.907 138.294 151.671C139.338 151.435 140.43 151.543 141.408 151.979" stroke="#228252" stroke-width="0.794224" stroke-linecap="round" stroke-linejoin="round"/>
<path d="M144.352 152.544L139.388 157.513L137.898 156.024" stroke="#228252" stroke-width="0.794224" stroke-linecap="round" stroke-linejoin="round"/>
<rect x="170.669" y="138.107" width="132.468" height="76.1307" rx="4.57157" fill="white" stroke="black" stroke-width="1.30616"/>
<path d="M187.649 197.174V181.291H187.177L184.713 187.109H181.201L184.949 178.827H191.004V197.174H187.649ZM196.669 197.541C195.952 197.541 195.349 197.314 194.86 196.859C194.388 196.388 194.153 195.785 194.153 195.051C194.153 194.317 194.388 193.723 194.86 193.269C195.349 192.797 195.952 192.561 196.669 192.561C197.368 192.561 197.953 192.797 198.425 193.269C198.896 193.723 199.132 194.317 199.132 195.051C199.132 195.785 198.896 196.388 198.425 196.859C197.953 197.314 197.368 197.541 196.669 197.541ZM208.511 197.541C207.131 197.541 205.908 197.296 204.842 196.807C203.776 196.318 202.938 195.619 202.326 194.71C201.732 193.784 201.435 192.692 201.435 191.434V190.962H204.79V191.329C204.79 192.308 205.13 193.094 205.812 193.688C206.493 194.265 207.393 194.553 208.511 194.553C209.647 194.553 210.521 194.282 211.132 193.74C211.761 193.199 212.076 192.517 212.076 191.696V191.434C212.076 190.875 211.936 190.421 211.657 190.071C211.377 189.722 211.001 189.468 210.53 189.311C210.058 189.136 209.525 189.049 208.931 189.049H205.261V185.38L211.185 182.234V181.815H201.907V178.827H214.907V183.283L209.376 186.218V186.638H210.346C211.167 186.638 211.962 186.804 212.731 187.136C213.517 187.468 214.164 187.983 214.671 188.682C215.177 189.363 215.431 190.255 215.431 191.355V191.67C215.431 192.858 215.142 193.898 214.566 194.789C213.989 195.662 213.177 196.344 212.128 196.833C211.097 197.305 209.892 197.541 208.511 197.541ZM218.272 191.984V188.996H226.03V191.984H218.272ZM234.565 197.174V181.291H234.093L231.629 187.109H228.117L231.865 178.827H237.919V197.174H234.565ZM243.584 197.541C242.868 197.541 242.265 197.314 241.776 196.859C241.304 196.388 241.068 195.785 241.068 195.051C241.068 194.317 241.304 193.723 241.776 193.269C242.265 192.797 242.868 192.561 243.584 192.561C244.283 192.561 244.869 192.797 245.341 193.269C245.812 193.723 246.048 194.317 246.048 195.051C246.048 195.785 245.812 196.388 245.341 196.859C244.869 197.314 244.283 197.541 243.584 197.541ZM255.401 197.541C253.968 197.541 252.728 197.287 251.679 196.781C250.648 196.274 249.853 195.558 249.294 194.632C248.735 193.705 248.456 192.631 248.456 191.408V191.146H251.863V191.382C251.863 192.255 252.151 193.007 252.728 193.636C253.322 194.247 254.195 194.553 255.349 194.553C256.502 194.553 257.384 194.247 257.996 193.636C258.625 193.007 258.939 192.194 258.939 191.198V190.936C258.939 189.958 258.625 189.18 257.996 188.603C257.384 188.027 256.615 187.738 255.689 187.738C255.183 187.738 254.763 187.808 254.431 187.948C254.099 188.088 253.828 188.263 253.619 188.472C253.409 188.682 253.234 188.892 253.095 189.101H249.032V178.827H261.56V181.868H252.387V186.349H252.859C253.033 186.122 253.269 185.904 253.566 185.694C253.863 185.484 254.248 185.31 254.72 185.17C255.191 185.03 255.75 184.96 256.397 184.96C257.48 184.96 258.468 185.187 259.359 185.642C260.25 186.096 260.957 186.769 261.482 187.66C262.023 188.533 262.294 189.617 262.294 190.91V191.224C262.294 192.517 262.015 193.636 261.455 194.579C260.914 195.523 260.127 196.256 259.097 196.781C258.066 197.287 256.834 197.541 255.401 197.541ZM265.01 197.174V178.827H268.312V188.97H268.784L273.082 184.174H277.38L271.379 190.464L277.59 197.174H273.344L268.784 192.011H268.312V197.174H265.01Z" fill="#228252"/>
<path d="M182.223 159.685L181.211 152.805H182.273L183.098 158.967H183.255L184.317 152.805H186.174L187.236 158.967H187.393L188.209 152.805H189.27L188.258 159.685H186.401L185.319 153.434H185.162L184.091 159.685H182.223ZM192.523 159.822C192.038 159.822 191.606 159.724 191.226 159.527C190.852 159.324 190.558 159.036 190.341 158.662C190.125 158.289 190.017 157.847 190.017 157.336V157.188C190.017 156.677 190.125 156.238 190.341 155.871C190.558 155.498 190.852 155.209 191.226 155.006C191.606 154.803 192.038 154.702 192.523 154.702C193.008 154.702 193.441 154.803 193.821 155.006C194.201 155.209 194.499 155.498 194.715 155.871C194.931 156.238 195.039 156.677 195.039 157.188V157.336C195.039 157.847 194.931 158.289 194.715 158.662C194.499 159.036 194.201 159.324 193.821 159.527C193.441 159.724 193.008 159.822 192.523 159.822ZM192.523 158.918C192.969 158.918 193.329 158.777 193.604 158.495C193.886 158.207 194.027 157.811 194.027 157.306V157.218C194.027 156.713 193.889 156.32 193.614 156.038C193.339 155.75 192.975 155.606 192.523 155.606C192.084 155.606 191.724 155.75 191.442 156.038C191.167 156.32 191.029 156.713 191.029 157.218V157.306C191.029 157.811 191.167 158.207 191.442 158.495C191.724 158.777 192.084 158.918 192.523 158.918ZM196.3 159.685V154.839H197.292V155.409H197.45C197.528 155.206 197.653 155.059 197.823 154.967C198 154.869 198.216 154.819 198.472 154.819H199.052V155.734H198.432C198.105 155.734 197.836 155.825 197.627 156.009C197.417 156.186 197.312 156.461 197.312 156.834V159.685H196.3ZM201.933 159.822C201.533 159.822 201.163 159.724 200.822 159.527C200.481 159.331 200.206 159.049 199.997 158.682C199.793 158.309 199.692 157.86 199.692 157.336V157.188C199.692 156.67 199.793 156.225 199.997 155.851C200.2 155.478 200.472 155.193 200.812 154.996C201.153 154.8 201.527 154.702 201.933 154.702C202.247 154.702 202.509 154.741 202.719 154.819C202.935 154.898 203.112 155 203.25 155.124C203.387 155.242 203.492 155.367 203.564 155.498H203.722V152.805H204.734V159.685H203.741V158.997H203.584C203.459 159.206 203.269 159.396 203.014 159.567C202.765 159.737 202.405 159.822 201.933 159.822ZM202.218 158.938C202.657 158.938 203.017 158.797 203.299 158.515C203.587 158.233 203.731 157.83 203.731 157.306V157.218C203.731 156.7 203.591 156.3 203.309 156.019C203.027 155.737 202.663 155.596 202.218 155.596C201.785 155.596 201.425 155.737 201.137 156.019C200.855 156.3 200.714 156.7 200.714 157.218V157.306C200.714 157.83 200.855 158.233 201.137 158.515C201.425 158.797 201.785 158.938 202.218 158.938ZM208.21 159.822C207.594 159.822 207.082 159.685 206.676 159.409C206.27 159.134 206.021 158.718 205.929 158.161L206.873 157.935C206.925 158.204 207.014 158.417 207.138 158.574C207.263 158.731 207.417 158.843 207.6 158.908C207.79 158.974 207.993 159.006 208.21 159.006C208.531 159.006 208.776 158.944 208.947 158.82C209.124 158.695 209.212 158.535 209.212 158.338C209.212 158.141 209.13 157.997 208.966 157.906C208.802 157.814 208.56 157.739 208.239 157.68L207.905 157.621C207.577 157.562 207.279 157.476 207.01 157.365C206.742 157.254 206.529 157.1 206.372 156.903C206.214 156.707 206.136 156.454 206.136 156.146C206.136 155.688 206.306 155.334 206.647 155.085C206.987 154.829 207.44 154.702 208.003 154.702C208.547 154.702 208.993 154.826 209.34 155.075C209.694 155.317 209.923 155.648 210.028 156.068L209.084 156.333C209.025 156.038 208.901 155.832 208.711 155.714C208.521 155.589 208.285 155.527 208.003 155.527C207.728 155.527 207.512 155.58 207.354 155.684C207.197 155.783 207.119 155.924 207.119 156.107C207.119 156.304 207.194 156.448 207.345 156.539C207.502 156.631 207.712 156.7 207.974 156.746L208.318 156.805C208.665 156.864 208.983 156.946 209.271 157.051C209.559 157.155 209.785 157.306 209.949 157.503C210.12 157.699 210.205 157.961 210.205 158.289C210.205 158.774 210.024 159.151 209.664 159.419C209.304 159.688 208.819 159.822 208.21 159.822Z" fill="black"/>
<path d="M288.501 156.059V156.516C288.5 157.586 288.154 158.628 287.513 159.485C286.872 160.342 285.971 160.969 284.945 161.273C283.918 161.576 282.821 161.54 281.817 161.169C280.813 160.798 279.956 160.112 279.373 159.214C278.79 158.316 278.514 157.254 278.584 156.186C278.654 155.118 279.068 154.101 279.764 153.288C280.459 152.474 281.399 151.907 282.443 151.671C283.487 151.435 284.58 151.543 285.557 151.979" stroke="#228252" stroke-width="0.794224" stroke-linecap="round" stroke-linejoin="round"/>
<path d="M288.501 152.544L283.537 157.513L282.048 156.024" stroke="#228252" stroke-width="0.794224" stroke-linecap="round" stroke-linejoin="round"/>
<rect x="26.863" y="226.266" width="132.468" height="76.1307" rx="4.57157" fill="white" stroke="black" stroke-width="1.30616"/>
<path d="M46.7776 285.333V281.611H37.7615V277.732L44.1042 266.986H50.1324V278.623H53.1726V281.611H50.1324V285.333H46.7776ZM40.9591 278.623H46.7776V269.136H46.3058L40.9591 278.204V278.623ZM55.5247 280.144V277.156H63.2827V280.144H55.5247ZM72.997 285.7C71.5642 285.7 70.3236 285.447 69.2752 284.94C68.2443 284.433 67.4493 283.717 66.8902 282.791C66.3311 281.865 66.0515 280.79 66.0515 279.567V279.305H69.4587V279.541C69.4587 280.414 69.747 281.166 70.3236 281.795C70.9177 282.406 71.7913 282.712 72.9446 282.712C74.0978 282.712 74.9802 282.406 75.5917 281.795C76.2207 281.166 76.5352 280.353 76.5352 279.357V279.095C76.5352 278.117 76.2207 277.339 75.5917 276.763C74.9802 276.186 74.2113 275.898 73.2853 275.898C72.7786 275.898 72.3592 275.968 72.0272 276.107C71.6952 276.247 71.4244 276.422 71.2147 276.631C71.0051 276.841 70.8303 277.051 70.6905 277.261H66.6281V266.986H79.1562V270.027H69.9829V274.509H70.4547C70.6294 274.281 70.8653 274.063 71.1623 273.853C71.4594 273.644 71.8438 273.469 72.3155 273.329C72.7873 273.189 73.3464 273.119 73.9929 273.119C75.0763 273.119 76.0635 273.347 76.9546 273.801C77.8457 274.255 78.5534 274.928 79.0776 275.819C79.6192 276.693 79.89 277.776 79.89 279.069V279.383C79.89 280.676 79.6105 281.795 79.0513 282.738C78.5097 283.682 77.7234 284.416 76.6925 284.94C75.6616 285.447 74.4298 285.7 72.997 285.7Z" fill="#228252"/>
<path d="M37.7976 247.844V240.964H38.859V247.844H37.7976ZM40.3226 247.844V242.998H41.3152V243.568H41.4725C41.5642 243.398 41.7117 243.247 41.9148 243.116C42.1179 242.985 42.3931 242.92 42.7404 242.92C43.1008 242.92 43.3891 242.995 43.6053 243.146C43.8281 243.29 43.9951 243.477 44.1065 243.706H44.2638C44.3752 243.483 44.5357 243.296 44.7454 243.146C44.9616 242.995 45.2663 242.92 45.6594 242.92C45.974 242.92 46.2524 242.985 46.4949 243.116C46.7373 243.241 46.9306 243.431 47.0747 243.686C47.2189 243.935 47.291 244.247 47.291 244.62V247.844H46.2786V244.699C46.2786 244.404 46.1967 244.178 46.0329 244.02C45.8757 243.857 45.6496 243.775 45.3548 243.775C45.0402 243.775 44.788 243.876 44.598 244.079C44.4079 244.283 44.3129 244.574 44.3129 244.954V247.844H43.3006V244.699C43.3006 244.404 43.2187 244.178 43.0549 244.02C42.8976 243.857 42.6716 243.775 42.3767 243.775C42.0622 243.775 41.8099 243.876 41.6199 244.079C41.4299 244.283 41.3349 244.574 41.3349 244.954V247.844H40.3226ZM50.2535 247.981C49.9062 247.981 49.595 247.922 49.3198 247.804C49.0511 247.686 48.8349 247.513 48.6711 247.284C48.5139 247.054 48.4352 246.776 48.4352 246.448C48.4352 246.114 48.5139 245.839 48.6711 245.623C48.8349 245.4 49.0544 245.233 49.3296 245.121C49.6114 245.01 49.9292 244.954 50.283 244.954H51.7573V244.64C51.7573 244.358 51.6721 244.132 51.5017 243.961C51.3314 243.791 51.0693 243.706 50.7154 243.706C50.3682 243.706 50.1028 243.788 49.9193 243.952C49.7359 244.115 49.6146 244.328 49.5557 244.591L48.6121 244.286C48.6908 244.024 48.8153 243.788 48.9856 243.578C49.1625 243.362 49.3951 243.188 49.6834 243.057C49.9717 242.926 50.319 242.861 50.7253 242.861C51.3543 242.861 51.849 243.021 52.2094 243.342C52.5698 243.663 52.7499 244.119 52.7499 244.708V246.704C52.7499 246.9 52.8417 246.998 53.0251 246.998H53.4379V247.844H52.6811C52.4518 247.844 52.2651 247.785 52.1209 247.667C51.9768 247.549 51.9047 247.388 51.9047 247.185V247.156H51.7573C51.7048 247.254 51.6262 247.369 51.5214 247.5C51.4165 247.631 51.2626 247.745 51.0594 247.844C50.8563 247.935 50.5877 247.981 50.2535 247.981ZM50.4009 247.146C50.8072 247.146 51.1348 247.031 51.3838 246.802C51.6328 246.566 51.7573 246.245 51.7573 245.839V245.74H50.342C50.0733 245.74 49.8571 245.799 49.6933 245.917C49.5295 246.029 49.4476 246.196 49.4476 246.419C49.4476 246.641 49.5327 246.818 49.7031 246.949C49.8735 247.08 50.1061 247.146 50.4009 247.146ZM54.0712 245.446V245.298C54.0712 244.787 54.1727 244.351 54.3759 243.991C54.5855 243.631 54.8607 243.352 55.2015 243.156C55.5422 242.959 55.9157 242.861 56.3219 242.861C56.7937 242.861 57.1541 242.949 57.403 243.126C57.6586 243.303 57.8453 243.493 57.9633 243.696H58.1205V242.998H59.1034V248.836C59.1034 249.131 59.0149 249.367 58.838 249.544C58.6676 249.721 58.4318 249.809 58.1304 249.809H54.8673V248.925H57.8158C58.0059 248.925 58.1009 248.827 58.1009 248.63V247.087H57.9436C57.8715 247.205 57.77 247.326 57.6389 247.451C57.5079 247.575 57.3342 247.677 57.118 247.755C56.9083 247.834 56.643 247.873 56.3219 247.873C55.9157 247.873 55.5389 247.778 55.1916 247.588C54.8509 247.392 54.579 247.113 54.3759 246.753C54.1727 246.386 54.0712 245.95 54.0712 245.446ZM56.5971 246.989C57.0361 246.989 57.3965 246.851 57.6782 246.576C57.9665 246.294 58.1107 245.908 58.1107 245.416V245.328C58.1107 244.823 57.9698 244.437 57.6881 244.168C57.4063 243.893 57.0427 243.755 56.5971 243.755C56.1647 243.755 55.8043 243.893 55.516 244.168C55.2342 244.437 55.0933 244.823 55.0933 245.328V245.416C55.0933 245.908 55.2342 246.294 55.516 246.576C55.8043 246.851 56.1647 246.989 56.5971 246.989ZM62.8151 247.981C62.3237 247.981 61.8945 247.88 61.5276 247.677C61.1606 247.467 60.8723 247.175 60.6627 246.802C60.4595 246.422 60.358 245.983 60.358 245.485V245.367C60.358 244.862 60.4595 244.423 60.6627 244.05C60.8658 243.67 61.1475 243.378 61.5079 243.175C61.8748 242.966 62.2975 242.861 62.7758 242.861C63.241 242.861 63.6472 242.966 63.9945 243.175C64.3483 243.378 64.6235 243.663 64.8201 244.03C65.0167 244.397 65.115 244.826 65.115 245.318V245.701H61.39C61.4031 246.127 61.5439 246.468 61.8126 246.723C62.0878 246.972 62.4285 247.097 62.8348 247.097C63.2148 247.097 63.4998 247.012 63.6898 246.841C63.8864 246.671 64.0371 246.474 64.1419 246.252L64.9774 246.684C64.8856 246.867 64.7513 247.061 64.5744 247.264C64.404 247.467 64.178 247.637 63.8962 247.775C63.6145 247.913 63.2541 247.981 62.8151 247.981ZM61.3998 244.925H64.083C64.0568 244.558 63.9257 244.273 63.6898 244.07C63.4539 243.86 63.146 243.755 62.766 243.755C62.3859 243.755 62.0747 243.86 61.8322 244.07C61.5964 244.273 61.4522 244.558 61.3998 244.925ZM68.3189 247.981C67.703 247.981 67.1919 247.844 66.7857 247.569C66.3794 247.293 66.1304 246.877 66.0387 246.32L66.9822 246.094C67.0346 246.363 67.1231 246.576 67.2476 246.733C67.3721 246.89 67.5261 247.002 67.7095 247.067C67.8996 247.133 68.1027 247.166 68.3189 247.166C68.64 247.166 68.8857 247.103 69.056 246.979C69.233 246.854 69.3214 246.694 69.3214 246.497C69.3214 246.301 69.2395 246.157 69.0757 246.065C68.9119 245.973 68.6695 245.898 68.3484 245.839L68.0142 245.78C67.6866 245.721 67.3885 245.636 67.1198 245.524C66.8512 245.413 66.6382 245.259 66.481 245.062C66.3237 244.866 66.2451 244.613 66.2451 244.305C66.2451 243.847 66.4155 243.493 66.7562 243.244C67.0969 242.988 67.549 242.861 68.1125 242.861C68.6563 242.861 69.1019 242.985 69.4492 243.234C69.803 243.477 70.0323 243.808 70.1372 244.227L69.1936 244.492C69.1347 244.197 69.0102 243.991 68.8202 243.873C68.6301 243.749 68.3943 243.686 68.1125 243.686C67.8373 243.686 67.6211 243.739 67.4638 243.844C67.3066 243.942 67.2279 244.083 67.2279 244.266C67.2279 244.463 67.3033 244.607 67.454 244.699C67.6113 244.79 67.8209 244.859 68.083 244.905L68.427 244.964C68.7743 245.023 69.0921 245.105 69.3804 245.21C69.6687 245.315 69.8947 245.465 70.0585 245.662C70.2289 245.858 70.3141 246.12 70.3141 246.448C70.3141 246.933 70.1339 247.31 69.7735 247.578C69.4131 247.847 68.9283 247.981 68.3189 247.981Z" fill="black"/>
<g clip-path="url(#clip1_2548_1468)">
<path d="M144.352 244.218V244.675C144.351 245.745 144.004 246.787 143.363 247.644C142.723 248.501 141.822 249.129 140.795 249.432C139.769 249.736 138.672 249.699 137.667 249.328C136.663 248.957 135.806 248.272 135.223 247.374C134.641 246.476 134.364 245.413 134.435 244.345C134.505 243.277 134.919 242.26 135.614 241.447C136.31 240.633 137.25 240.066 138.294 239.83C139.338 239.594 140.43 239.702 141.408 240.138" stroke="#228252" stroke-width="0.794224" stroke-linecap="round" stroke-linejoin="round"/>
<path d="M144.352 240.702L139.388 245.671L137.898 244.182" stroke="#228252" stroke-width="0.794224" stroke-linecap="round" stroke-linejoin="round"/>
</g>
<rect x="170.671" y="226.266" width="132.468" height="76.1307" rx="4.57157" fill="white" stroke="black" stroke-width="1.30616"/>
<path d="M188.855 285.7C187.475 285.7 186.252 285.455 185.186 284.966C184.12 284.477 183.281 283.778 182.67 282.869C182.076 281.943 181.779 280.851 181.779 279.593V279.121H185.134V279.488C185.134 280.467 185.474 281.253 186.156 281.847C186.837 282.424 187.737 282.712 188.855 282.712C189.991 282.712 190.865 282.441 191.476 281.9C192.105 281.358 192.42 280.676 192.42 279.855V279.593C192.42 279.034 192.28 278.58 192 278.23C191.721 277.881 191.345 277.627 190.873 277.47C190.402 277.295 189.869 277.208 189.275 277.208H185.605V273.539L191.529 270.394V269.974H182.251V266.986H195.25V271.442L189.72 274.377V274.797H190.69C191.511 274.797 192.306 274.963 193.075 275.295C193.861 275.627 194.508 276.142 195.015 276.841C195.521 277.523 195.775 278.414 195.775 279.515V279.829C195.775 281.017 195.486 282.057 194.91 282.948C194.333 283.822 193.521 284.503 192.472 284.992C191.441 285.464 190.236 285.7 188.855 285.7ZM198.616 280.144V277.156H206.374V280.144H198.616ZM217.844 285.333V281.611H208.828V277.732L215.171 266.986H221.199V278.623H224.239V281.611H221.199V285.333H217.844ZM212.025 278.623H217.844V269.136H217.372L212.025 278.204V278.623Z" fill="#C8102E"/>
<path d="M181.605 247.844V240.964H182.667V246.881H185.979V247.844H181.605ZM186.981 247.844V242.998H187.993V247.844H186.981ZM187.492 242.34C187.295 242.34 187.128 242.278 186.991 242.153C186.86 242.022 186.794 241.855 186.794 241.652C186.794 241.449 186.86 241.285 186.991 241.16C187.128 241.029 187.295 240.964 187.492 240.964C187.695 240.964 187.862 241.029 187.993 241.16C188.124 241.285 188.19 241.449 188.19 241.652C188.19 241.855 188.124 242.022 187.993 242.153C187.862 242.278 187.695 242.34 187.492 242.34ZM189.496 247.844V242.998H190.488V243.726H190.645C190.737 243.529 190.901 243.346 191.137 243.175C191.373 243.005 191.723 242.92 192.189 242.92C192.555 242.92 192.88 243.002 193.162 243.165C193.45 243.329 193.676 243.562 193.84 243.863C194.004 244.158 194.085 244.515 194.085 244.935V247.844H193.073V245.013C193.073 244.594 192.968 244.286 192.759 244.089C192.549 243.886 192.261 243.785 191.894 243.785C191.474 243.785 191.137 243.922 190.881 244.197C190.632 244.473 190.508 244.872 190.508 245.396V247.844H189.496ZM195.542 247.844V240.964H196.555V244.885H196.712L198.619 242.998H199.965L197.518 245.347L200.044 247.844H198.707L196.712 245.829H196.555V247.844H195.542ZM202.816 247.981C202.2 247.981 201.689 247.844 201.283 247.569C200.877 247.293 200.628 246.877 200.536 246.32L201.48 246.094C201.532 246.363 201.621 246.576 201.745 246.733C201.87 246.89 202.023 247.002 202.207 247.067C202.397 247.133 202.6 247.166 202.816 247.166C203.137 247.166 203.383 247.103 203.553 246.979C203.73 246.854 203.819 246.694 203.819 246.497C203.819 246.301 203.737 246.157 203.573 246.065C203.409 245.973 203.167 245.898 202.846 245.839L202.512 245.78C202.184 245.721 201.886 245.636 201.617 245.524C201.349 245.413 201.136 245.259 200.978 245.062C200.821 244.866 200.743 244.613 200.743 244.305C200.743 243.847 200.913 243.493 201.254 243.244C201.594 242.988 202.046 242.861 202.61 242.861C203.154 242.861 203.599 242.985 203.947 243.234C204.3 243.477 204.53 243.808 204.635 244.227L203.691 244.492C203.632 244.197 203.508 243.991 203.318 243.873C203.128 243.749 202.892 243.686 202.61 243.686C202.335 243.686 202.118 243.739 201.961 243.844C201.804 243.942 201.725 244.083 201.725 244.266C201.725 244.463 201.801 244.607 201.951 244.699C202.109 244.79 202.318 244.859 202.58 244.905L202.924 244.964C203.272 245.023 203.589 245.105 203.878 245.21C204.166 245.315 204.392 245.465 204.556 245.662C204.726 245.858 204.812 246.12 204.812 246.448C204.812 246.933 204.631 247.31 204.271 247.578C203.911 247.847 203.426 247.981 202.816 247.981Z" fill="black"/>
<g clip-path="url(#clip2_2548_1468)">
<path d="M283.535 249.64C286.277 249.64 288.5 247.418 288.5 244.676C288.5 241.934 286.277 239.711 283.535 239.711C280.793 239.711 278.57 241.934 278.57 244.676C278.57 247.418 280.793 249.64 283.535 249.64Z" stroke="#C8102E" stroke-width="0.992946" stroke-linecap="round" stroke-linejoin="round"/>
<path d="M285.522 244.675L283.536 242.689L281.55 244.675" stroke="#C8102E" stroke-width="0.992946" stroke-linecap="round" stroke-linejoin="round"/>
<path d="M283.534 246.661V242.689" stroke="#C8102E" stroke-width="0.992946" stroke-linecap="round" stroke-linejoin="round"/>
</g>
<path d="M27.6168 75.0186V60.0871H30.4325V66.2517H35.9784V60.0871H38.7941V75.0186H35.9784V68.8113H30.4325V75.0186H27.6168ZM46.3078 75.3172C45.2555 75.3172 44.3098 75.1039 43.4708 74.6773C42.6318 74.2507 41.9706 73.6321 41.4871 72.8215C41.0036 72.0109 40.7618 71.0368 40.7618 69.8992V69.5579C40.7618 68.4203 41.0036 67.4462 41.4871 66.6356C41.9706 65.825 42.6318 65.2065 43.4708 64.7798C44.3098 64.3532 45.2555 64.1399 46.3078 64.1399C47.3601 64.1399 48.3058 64.3532 49.1448 64.7798C49.9838 65.2065 50.645 65.825 51.1285 66.6356C51.612 67.4462 51.8538 68.4203 51.8538 69.5579V69.8992C51.8538 71.0368 51.612 72.0109 51.1285 72.8215C50.645 73.6321 49.9838 74.2507 49.1448 74.6773C48.3058 75.1039 47.3601 75.3172 46.3078 75.3172ZM46.3078 72.9282C47.1326 72.9282 47.8152 72.6651 48.3555 72.1389C48.8959 71.5985 49.1661 70.8306 49.1661 69.8352V69.6219C49.1661 68.6265 48.8959 67.8657 48.3555 67.3395C47.8294 66.7991 47.1468 66.529 46.3078 66.529C45.483 66.529 44.8004 66.7991 44.26 67.3395C43.7197 67.8657 43.4495 68.6265 43.4495 69.6219V69.8352C43.4495 70.8306 43.7197 71.5985 44.26 72.1389C44.8004 72.6651 45.483 72.9282 46.3078 72.9282ZM54.7196 75.0186L53.2264 64.4386H55.8928L56.8313 73.2054H57.2153L58.5804 64.4386H62.8892L64.2544 73.2054H64.6383L65.5769 64.4386H68.2432L66.7501 75.0186H62.2919L60.9268 66.2517H60.5428L59.1777 75.0186H54.7196ZM75.1562 75.0186V60.0871H77.8438V75.0186H75.1562ZM85.4295 75.3172C84.3772 75.3172 83.4316 75.1039 82.5926 74.6773C81.7536 74.2507 81.0923 73.6321 80.6088 72.8215C80.1253 72.0109 79.8836 71.0368 79.8836 69.8992V69.5579C79.8836 68.4203 80.1253 67.4462 80.6088 66.6356C81.0923 65.825 81.7536 65.2065 82.5926 64.7798C83.4316 64.3532 84.3772 64.1399 85.4295 64.1399C86.4819 64.1399 87.4275 64.3532 88.2665 64.7798C89.1055 65.2065 89.7668 65.825 90.2503 66.6356C90.7338 67.4462 90.9755 68.4203 90.9755 69.5579V69.8992C90.9755 71.0368 90.7338 72.0109 90.2503 72.8215C89.7668 73.6321 89.1055 74.2507 88.2665 74.6773C87.4275 75.1039 86.4819 75.3172 85.4295 75.3172ZM85.4295 72.9282C86.2543 72.9282 86.9369 72.6651 87.4773 72.1389C88.0177 71.5985 88.2879 70.8306 88.2879 69.8352V69.6219C88.2879 68.6265 88.0177 67.8657 87.4773 67.3395C86.9511 66.7991 86.2685 66.529 85.4295 66.529C84.6048 66.529 83.9222 66.7991 83.3818 67.3395C82.8414 67.8657 82.5712 68.6265 82.5712 69.6219V69.8352C82.5712 70.8306 82.8414 71.5985 83.3818 72.1389C83.9222 72.6651 84.6048 72.9282 85.4295 72.9282ZM93.0298 75.0186V64.4386H95.6748V65.825H96.0587C96.2293 65.4553 96.5493 65.1069 97.0186 64.7798C97.4879 64.4386 98.1989 64.2679 99.1516 64.2679C99.9764 64.2679 100.695 64.4599 101.306 64.8438C101.932 65.2136 102.415 65.7326 102.757 66.401C103.098 67.0551 103.268 67.823 103.268 68.7047V75.0186H100.581V68.918C100.581 68.1216 100.382 67.5244 99.9835 67.1262C99.5996 66.728 99.045 66.529 98.3198 66.529C97.495 66.529 96.855 66.8063 96.4 67.3608C95.9449 67.9012 95.7174 68.662 95.7174 69.6432V75.0186H93.0298ZM105.235 69.7712V69.4299C105.235 68.3207 105.456 67.3751 105.897 66.5929C106.337 65.7966 106.921 65.1922 107.646 64.7798C108.385 64.3532 109.189 64.1399 110.056 64.1399C111.023 64.1399 111.755 64.3106 112.253 64.6519C112.751 64.9931 113.114 65.3487 113.341 65.7184H113.725V64.4386H116.37V76.8957C116.37 77.6209 116.157 78.1968 115.73 78.6234C115.303 79.0643 114.735 79.2847 114.024 79.2847H106.942V76.9383H113.085C113.483 76.9383 113.682 76.725 113.682 76.2984V73.5467H113.298C113.156 73.7743 112.957 74.0089 112.701 74.2507C112.445 74.4782 112.104 74.6702 111.677 74.8266C111.251 74.983 110.71 75.0612 110.056 75.0612C109.189 75.0612 108.385 74.855 107.646 74.4426C106.921 74.016 106.337 73.4116 105.897 72.6295C105.456 71.8332 105.235 70.8804 105.235 69.7712ZM110.824 72.7148C111.649 72.7148 112.338 72.4518 112.893 71.9256C113.448 71.3995 113.725 70.66 113.725 69.7072V69.4939C113.725 68.5269 113.448 67.7875 112.893 67.2755C112.353 66.7494 111.663 66.4863 110.824 66.4863C109.999 66.4863 109.31 66.7494 108.755 67.2755C108.2 67.7875 107.923 68.5269 107.923 69.4939V69.7072C107.923 70.66 108.2 71.3995 108.755 71.9256C109.31 72.4518 109.999 72.7148 110.824 72.7148ZM128.179 75.3172C127.34 75.3172 126.55 75.111 125.811 74.6986C125.086 74.272 124.503 73.6534 124.062 72.8428C123.621 72.0323 123.401 71.0511 123.401 69.8992V69.5579C123.401 68.4061 123.621 67.4248 124.062 66.6143C124.503 65.8037 125.086 65.1922 125.811 64.7798C126.536 64.3532 127.325 64.1399 128.179 64.1399C128.819 64.1399 129.352 64.2181 129.778 64.3746C130.219 64.5168 130.575 64.7016 130.845 64.9292C131.115 65.1567 131.321 65.3984 131.464 65.6544H131.848V60.0871H134.535V75.0186H131.89V73.7387H131.506C131.265 74.1369 130.888 74.4995 130.376 74.8266C129.878 75.1536 129.146 75.3172 128.179 75.3172ZM128.989 72.9708C129.814 72.9708 130.504 72.7077 131.058 72.1816C131.613 71.6412 131.89 70.8591 131.89 69.8352V69.6219C131.89 68.598 131.613 67.823 131.058 67.2969C130.518 66.7565 129.828 66.4863 128.989 66.4863C128.164 66.4863 127.475 66.7565 126.92 67.2969C126.366 67.823 126.088 68.598 126.088 69.6219V69.8352C126.088 70.8591 126.366 71.6412 126.92 72.1816C127.475 72.7077 128.164 72.9708 128.989 72.9708ZM142.122 75.3172C141.07 75.3172 140.124 75.1039 139.285 74.6773C138.446 74.2507 137.785 73.6321 137.302 72.8215C136.818 72.0109 136.576 71.0368 136.576 69.8992V69.5579C136.576 68.4203 136.818 67.4462 137.302 66.6356C137.785 65.825 138.446 65.2065 139.285 64.7798C140.124 64.3532 141.07 64.1399 142.122 64.1399C143.175 64.1399 144.12 64.3532 144.959 64.7798C145.798 65.2065 146.46 65.825 146.943 66.6356C147.427 67.4462 147.668 68.4203 147.668 69.5579V69.8992C147.668 71.0368 147.427 72.0109 146.943 72.8215C146.46 73.6321 145.798 74.2507 144.959 74.6773C144.12 75.1039 143.175 75.3172 142.122 75.3172ZM142.122 72.9282C142.947 72.9282 143.63 72.6651 144.17 72.1389C144.711 71.5985 144.981 70.8306 144.981 69.8352V69.6219C144.981 68.6265 144.711 67.8657 144.17 67.3395C143.644 66.7991 142.961 66.529 142.122 66.529C141.298 66.529 140.615 66.7991 140.075 67.3395C139.534 67.8657 139.264 68.6265 139.264 69.6219V69.8352C139.264 70.8306 139.534 71.5985 140.075 72.1389C140.615 72.6651 141.298 72.9282 142.122 72.9282ZM154.543 75.3172C153.491 75.3172 152.56 75.0968 151.749 74.6559C150.953 74.2009 150.327 73.5681 149.872 72.7575C149.431 71.9327 149.211 70.9657 149.211 69.8565V69.6006C149.211 68.4914 149.431 67.5315 149.872 66.7209C150.313 65.8961 150.931 65.2633 151.728 64.8225C152.524 64.3674 153.448 64.1399 154.501 64.1399C155.539 64.1399 156.442 64.3746 157.21 64.8438C157.978 65.2989 158.575 65.9388 159.001 66.7636C159.428 67.5742 159.641 68.5198 159.641 69.6006V70.5178H151.941C151.969 71.243 152.24 71.8332 152.752 72.2882C153.264 72.7433 153.889 72.9708 154.629 72.9708C155.382 72.9708 155.937 72.8073 156.292 72.4802C156.648 72.1531 156.918 71.7905 157.103 71.3923L159.3 72.5442C159.101 72.9139 158.809 73.3192 158.426 73.76C158.056 74.1867 157.558 74.5564 156.932 74.8692C156.307 75.1679 155.51 75.3172 154.543 75.3172ZM151.962 68.5127H156.911C156.854 67.9012 156.605 67.4106 156.164 67.0409C155.738 66.6712 155.176 66.4863 154.479 66.4863C153.754 66.4863 153.178 66.6712 152.752 67.0409C152.325 67.4106 152.062 67.9012 151.962 68.5127ZM166.001 75.3172C164.622 75.3172 163.491 75.0186 162.61 74.4213C161.728 73.824 161.195 72.9708 161.01 71.8616L163.484 71.2217C163.584 71.7194 163.747 72.1105 163.975 72.3949C164.216 72.6793 164.508 72.8855 164.849 73.0135C165.205 73.1272 165.589 73.1841 166.001 73.1841C166.627 73.1841 167.089 73.0775 167.388 72.8642C167.686 72.6366 167.836 72.3593 167.836 72.0323C167.836 71.7052 167.693 71.4563 167.409 71.2857C167.124 71.1008 166.669 70.9515 166.044 70.8377L165.446 70.7311C164.707 70.5889 164.032 70.3969 163.42 70.1552C162.809 69.8992 162.318 69.5508 161.948 69.11C161.579 68.6691 161.394 68.1003 161.394 67.4035C161.394 66.3512 161.778 65.5477 162.546 64.9931C163.313 64.4243 164.323 64.1399 165.574 64.1399C166.755 64.1399 167.736 64.403 168.518 64.9292C169.3 65.4553 169.812 66.145 170.054 66.9982L167.558 67.7661C167.444 67.2258 167.21 66.8418 166.854 66.6143C166.513 66.3868 166.086 66.273 165.574 66.273C165.063 66.273 164.671 66.3654 164.401 66.5503C164.131 66.7209 163.996 66.9627 163.996 67.2755C163.996 67.6168 164.138 67.8728 164.423 68.0434C164.707 68.1999 165.091 68.3207 165.574 68.4061L166.172 68.5127C166.968 68.6549 167.686 68.8469 168.326 69.0886C168.98 69.3162 169.492 69.6503 169.862 70.0912C170.246 70.5178 170.438 71.1008 170.438 71.8403C170.438 72.9495 170.033 73.8098 169.222 74.4213C168.426 75.0186 167.352 75.3172 166.001 75.3172ZM177.356 75.0186V64.4386H180.043V75.0186H177.356ZM178.7 63.2014C178.216 63.2014 177.804 63.0449 177.462 62.7321C177.135 62.4192 176.972 62.0069 176.972 61.4949C176.972 60.983 177.135 60.5706 177.462 60.2577C177.804 59.9449 178.216 59.7885 178.7 59.7885C179.197 59.7885 179.61 59.9449 179.937 60.2577C180.264 60.5706 180.427 60.983 180.427 61.4949C180.427 62.0069 180.264 62.4192 179.937 62.7321C179.61 63.0449 179.197 63.2014 178.7 63.2014ZM186.648 75.0186C185.951 75.0186 185.382 74.8052 184.942 74.3786C184.515 73.9378 184.302 73.3548 184.302 72.6295V66.6569H181.657V64.4386H184.302V61.1536H186.989V64.4386H189.89V66.6569H186.989V72.1602C186.989 72.5869 187.188 72.8002 187.587 72.8002H189.634V75.0186H186.648ZM200.939 75.0186C200.242 75.0186 199.673 74.8052 199.232 74.3786C198.806 73.9378 198.592 73.3548 198.592 72.6295V66.6569H195.947V64.4386H198.592V61.1536H201.28V64.4386H204.181V66.6569H201.28V72.1602C201.28 72.5869 201.479 72.8002 201.877 72.8002H203.925V75.0186H200.939ZM209.472 75.3172C208.718 75.3172 208.043 75.1892 207.446 74.9332C206.848 74.663 206.372 74.2791 206.017 73.7814C205.675 73.2694 205.505 72.6509 205.505 71.9256C205.505 71.2004 205.675 70.596 206.017 70.1125C206.372 69.6148 206.856 69.2451 207.467 69.0033C208.093 68.7473 208.804 68.6194 209.6 68.6194H212.501V68.0221C212.501 67.5244 212.345 67.1191 212.032 66.8063C211.719 66.4792 211.221 66.3156 210.539 66.3156C209.87 66.3156 209.373 66.4721 209.045 66.7849C208.718 67.0836 208.505 67.4746 208.406 67.9581L205.931 67.1262C206.102 66.5858 206.372 66.0952 206.742 65.6544C207.126 65.1993 207.631 64.8367 208.256 64.5665C208.896 64.2821 209.671 64.1399 210.581 64.1399C211.975 64.1399 213.077 64.4883 213.888 65.1851C214.698 65.8819 215.103 66.8916 215.103 68.2141V72.1602C215.103 72.5869 215.302 72.8002 215.701 72.8002H216.554V75.0186H214.762C214.236 75.0186 213.802 74.8906 213.461 74.6346C213.12 74.3786 212.949 74.0373 212.949 73.6107V73.5894H212.544C212.487 73.76 212.359 73.9876 212.16 74.272C211.961 74.5422 211.648 74.7839 211.221 74.9972C210.795 75.2105 210.212 75.3172 209.472 75.3172ZM209.941 73.1415C210.695 73.1415 211.307 72.9353 211.776 72.5229C212.259 72.0963 212.501 71.5345 212.501 70.8377V70.6244H209.792C209.294 70.6244 208.903 70.7311 208.619 70.9444C208.334 71.1577 208.192 71.4563 208.192 71.8403C208.192 72.2242 208.342 72.5371 208.64 72.7788C208.939 73.0206 209.373 73.1415 209.941 73.1415ZM218.092 75.0186V60.0871H220.78V68.3421H221.164L224.662 64.4386H228.16L223.276 69.5579L228.331 75.0186H224.876L221.164 70.8164H220.78V75.0186H218.092ZM233.881 75.3172C232.829 75.3172 231.897 75.0968 231.087 74.6559C230.29 74.2009 229.665 73.5681 229.209 72.7575C228.769 71.9327 228.548 70.9657 228.548 69.8565V69.6006C228.548 68.4914 228.769 67.5315 229.209 66.7209C229.65 65.8961 230.269 65.2633 231.065 64.8225C231.862 64.3674 232.786 64.1399 233.838 64.1399C234.876 64.1399 235.779 64.3746 236.547 64.8438C237.315 65.2989 237.912 65.9388 238.339 66.7636C238.766 67.5742 238.979 68.5198 238.979 69.6006V70.5178H231.279C231.307 71.243 231.577 71.8332 232.089 72.2882C232.601 72.7433 233.227 72.9708 233.966 72.9708C234.72 72.9708 235.274 72.8073 235.63 72.4802C235.986 72.1531 236.256 71.7905 236.441 71.3923L238.638 72.5442C238.439 72.9139 238.147 73.3192 237.763 73.76C237.393 74.1867 236.896 74.5564 236.27 74.8692C235.644 75.1679 234.848 75.3172 233.881 75.3172ZM231.3 68.5127H236.249C236.192 67.9012 235.943 67.4106 235.502 67.0409C235.075 66.6712 234.514 66.4863 233.817 66.4863C233.092 66.4863 232.516 66.6712 232.089 67.0409C231.663 67.4106 231.399 67.9012 231.3 68.5127ZM249.987 75.0186C249.29 75.0186 248.721 74.8052 248.28 74.3786C247.854 73.9378 247.64 73.3548 247.64 72.6295V66.6569H244.995V64.4386H247.64V61.1536H250.328V64.4386H253.229V66.6569H250.328V72.1602C250.328 72.5869 250.527 72.8002 250.925 72.8002H252.973V75.0186H249.987ZM259.894 75.3172C258.842 75.3172 257.896 75.1039 257.057 74.6773C256.218 74.2507 255.557 73.6321 255.074 72.8215C254.59 72.0109 254.348 71.0368 254.348 69.8992V69.5579C254.348 68.4203 254.59 67.4462 255.074 66.6356C255.557 65.825 256.218 65.2065 257.057 64.7798C257.896 64.3532 258.842 64.1399 259.894 64.1399C260.947 64.1399 261.892 64.3532 262.731 64.7798C263.57 65.2065 264.232 65.825 264.715 66.6356C265.198 67.4462 265.44 68.4203 265.44 69.5579V69.8992C265.44 71.0368 265.198 72.0109 264.715 72.8215C264.232 73.6321 263.57 74.2507 262.731 74.6773C261.892 75.1039 260.947 75.3172 259.894 75.3172ZM259.894 72.9282C260.719 72.9282 261.402 72.6651 261.942 72.1389C262.482 71.5985 262.753 70.8306 262.753 69.8352V69.6219C262.753 68.6265 262.482 67.8657 261.942 67.3395C261.416 66.7991 260.733 66.529 259.894 66.529C259.069 66.529 258.387 66.7991 257.847 67.3395C257.306 67.8657 257.036 68.6265 257.036 69.6219V69.8352C257.036 70.8306 257.306 71.5985 257.847 72.1389C258.387 72.6651 259.069 72.9282 259.894 72.9282ZM32.0962 103.317C30.7169 103.317 29.5863 103.019 28.7047 102.421C27.823 101.824 27.2897 100.971 27.1049 99.8616L29.5792 99.2217C29.6788 99.7194 29.8423 100.11 30.0698 100.395C30.3116 100.679 30.6031 100.885 30.9444 101.013C31.2999 101.127 31.6839 101.184 32.0962 101.184C32.7219 101.184 33.1841 101.077 33.4827 100.864C33.7814 100.637 33.9307 100.359 33.9307 100.032C33.9307 99.7052 33.7885 99.4563 33.5041 99.2857C33.2197 99.1008 32.7646 98.9515 32.1389 98.8377L31.5416 98.7311C30.8022 98.5889 30.1267 98.3969 29.5152 98.1552C28.9038 97.8992 28.4132 97.5508 28.0434 97.11C27.6737 96.6691 27.4888 96.1003 27.4888 95.4035C27.4888 94.3512 27.8728 93.5477 28.6407 92.9931C29.4086 92.4243 30.4182 92.1399 31.6696 92.1399C32.8499 92.1399 33.8311 92.403 34.6133 92.9292C35.3954 93.4553 35.9073 94.145 36.1491 94.9982L33.6534 95.7661C33.5396 95.2258 33.305 94.8418 32.9495 94.6143C32.6082 94.3868 32.1816 94.273 31.6696 94.273C31.1577 94.273 30.7666 94.3654 30.4964 94.5503C30.2263 94.7209 30.0912 94.9627 30.0912 95.2755C30.0912 95.6168 30.2334 95.8728 30.5178 96.0434C30.8022 96.1999 31.1861 96.3207 31.6696 96.4061L32.2669 96.5127C33.0632 96.6549 33.7814 96.8469 34.4213 97.0886C35.0754 97.3162 35.5874 97.6503 35.9571 98.0912C36.341 98.5178 36.533 99.1008 36.533 99.8403C36.533 100.949 36.1277 101.81 35.3172 102.421C34.5208 103.019 33.4472 103.317 32.0962 103.317ZM43.2823 103.317C42.23 103.317 41.2986 103.097 40.488 102.656C39.6917 102.201 39.066 101.568 38.6109 100.758C38.1701 99.9327 37.9497 98.9657 37.9497 97.8565V97.6006C37.9497 96.4914 38.1701 95.5315 38.6109 94.7209C39.0518 93.8961 39.6703 93.2633 40.4667 92.8225C41.263 92.3674 42.1874 92.1399 43.2397 92.1399C44.2778 92.1399 45.1808 92.3746 45.9487 92.8438C46.7166 93.2989 47.3138 93.9388 47.7404 94.7636C48.1671 95.5742 48.3804 96.5198 48.3804 97.6006V98.5178H40.68C40.7084 99.243 40.9786 99.8332 41.4906 100.288C42.0025 100.743 42.6282 100.971 43.3677 100.971C44.1213 100.971 44.6759 100.807 45.0315 100.48C45.387 100.153 45.6572 99.7905 45.842 99.3923L48.0391 100.544C47.84 100.914 47.5485 101.319 47.1645 101.76C46.7948 102.187 46.2971 102.556 45.6714 102.869C45.0457 103.168 44.2493 103.317 43.2823 103.317ZM40.7013 96.5127H45.65C45.5932 95.9012 45.3443 95.4106 44.9035 95.0409C44.4769 94.6712 43.9151 94.4863 43.2183 94.4863C42.4931 94.4863 41.9172 94.6712 41.4906 95.0409C41.064 95.4106 40.8009 95.9012 40.7013 96.5127ZM55.1667 103.317C54.1144 103.317 53.1829 103.097 52.3724 102.656C51.576 102.201 50.9503 101.568 50.4953 100.758C50.0544 99.9327 49.834 98.9657 49.834 97.8565V97.6006C49.834 96.4914 50.0544 95.5315 50.4953 94.7209C50.9361 93.8961 51.5547 93.2633 52.351 92.8225C53.1474 92.3674 54.0717 92.1399 55.124 92.1399C56.1621 92.1399 57.0651 92.3746 57.833 92.8438C58.6009 93.2989 59.1982 93.9388 59.6248 94.7636C60.0514 95.5742 60.2647 96.5198 60.2647 97.6006V98.5178H52.5643C52.5928 99.243 52.863 99.8332 53.3749 100.288C53.8868 100.743 54.5125 100.971 55.252 100.971C56.0057 100.971 56.5603 100.807 56.9158 100.48C57.2713 100.153 57.5415 99.7905 57.7264 99.3923L59.9234 100.544C59.7243 100.914 59.4328 101.319 59.0489 101.76C58.6791 102.187 58.1814 102.556 57.5557 102.869C56.93 103.168 56.1337 103.317 55.1667 103.317ZM52.5857 96.5127H57.5344C57.4775 95.9012 57.2286 95.4106 56.7878 95.0409C56.3612 94.6712 55.7995 94.4863 55.1027 94.4863C54.3774 94.4863 53.8015 94.6712 53.3749 95.0409C52.9483 95.4106 52.6852 95.9012 52.5857 96.5127ZM67.2197 103.019V92.4386H69.8647V93.6331H70.2486C70.405 93.2065 70.661 92.8936 71.0165 92.6945C71.3863 92.4954 71.8129 92.3959 72.2964 92.3959H73.5762V94.7849H72.2537C71.5711 94.7849 71.0094 94.9698 70.5686 95.3395C70.1277 95.695 69.9073 96.2496 69.9073 97.0033V103.019H67.2197ZM79.6961 103.317C78.6438 103.317 77.7123 103.097 76.9018 102.656C76.1054 102.201 75.4797 101.568 75.0247 100.758C74.5838 99.9327 74.3634 98.9657 74.3634 97.8565V97.6006C74.3634 96.4914 74.5838 95.5315 75.0247 94.7209C75.4655 93.8961 76.0841 93.2633 76.8804 92.8225C77.6768 92.3674 78.6011 92.1399 79.6534 92.1399C80.6915 92.1399 81.5945 92.3746 82.3624 92.8438C83.1303 93.2989 83.7276 93.9388 84.1542 94.7636C84.5808 95.5742 84.7941 96.5198 84.7941 97.6006V98.5178H77.0938C77.1222 99.243 77.3924 99.8332 77.9043 100.288C78.4163 100.743 79.042 100.971 79.7814 100.971C80.5351 100.971 81.0897 100.807 81.4452 100.48C81.8007 100.153 82.0709 99.7905 82.2558 99.3923L84.4528 100.544C84.2537 100.914 83.9622 101.319 83.5783 101.76C83.2085 102.187 82.7108 102.556 82.0851 102.869C81.4594 103.168 80.6631 103.317 79.6961 103.317ZM77.1151 96.5127H82.0638C82.0069 95.9012 81.7581 95.4106 81.3172 95.0409C80.8906 94.6712 80.3289 94.4863 79.6321 94.4863C78.9069 94.4863 78.3309 94.6712 77.9043 95.0409C77.4777 95.4106 77.2146 95.9012 77.1151 96.5127ZM91.1538 103.317C89.7744 103.317 88.6439 103.019 87.7622 102.421C86.8806 101.824 86.3473 100.971 86.1624 99.8616L88.6368 99.2217C88.7363 99.7194 88.8999 100.11 89.1274 100.395C89.3692 100.679 89.6607 100.885 90.002 101.013C90.3575 101.127 90.7414 101.184 91.1538 101.184C91.7795 101.184 92.2417 101.077 92.5403 100.864C92.8389 100.637 92.9883 100.359 92.9883 100.032C92.9883 99.7052 92.8461 99.4563 92.5616 99.2857C92.2772 99.1008 91.8222 98.9515 91.1965 98.8377L90.5992 98.7311C89.8598 98.5889 89.1843 98.3969 88.5728 98.1552C87.9613 97.8992 87.4707 97.5508 87.101 97.11C86.7313 96.6691 86.5464 96.1003 86.5464 95.4035C86.5464 94.3512 86.9304 93.5477 87.6983 92.9931C88.4662 92.4243 89.4758 92.1399 90.7272 92.1399C91.9075 92.1399 92.8887 92.403 93.6708 92.9292C94.453 93.4553 94.9649 94.145 95.2066 94.9982L92.711 95.7661C92.5972 95.2258 92.3626 94.8418 92.007 94.6143C91.6658 94.3868 91.2391 94.273 90.7272 94.273C90.2153 94.273 89.8242 94.3654 89.554 94.5503C89.2838 94.7209 89.1487 94.9627 89.1487 95.2755C89.1487 95.6168 89.2909 95.8728 89.5754 96.0434C89.8598 96.1999 90.2437 96.3207 90.7272 96.4061L91.3245 96.5127C92.1208 96.6549 92.8389 96.8469 93.4789 97.0886C94.133 97.3162 94.6449 97.6503 95.0147 98.0912C95.3986 98.5178 95.5906 99.1008 95.5906 99.8403C95.5906 100.949 95.1853 101.81 94.3747 102.421C93.5784 103.019 92.5048 103.317 91.1538 103.317ZM101.551 103.189C100.726 103.189 100.001 103.004 99.375 102.635C98.7635 102.251 98.2871 101.724 97.9458 101.056C97.6045 100.388 97.4339 99.6199 97.4339 98.7524V92.4386H100.122V98.5391C100.122 99.3355 100.314 99.9327 100.697 100.331C101.096 100.729 101.657 100.928 102.383 100.928C103.207 100.928 103.847 100.658 104.302 100.118C104.757 99.563 104.985 98.7951 104.985 97.8139V92.4386H107.673V103.019H105.028V101.632H104.644C104.473 101.988 104.153 102.336 103.684 102.677C103.214 103.019 102.503 103.189 101.551 103.189ZM110.237 103.019V88.0871H112.924V103.019H110.237ZM119.529 103.019C118.832 103.019 118.263 102.805 117.822 102.379C117.396 101.938 117.183 101.355 117.183 100.63V94.6569H114.538V92.4386H117.183V89.1536H119.87V92.4386H122.771V94.6569H119.87V100.16C119.87 100.587 120.069 100.8 120.467 100.8H122.515V103.019H119.529ZM129.172 103.317C127.792 103.317 126.662 103.019 125.78 102.421C124.898 101.824 124.365 100.971 124.18 99.8616L126.655 99.2217C126.754 99.7194 126.918 100.11 127.145 100.395C127.387 100.679 127.678 100.885 128.02 101.013C128.375 101.127 128.759 101.184 129.172 101.184C129.797 101.184 130.259 101.077 130.558 100.864C130.857 100.637 131.006 100.359 131.006 100.032C131.006 99.7052 130.864 99.4563 130.579 99.2857C130.295 99.1008 129.84 98.9515 129.214 98.8377L128.617 98.7311C127.877 98.5889 127.202 98.3969 126.591 98.1552C125.979 97.8992 125.488 97.5508 125.119 97.11C124.749 96.6691 124.564 96.1003 124.564 95.4035C124.564 94.3512 124.948 93.5477 125.716 92.9931C126.484 92.4243 127.494 92.1399 128.745 92.1399C129.925 92.1399 130.906 92.403 131.689 92.9292C132.471 93.4553 132.983 94.145 133.224 94.9982L130.729 95.7661C130.615 95.2258 130.38 94.8418 130.025 94.6143C129.683 94.3868 129.257 94.273 128.745 94.273C128.233 94.273 127.842 94.3654 127.572 94.5503C127.302 94.7209 127.166 94.9627 127.166 95.2755C127.166 95.6168 127.309 95.8728 127.593 96.0434C127.877 96.1999 128.261 96.3207 128.745 96.4061L129.342 96.5127C130.139 96.6549 130.857 96.8469 131.497 97.0886C132.151 97.3162 132.663 97.6503 133.032 98.0912C133.416 98.5178 133.608 99.1008 133.608 99.8403C133.608 100.949 133.203 101.81 132.392 102.421C131.596 103.019 130.522 103.317 129.172 103.317ZM142.275 103.019V94.6569H139.588V92.4386H142.275V90.4761C142.275 89.7509 142.489 89.175 142.915 88.7483C143.356 88.3075 143.925 88.0871 144.622 88.0871H147.395V90.3055H145.56C145.162 90.3055 144.963 90.5188 144.963 90.9454V92.4386H147.736V94.6569H144.963V103.019H142.275ZM149.39 103.019V92.4386H152.035V93.6331H152.419C152.576 93.2065 152.832 92.8936 153.187 92.6945C153.557 92.4954 153.983 92.3959 154.467 92.3959H155.747V94.7849H154.424C153.742 94.7849 153.18 94.9698 152.739 95.3395C152.298 95.695 152.078 96.2496 152.078 97.0033V103.019H149.39ZM162.08 103.317C161.028 103.317 160.082 103.104 159.243 102.677C158.404 102.251 157.743 101.632 157.259 100.821C156.776 100.011 156.534 99.0368 156.534 97.8992V97.5579C156.534 96.4203 156.776 95.4462 157.259 94.6356C157.743 93.825 158.404 93.2065 159.243 92.7798C160.082 92.3532 161.028 92.1399 162.08 92.1399C163.132 92.1399 164.078 92.3532 164.917 92.7798C165.756 93.2065 166.417 93.825 166.901 94.6356C167.384 95.4462 167.626 96.4203 167.626 97.5579V97.8992C167.626 99.0368 167.384 100.011 166.901 100.821C166.417 101.632 165.756 102.251 164.917 102.677C164.078 103.104 163.132 103.317 162.08 103.317ZM162.08 100.928C162.905 100.928 163.587 100.665 164.128 100.139C164.668 99.5985 164.938 98.8306 164.938 97.8352V97.6219C164.938 96.6265 164.668 95.8657 164.128 95.3395C163.602 94.7991 162.919 94.529 162.08 94.529C161.255 94.529 160.573 94.7991 160.032 95.3395C159.492 95.8657 159.222 96.6265 159.222 97.6219V97.8352C159.222 98.8306 159.492 99.5985 160.032 100.139C160.573 100.665 161.255 100.928 162.08 100.928ZM169.68 103.019V92.4386H172.325V93.5904H172.709C172.894 93.2349 173.2 92.9292 173.626 92.6732C174.053 92.403 174.615 92.2679 175.311 92.2679C176.065 92.2679 176.669 92.4172 177.125 92.7158C177.58 93.0003 177.928 93.3771 178.17 93.8464H178.554C178.795 93.3913 179.137 93.0145 179.578 92.7158C180.018 92.4172 180.644 92.2679 181.455 92.2679C182.109 92.2679 182.699 92.4101 183.225 92.6945C183.765 92.9647 184.192 93.3842 184.505 93.953C184.832 94.5076 184.996 95.2115 184.996 96.0648V103.019H182.308V96.2567C182.308 95.6737 182.159 95.24 181.86 94.9556C181.561 94.6569 181.142 94.5076 180.601 94.5076C179.99 94.5076 179.514 94.7067 179.172 95.1049C178.845 95.4888 178.682 96.0434 178.682 96.7687V103.019H175.994V96.2567C175.994 95.6737 175.845 95.24 175.546 94.9556C175.247 94.6569 174.828 94.5076 174.288 94.5076C173.676 94.5076 173.2 94.7067 172.858 95.1049C172.531 95.4888 172.368 96.0434 172.368 96.7687V103.019H169.68ZM193.601 107.285V104.938H199.36C199.758 104.938 199.957 104.725 199.957 104.298V101.632H199.573C199.46 101.874 199.282 102.116 199.04 102.357C198.798 102.599 198.471 102.798 198.059 102.955C197.646 103.111 197.12 103.189 196.48 103.189C195.656 103.189 194.93 103.004 194.305 102.635C193.693 102.251 193.217 101.724 192.876 101.056C192.534 100.388 192.364 99.6199 192.364 98.7524V92.4386H195.051V98.5391C195.051 99.3355 195.243 99.9327 195.627 100.331C196.025 100.729 196.587 100.928 197.312 100.928C198.137 100.928 198.777 100.658 199.232 100.118C199.687 99.563 199.915 98.7951 199.915 97.8139V92.4386H202.602V104.896C202.602 105.621 202.389 106.197 201.962 106.623C201.536 107.064 200.967 107.285 200.256 107.285H193.601ZM210.201 103.317C209.148 103.317 208.203 103.104 207.364 102.677C206.525 102.251 205.863 101.632 205.38 100.821C204.896 100.011 204.655 99.0368 204.655 97.8992V97.5579C204.655 96.4203 204.896 95.4462 205.38 94.6356C205.863 93.825 206.525 93.2065 207.364 92.7798C208.203 92.3532 209.148 92.1399 210.201 92.1399C211.253 92.1399 212.198 92.3532 213.037 92.7798C213.877 93.2065 214.538 93.825 215.021 94.6356C215.505 95.4462 215.746 96.4203 215.746 97.5579V97.8992C215.746 99.0368 215.505 100.011 215.021 100.821C214.538 101.632 213.877 102.251 213.037 102.677C212.198 103.104 211.253 103.317 210.201 103.317ZM210.201 100.928C211.025 100.928 211.708 100.665 212.248 100.139C212.789 99.5985 213.059 98.8306 213.059 97.8352V97.6219C213.059 96.6265 212.789 95.8657 212.248 95.3395C211.722 94.7991 211.04 94.529 210.201 94.529C209.376 94.529 208.693 94.7991 208.153 95.3395C207.612 95.8657 207.342 96.6265 207.342 97.6219V97.8352C207.342 98.8306 207.612 99.5985 208.153 100.139C208.693 100.665 209.376 100.928 210.201 100.928ZM217.289 97.7712V97.4299C217.289 96.3207 217.509 95.3751 217.95 94.5929C218.391 93.7966 218.974 93.1922 219.699 92.7798C220.439 92.3532 221.242 92.1399 222.11 92.1399C223.077 92.1399 223.809 92.3106 224.307 92.6519C224.804 92.9931 225.167 93.3487 225.394 93.7184H225.778V92.4386H228.423V104.896C228.423 105.621 228.21 106.197 227.783 106.623C227.357 107.064 226.788 107.285 226.077 107.285H218.995V104.938H225.138C225.537 104.938 225.736 104.725 225.736 104.298V101.547H225.352C225.21 101.774 225.01 102.009 224.755 102.251C224.499 102.478 224.157 102.67 223.731 102.827C223.304 102.983 222.764 103.061 222.11 103.061C221.242 103.061 220.439 102.855 219.699 102.443C218.974 102.016 218.391 101.412 217.95 100.63C217.509 99.8332 217.289 98.8804 217.289 97.7712ZM222.877 100.715C223.702 100.715 224.392 100.452 224.947 99.9256C225.501 99.3995 225.778 98.66 225.778 97.7072V97.4939C225.778 96.5269 225.501 95.7875 224.947 95.2755C224.406 94.7494 223.716 94.4863 222.877 94.4863C222.053 94.4863 221.363 94.7494 220.808 95.2755C220.254 95.7875 219.976 96.5269 219.976 97.4939V97.7072C219.976 98.66 220.254 99.3995 220.808 99.9256C221.363 100.452 222.053 100.715 222.877 100.715ZM234.261 103.317C233.508 103.317 232.832 103.189 232.235 102.933C231.638 102.663 231.161 102.279 230.806 101.781C230.465 101.269 230.294 100.651 230.294 99.9256C230.294 99.2004 230.465 98.596 230.806 98.1125C231.161 97.6148 231.645 97.2451 232.256 97.0033C232.882 96.7473 233.593 96.6194 234.389 96.6194H237.29V96.0221C237.29 95.5244 237.134 95.1191 236.821 94.8063C236.508 94.4792 236.011 94.3156 235.328 94.3156C234.66 94.3156 234.162 94.4721 233.835 94.7849C233.508 95.0836 233.295 95.4746 233.195 95.9581L230.721 95.1262C230.891 94.5858 231.161 94.0952 231.531 93.6544C231.915 93.1993 232.42 92.8367 233.046 92.5665C233.686 92.2821 234.461 92.1399 235.371 92.1399C236.764 92.1399 237.866 92.4883 238.677 93.1851C239.488 93.8819 239.893 94.8916 239.893 96.2141V100.16C239.893 100.587 240.092 100.8 240.49 100.8H241.343V103.019H239.551C239.025 103.019 238.592 102.891 238.25 102.635C237.909 102.379 237.738 102.037 237.738 101.611V101.589H237.333C237.276 101.76 237.148 101.988 236.949 102.272C236.75 102.542 236.437 102.784 236.011 102.997C235.584 103.211 235.001 103.317 234.261 103.317ZM234.731 101.141C235.484 101.141 236.096 100.935 236.565 100.523C237.049 100.096 237.29 99.5345 237.29 98.8377V98.6244H234.581C234.084 98.6244 233.693 98.7311 233.408 98.9444C233.124 99.1577 232.982 99.4563 232.982 99.8403C232.982 100.224 233.131 100.537 233.43 100.779C233.728 101.021 234.162 101.141 234.731 101.141ZM245.326 98.1125V97.6006C245.326 96.8753 245.468 96.2781 245.753 95.8088C246.051 95.3395 246.528 94.9485 247.182 94.6356L247.544 94.465C248.184 94.1663 248.675 93.8464 249.016 93.5051C249.357 93.1638 249.528 92.7087 249.528 92.1399C249.528 91.7275 249.421 91.3791 249.208 91.0947C249.009 90.7961 248.725 90.5686 248.355 90.4121C247.985 90.2557 247.551 90.1775 247.054 90.1775C246.542 90.1775 246.08 90.2628 245.667 90.4335C245.269 90.6041 244.949 90.8601 244.707 91.2014C244.48 91.5427 244.366 91.9693 244.366 92.4812V92.9505H241.593V92.5239C241.593 91.5427 241.835 90.6965 242.318 89.9855C242.802 89.2745 243.456 88.7341 244.281 88.3644C245.106 87.9804 246.03 87.7885 247.054 87.7885C248.063 87.7885 248.959 87.9733 249.741 88.3431C250.538 88.7128 251.163 89.2247 251.618 89.8789C252.074 90.533 252.301 91.2867 252.301 92.1399C252.301 92.9931 252.145 93.6971 251.832 94.2517C251.519 94.792 251.121 95.2329 250.637 95.5742C250.168 95.9012 249.685 96.1856 249.187 96.4274L248.824 96.598C248.568 96.7118 248.39 96.854 248.291 97.0246C248.191 97.1811 248.142 97.4157 248.142 97.7286V98.1125H245.326ZM246.819 103.317C246.25 103.317 245.767 103.132 245.369 102.763C244.985 102.379 244.793 101.888 244.793 101.291C244.793 100.694 244.985 100.21 245.369 99.8403C245.767 99.4563 246.25 99.2644 246.819 99.2644C247.402 99.2644 247.886 99.4563 248.27 99.8403C248.654 100.21 248.846 100.694 248.846 101.291C248.846 101.888 248.654 102.379 248.27 102.763C247.886 103.132 247.402 103.317 246.819 103.317Z" fill="#0E0A0A"/>
<path d="M29.3732 38.3219C28.5472 38.3219 27.8927 38.0932 27.4099 37.6357C26.927 37.1719 26.6855 36.5111 26.6855 35.6533V34.0522C26.6855 33.1944 26.927 32.5368 27.4099 32.0793C27.8927 31.6155 28.5472 31.3836 29.3732 31.3836C30.1928 31.3836 30.825 31.6091 31.2698 32.0602C31.7209 32.505 31.9465 33.1182 31.9465 33.8997V33.9569H30.7075V33.8615C30.7075 33.4676 30.5963 33.1436 30.3739 32.8894C30.1579 32.6353 29.8243 32.5082 29.3732 32.5082C28.9284 32.5082 28.5789 32.6448 28.3248 32.918C28.0706 33.1912 27.9436 33.5629 27.9436 34.0331V35.6724C27.9436 36.1362 28.0706 36.5079 28.3248 36.7875C28.5789 37.0607 28.9284 37.1973 29.3732 37.1973C29.8243 37.1973 30.1579 37.0702 30.3739 36.8161C30.5963 36.5556 30.7075 36.2315 30.7075 35.8439V35.6724H31.9465V35.8058C31.9465 36.5873 31.7209 37.2036 31.2698 37.6548C30.825 38.0995 30.1928 38.3219 29.3732 38.3219ZM35.9451 38.3219C35.1064 38.3219 34.4393 38.0932 33.9437 37.6357C33.4481 37.1719 33.2003 36.5111 33.2003 35.6533V34.0522C33.2003 33.1944 33.4481 32.5368 33.9437 32.0793C34.4393 31.6155 35.1064 31.3836 35.9451 31.3836C36.7838 31.3836 37.451 31.6155 37.9465 32.0793C38.4421 32.5368 38.6899 33.1944 38.6899 34.0522V35.6533C38.6899 36.5111 38.4421 37.1719 37.9465 37.6357C37.451 38.0932 36.7838 38.3219 35.9451 38.3219ZM35.9451 37.1973C36.4153 37.1973 36.7806 37.0607 37.0411 36.7875C37.3016 36.5143 37.4319 36.1489 37.4319 35.6914V34.014C37.4319 33.5566 37.3016 33.1912 37.0411 32.918C36.7806 32.6448 36.4153 32.5082 35.9451 32.5082C35.4813 32.5082 35.1159 32.6448 34.8491 32.918C34.5886 33.1912 34.4583 33.5566 34.4583 34.014V35.6914C34.4583 36.1489 34.5886 36.5143 34.8491 36.7875C35.1159 37.0607 35.4813 37.1973 35.9451 37.1973ZM40.1746 38.1885V31.517H42.5668L43.8916 37.3307H44.0632V31.517H45.3022V38.1885H42.9099L41.5852 32.3748H41.4136V38.1885H40.1746ZM48.4847 38.1885V32.6607H46.5404V31.517H51.687V32.6607H49.7427V38.1885H48.4847ZM52.9249 38.1885V31.517H57.2137V32.6607H54.183V34.2523H56.9469V35.396H54.183V37.0448H57.2709V38.1885H52.9249ZM58.5834 38.1885V31.517H60.9756L62.3004 37.3307H62.4719V31.517H63.7109V38.1885H61.3187L59.9939 32.3748H59.8224V38.1885H58.5834ZM66.8934 38.1885V32.6607H64.9491V31.517H70.0957V32.6607H68.1514V38.1885H66.8934ZM73.8463 38.1885V31.517H75.1043V38.1885H73.8463ZM76.5498 38.1885V37.0829H77.4267V32.6226H76.5498V31.517H79.2947C80.1906 31.517 80.8704 31.7457 81.3343 32.2032C81.8044 32.6543 82.0395 33.3278 82.0395 34.2237V35.4818C82.0395 36.3776 81.8044 37.0543 81.3343 37.5118C80.8704 37.9629 80.1906 38.1885 79.2947 38.1885H76.5498ZM78.6847 37.0448H79.3137C79.822 37.0448 80.1937 36.9114 80.4288 36.6445C80.6639 36.3776 80.7815 36.0028 80.7815 35.5199V34.1856C80.7815 33.6963 80.6639 33.3215 80.4288 33.061C80.1937 32.7941 79.822 32.6607 79.3137 32.6607H78.6847V37.0448ZM83.4693 38.1885V31.517H87.7581V32.6607H84.7273V34.2523H87.4912V35.396H84.7273V37.0448H87.8153V38.1885H83.4693ZM88.6703 38.1885L90.4239 31.517H92.616L94.3696 38.1885H93.0735L92.7113 36.7208H90.3286L89.9664 38.1885H88.6703ZM90.6241 35.558H92.4158L91.6057 32.308H91.4342L90.6241 35.558Z" fill="#878787"/>
<defs>
<clipPath id="clip0_2548_1468">
<rect width="11.1964" height="11.1964" fill="white" transform="translate(203.449 356.224)"/>
</clipPath>
<clipPath id="clip1_2548_1468">
<rect width="11.9134" height="11.9134" fill="white" transform="translate(133.43 238.718)"/>
</clipPath>
<clipPath id="clip2_2548_1468">
<rect width="11.9154" height="11.9154" fill="white" transform="translate(277.577 238.719)"/>
</clipPath>
</defs>
</svg>
