<svg width="490" height="260" viewBox="0 0 490 260" fill="none" xmlns="http://www.w3.org/2000/svg">
<rect x="1.25" y="1.25" width="487.5" height="257.5" rx="10.75" fill="#F3F3F3" stroke="#0E0A0A" stroke-width="2.5"/>
<rect width="220" height="200" rx="8" transform="matrix(1 0 0 -1 240 230)" fill="white"/>
<path d="M407.367 62.2198L404.317 65.4395L401.475 62.4395L396 68.2198L397.005 69.2803L401.475 64.5605L404.317 67.5605L408.371 63.2802L410 65V60.5H405.738L407.367 62.2198Z" fill="#228252"/>
<line x1="270.5" y1="110.5" x2="270.5" y2="199.5" stroke="#B2B5B9" stroke-linecap="round" stroke-dasharray="4 4"/>
<line x1="296.5" y1="110.5" x2="296.5" y2="199.5" stroke="#B2B5B9" stroke-linecap="round" stroke-dasharray="4 4"/>
<line x1="322.5" y1="110.5" x2="322.5" y2="199.5" stroke="#B2B5B9" stroke-linecap="round" stroke-dasharray="4 4"/>
<line x1="348.5" y1="110.5" x2="348.5" y2="199.5" stroke="#B2B5B9" stroke-linecap="round" stroke-dasharray="4 4"/>
<line x1="374.5" y1="110.5" x2="374.5" y2="199.5" stroke="#B2B5B9" stroke-linecap="round" stroke-dasharray="4 4"/>
<line x1="400.5" y1="110.5" x2="400.5" y2="199.5" stroke="#B2B5B9" stroke-linecap="round" stroke-dasharray="4 4"/>
<line x1="426.5" y1="110.5" x2="426.5" y2="199.5" stroke="#B2B5B9" stroke-linecap="round" stroke-dasharray="4 4"/>
<path opacity="0.75" d="M264.032 68.168C263 68.168 262.18 67.88 261.572 67.304C260.964 66.72 260.66 65.88 260.66 64.784V62.816C260.66 61.72 260.964 60.884 261.572 60.308C262.18 59.724 263 59.432 264.032 59.432C265.064 59.432 265.884 59.724 266.492 60.308C267.108 60.884 267.416 61.72 267.416 62.816V64.784C267.416 65.88 267.108 66.72 266.492 67.304C265.884 67.88 265.064 68.168 264.032 68.168ZM264.032 67.004C264.696 67.004 265.208 66.812 265.568 66.428C265.928 66.036 266.108 65.504 266.108 64.832V62.768C266.108 62.096 265.928 61.568 265.568 61.184C265.208 60.792 264.696 60.596 264.032 60.596C263.384 60.596 262.876 60.792 262.508 61.184C262.14 61.568 261.956 62.096 261.956 62.768V64.832C261.956 65.504 262.14 66.036 262.508 66.428C262.876 66.812 263.384 67.004 264.032 67.004ZM268.746 68V62.084H269.958V62.78H270.15C270.246 62.532 270.398 62.352 270.606 62.24C270.822 62.12 271.086 62.06 271.398 62.06H272.106V63.176H271.35C270.95 63.176 270.622 63.288 270.366 63.512C270.11 63.728 269.982 64.064 269.982 64.52V68H268.746ZM272.648 65.072V64.892C272.648 64.268 272.772 63.736 273.02 63.296C273.276 62.856 273.612 62.516 274.028 62.276C274.444 62.036 274.9 61.916 275.396 61.916C275.972 61.916 276.412 62.024 276.716 62.24C277.028 62.456 277.256 62.688 277.4 62.936H277.592V62.084H278.792V69.212C278.792 69.572 278.684 69.86 278.468 70.076C278.26 70.292 277.972 70.4 277.604 70.4H273.62V69.32H277.22C277.452 69.32 277.568 69.2 277.568 68.96V67.076H277.376C277.288 67.22 277.164 67.368 277.004 67.52C276.844 67.672 276.632 67.796 276.368 67.892C276.112 67.988 275.788 68.036 275.396 68.036C274.9 68.036 274.44 67.92 274.016 67.688C273.6 67.448 273.268 67.108 273.02 66.668C272.772 66.22 272.648 65.688 272.648 65.072ZM275.732 66.956C276.268 66.956 276.708 66.788 277.052 66.452C277.404 66.108 277.58 65.636 277.58 65.036V64.928C277.58 64.312 277.408 63.84 277.064 63.512C276.72 63.176 276.276 63.008 275.732 63.008C275.204 63.008 274.764 63.176 274.412 63.512C274.068 63.84 273.896 64.312 273.896 64.928V65.036C273.896 65.636 274.068 66.108 274.412 66.452C274.764 66.788 275.204 66.956 275.732 66.956ZM282.208 68.168C281.784 68.168 281.404 68.096 281.068 67.952C280.74 67.808 280.476 67.596 280.276 67.316C280.084 67.036 279.988 66.696 279.988 66.296C279.988 65.888 280.084 65.552 280.276 65.288C280.476 65.016 280.744 64.812 281.08 64.676C281.424 64.54 281.812 64.472 282.244 64.472H284.044V64.088C284.044 63.744 283.94 63.468 283.732 63.26C283.524 63.052 283.204 62.948 282.772 62.948C282.348 62.948 282.024 63.048 281.8 63.248C281.576 63.448 281.428 63.708 281.356 64.028L280.204 63.656C280.3 63.336 280.452 63.048 280.66 62.792C280.876 62.528 281.16 62.316 281.512 62.156C281.864 61.996 282.288 61.916 282.784 61.916C283.552 61.916 284.156 62.112 284.596 62.504C285.036 62.896 285.256 63.452 285.256 64.172V66.608C285.256 66.848 285.368 66.968 285.592 66.968H286.096V68H285.172C284.892 68 284.664 67.928 284.488 67.784C284.312 67.64 284.224 67.444 284.224 67.196V67.16H284.044C283.98 67.28 283.884 67.42 283.756 67.58C283.628 67.74 283.44 67.88 283.192 68C282.944 68.112 282.616 68.168 282.208 68.168ZM282.388 67.148C282.884 67.148 283.284 67.008 283.588 66.728C283.892 66.44 284.044 66.048 284.044 65.552V65.432H282.316C281.988 65.432 281.724 65.504 281.524 65.648C281.324 65.784 281.224 65.988 281.224 66.26C281.224 66.532 281.328 66.748 281.536 66.908C281.744 67.068 282.028 67.148 282.388 67.148ZM287.057 68V62.084H288.269V62.972H288.461C288.573 62.732 288.773 62.508 289.061 62.3C289.349 62.092 289.777 61.988 290.345 61.988C290.793 61.988 291.189 62.088 291.533 62.288C291.885 62.488 292.161 62.772 292.361 63.14C292.561 63.5 292.661 63.936 292.661 64.448V68H291.425V64.544C291.425 64.032 291.297 63.656 291.041 63.416C290.785 63.168 290.433 63.044 289.985 63.044C289.473 63.044 289.061 63.212 288.749 63.548C288.445 63.884 288.293 64.372 288.293 65.012V68H287.057ZM294.2 68V62.084H295.436V68H294.2ZM294.824 61.28C294.584 61.28 294.38 61.204 294.212 61.052C294.052 60.892 293.972 60.688 293.972 60.44C293.972 60.192 294.052 59.992 294.212 59.84C294.38 59.68 294.584 59.6 294.824 59.6C295.072 59.6 295.276 59.68 295.436 59.84C295.596 59.992 295.676 60.192 295.676 60.44C295.676 60.688 295.596 60.892 295.436 61.052C295.276 61.204 295.072 61.28 294.824 61.28ZM299.779 68.168C299.211 68.168 298.695 68.048 298.231 67.808C297.775 67.568 297.411 67.22 297.139 66.764C296.875 66.308 296.743 65.76 296.743 65.12V64.964C296.743 64.324 296.875 63.78 297.139 63.332C297.411 62.876 297.775 62.528 298.231 62.288C298.695 62.04 299.211 61.916 299.779 61.916C300.347 61.916 300.831 62.02 301.231 62.228C301.631 62.436 301.951 62.712 302.191 63.056C302.439 63.4 302.599 63.78 302.671 64.196L301.471 64.448C301.431 64.184 301.347 63.944 301.219 63.728C301.091 63.512 300.911 63.34 300.679 63.212C300.447 63.084 300.155 63.02 299.803 63.02C299.459 63.02 299.147 63.1 298.867 63.26C298.595 63.412 298.379 63.636 298.219 63.932C298.059 64.22 297.979 64.572 297.979 64.988V65.096C297.979 65.512 298.059 65.868 298.219 66.164C298.379 66.46 298.595 66.684 298.867 66.836C299.147 66.988 299.459 67.064 299.803 67.064C300.323 67.064 300.719 66.932 300.991 66.668C301.263 66.396 301.435 66.052 301.507 65.636L302.707 65.912C302.611 66.32 302.439 66.696 302.191 67.04C301.951 67.384 301.631 67.66 301.231 67.868C300.831 68.068 300.347 68.168 299.779 68.168ZM308.931 68C308.571 68 308.283 67.892 308.067 67.676C307.859 67.46 307.755 67.172 307.755 66.812V63.128H306.123V62.084H307.755V60.128H308.991V62.084H310.755V63.128H308.991V66.596C308.991 66.836 309.103 66.956 309.327 66.956H310.563V68H308.931ZM311.967 68V62.084H313.179V62.78H313.371C313.467 62.532 313.619 62.352 313.827 62.24C314.043 62.12 314.307 62.06 314.619 62.06H315.327V63.176H314.571C314.171 63.176 313.843 63.288 313.587 63.512C313.331 63.728 313.203 64.064 313.203 64.52V68H311.967ZM318.039 68.168C317.615 68.168 317.235 68.096 316.899 67.952C316.571 67.808 316.307 67.596 316.107 67.316C315.915 67.036 315.819 66.696 315.819 66.296C315.819 65.888 315.915 65.552 316.107 65.288C316.307 65.016 316.575 64.812 316.911 64.676C317.255 64.54 317.643 64.472 318.075 64.472H319.875V64.088C319.875 63.744 319.771 63.468 319.563 63.26C319.355 63.052 319.035 62.948 318.603 62.948C318.179 62.948 317.855 63.048 317.631 63.248C317.407 63.448 317.259 63.708 317.187 64.028L316.035 63.656C316.131 63.336 316.283 63.048 316.491 62.792C316.707 62.528 316.991 62.316 317.343 62.156C317.695 61.996 318.119 61.916 318.615 61.916C319.383 61.916 319.987 62.112 320.427 62.504C320.867 62.896 321.087 63.452 321.087 64.172V66.608C321.087 66.848 321.199 66.968 321.423 66.968H321.927V68H321.003C320.723 68 320.495 67.928 320.319 67.784C320.143 67.64 320.055 67.444 320.055 67.196V67.16H319.875C319.811 67.28 319.715 67.42 319.587 67.58C319.459 67.74 319.271 67.88 319.023 68C318.775 68.112 318.447 68.168 318.039 68.168ZM318.219 67.148C318.715 67.148 319.115 67.008 319.419 66.728C319.723 66.44 319.875 66.048 319.875 65.552V65.432H318.147C317.819 65.432 317.555 65.504 317.355 65.648C317.155 65.784 317.055 65.988 317.055 66.26C317.055 66.532 317.159 66.748 317.367 66.908C317.575 67.068 317.859 67.148 318.219 67.148ZM327.435 68V63.128H326.115V62.084H327.435V60.788C327.435 60.428 327.539 60.14 327.747 59.924C327.963 59.708 328.255 59.6 328.623 59.6H330.063V60.644H329.019C328.787 60.644 328.671 60.764 328.671 61.004V62.084H331.323V63.128H328.671V68H327.435ZM323.547 68V63.128H321.891V62.084H323.547V60.788C323.547 60.428 323.655 60.14 323.871 59.924C324.087 59.708 324.375 59.6 324.735 59.6H326.259V60.644H325.131C324.899 60.644 324.783 60.764 324.783 61.004V62.084H326.115V63.128H324.783V68H323.547ZM331.323 68V62.084H332.559V68H331.323ZM331.947 61.316C331.707 61.316 331.503 61.24 331.335 61.088C331.175 60.928 331.095 60.724 331.095 60.476C331.095 60.22 331.175 60.016 331.335 59.864C331.503 59.712 331.707 59.636 331.947 59.636C332.187 59.636 332.387 59.712 332.547 59.864C332.707 60.016 332.787 60.22 332.787 60.476C332.787 60.724 332.707 60.928 332.547 61.088C332.387 61.24 332.187 61.316 331.947 61.316ZM336.893 68.168C336.325 68.168 335.809 68.048 335.345 67.808C334.889 67.568 334.525 67.22 334.253 66.764C333.989 66.308 333.857 65.76 333.857 65.12V64.964C333.857 64.324 333.989 63.78 334.253 63.332C334.525 62.876 334.889 62.528 335.345 62.288C335.809 62.04 336.325 61.916 336.893 61.916C337.461 61.916 337.945 62.02 338.345 62.228C338.745 62.436 339.065 62.712 339.305 63.056C339.553 63.4 339.713 63.78 339.785 64.196L338.585 64.448C338.545 64.184 338.461 63.944 338.333 63.728C338.205 63.512 338.025 63.34 337.793 63.212C337.561 63.084 337.269 63.02 336.917 63.02C336.573 63.02 336.261 63.1 335.981 63.26C335.709 63.412 335.493 63.636 335.333 63.932C335.173 64.22 335.093 64.572 335.093 64.988V65.096C335.093 65.512 335.173 65.868 335.333 66.164C335.493 66.46 335.709 66.684 335.981 66.836C336.261 66.988 336.573 67.064 336.917 67.064C337.437 67.064 337.833 66.932 338.105 66.668C338.377 66.396 338.549 66.052 338.621 65.636L339.821 65.912C339.725 66.32 339.553 66.696 339.305 67.04C339.065 67.384 338.745 67.66 338.345 67.868C337.945 68.068 337.461 68.168 336.893 68.168Z" fill="#0E0A0A"/>
<path d="M417.464 68V66.992C417.464 66.408 417.56 65.924 417.752 65.54C417.944 65.148 418.22 64.828 418.58 64.58C418.948 64.324 419.396 64.116 419.924 63.956L420.728 63.704C421.024 63.608 421.272 63.492 421.472 63.356C421.672 63.212 421.824 63.04 421.928 62.84C422.04 62.64 422.096 62.412 422.096 62.156V62.108C422.096 61.708 421.96 61.392 421.688 61.16C421.416 60.92 421.044 60.8 420.572 60.8C420.108 60.8 419.732 60.928 419.444 61.184C419.164 61.432 419.024 61.792 419.024 62.264V62.48H417.488V62.288C417.488 61.68 417.624 61.164 417.896 60.74C418.168 60.316 418.536 59.992 419 59.768C419.472 59.544 419.996 59.432 420.572 59.432C421.148 59.432 421.668 59.544 422.132 59.768C422.596 59.984 422.96 60.292 423.224 60.692C423.496 61.084 423.632 61.548 423.632 62.084V62.204C423.632 62.74 423.52 63.196 423.296 63.572C423.08 63.94 422.784 64.244 422.408 64.484C422.032 64.716 421.604 64.908 421.124 65.06L420.356 65.3C420.012 65.404 419.744 65.52 419.552 65.648C419.36 65.768 419.224 65.904 419.144 66.056C419.072 66.2 419.036 66.376 419.036 66.584V66.632H423.56V68H417.464ZM427.493 68.168C426.861 68.168 426.301 68.056 425.813 67.832C425.325 67.608 424.941 67.288 424.661 66.872C424.389 66.448 424.253 65.948 424.253 65.372V65.156H425.789V65.324C425.789 65.772 425.945 66.132 426.257 66.404C426.569 66.668 426.981 66.8 427.493 66.8C428.013 66.8 428.413 66.676 428.693 66.428C428.981 66.18 429.125 65.868 429.125 65.492V65.372C429.125 65.116 429.061 64.908 428.933 64.748C428.805 64.588 428.633 64.472 428.417 64.4C428.201 64.32 427.957 64.28 427.685 64.28H426.005V62.6L428.717 61.16V60.968H424.469V59.6H430.421V61.64L427.889 62.984V63.176H428.333C428.709 63.176 429.073 63.252 429.425 63.404C429.785 63.556 430.081 63.792 430.313 64.112C430.545 64.424 430.661 64.832 430.661 65.336V65.48C430.661 66.024 430.529 66.5 430.265 66.908C430.001 67.308 429.629 67.62 429.149 67.844C428.677 68.06 428.125 68.168 427.493 68.168ZM432.682 68.156L431.77 67.424L438.226 59.444L439.138 60.176L432.682 68.156ZM437.746 68.12C437.138 68.12 436.662 67.96 436.318 67.64C435.974 67.312 435.802 66.868 435.802 66.308V66.224C435.802 65.656 435.974 65.212 436.318 64.892C436.662 64.564 437.138 64.4 437.746 64.4C438.338 64.4 438.81 64.564 439.162 64.892C439.514 65.212 439.69 65.656 439.69 66.224V66.308C439.69 66.868 439.518 67.312 439.174 67.64C438.83 67.96 438.354 68.12 437.746 68.12ZM437.746 67.136C437.978 67.136 438.158 67.064 438.286 66.92C438.422 66.776 438.49 66.588 438.49 66.356V66.164C438.49 65.932 438.422 65.744 438.286 65.6C438.158 65.456 437.978 65.384 437.746 65.384C437.514 65.384 437.33 65.456 437.194 65.6C437.066 65.744 437.002 65.932 437.002 66.164V66.356C437.002 66.588 437.066 66.776 437.194 66.92C437.33 67.064 437.514 67.136 437.746 67.136ZM433.162 63.2C432.554 63.2 432.078 63.04 431.734 62.72C431.39 62.392 431.218 61.948 431.218 61.388V61.304C431.218 60.736 431.39 60.292 431.734 59.972C432.078 59.644 432.554 59.48 433.162 59.48C433.754 59.48 434.226 59.644 434.578 59.972C434.93 60.292 435.106 60.736 435.106 61.304V61.388C435.106 61.948 434.934 62.392 434.59 62.72C434.246 63.04 433.77 63.2 433.162 63.2ZM433.162 62.216C433.394 62.216 433.574 62.144 433.702 62C433.838 61.856 433.906 61.668 433.906 61.436V61.244C433.906 61.012 433.838 60.824 433.702 60.68C433.574 60.536 433.394 60.464 433.162 60.464C432.93 60.464 432.746 60.536 432.61 60.68C432.482 60.824 432.418 61.012 432.418 61.244V61.436C432.418 61.668 432.482 61.856 432.61 62C432.746 62.144 432.93 62.216 433.162 62.216Z" fill="#0E0A0A"/>
<path d="M430 114.244C430 114.244 400.354 104 394.611 133.555C391.803 148 381.684 174 369.688 161.629C361.5 153.183 358.583 126.249 347.766 127.705C330.501 130.03 337.143 180.433 319.844 180.433C304.476 180.433 309.045 151.142 294.922 147.637C273.654 142.359 270 200 270 200" stroke="#228252" stroke-width="2" stroke-linecap="round"/>
<circle cx="348" cy="128" r="5" fill="white" stroke="#228252" stroke-width="2"/>
<path d="M36.76 49.28C35 49.28 33.6 48.8 32.56 47.84C31.52 46.8667 31 45.48 31 43.68V40.32C31 38.52 31.52 37.14 32.56 36.18C33.6 35.2067 35 34.72 36.76 34.72C38.52 34.72 39.92 35.2067 40.96 36.18C42 37.14 42.52 38.52 42.52 40.32V43.68C42.52 45.48 42 46.8667 40.96 47.84C39.92 48.8 38.52 49.28 36.76 49.28ZM36.76 46.92C37.7467 46.92 38.5133 46.6333 39.06 46.06C39.6067 45.4867 39.88 44.72 39.88 43.76V40.24C39.88 39.28 39.6067 38.5133 39.06 37.94C38.5133 37.3667 37.7467 37.08 36.76 37.08C35.7867 37.08 35.02 37.3667 34.46 37.94C33.9133 38.5133 33.64 39.28 33.64 40.24V43.76C33.64 44.72 33.9133 45.4867 34.46 46.06C35.02 46.6333 35.7867 46.92 36.76 46.92ZM44.5156 49V39.08H46.9956V40.2H47.3556C47.5023 39.8 47.7423 39.5067 48.0756 39.32C48.4223 39.1333 48.8223 39.04 49.2756 39.04H50.4756V41.28H49.2356C48.5956 41.28 48.069 41.4533 47.6556 41.8C47.2423 42.1333 47.0356 42.6533 47.0356 43.36V49H44.5156ZM51.2138 44.08V43.76C51.2138 42.72 51.4204 41.8333 51.8338 41.1C52.2471 40.3533 52.7938 39.7867 53.4738 39.4C54.1671 39 54.9204 38.8 55.7338 38.8C56.6404 38.8 57.3271 38.96 57.7938 39.28C58.2604 39.6 58.6004 39.9333 58.8138 40.28H59.1738V39.08H61.6538V50.76C61.6538 51.44 61.4538 51.98 61.0538 52.38C60.6538 52.7933 60.1204 53 59.4538 53H52.8138V50.8H58.5738C58.9471 50.8 59.1338 50.6 59.1338 50.2V47.62H58.7738C58.6404 47.8333 58.4538 48.0533 58.2138 48.28C57.9738 48.4933 57.6538 48.6733 57.2538 48.82C56.8538 48.9667 56.3471 49.04 55.7338 49.04C54.9204 49.04 54.1671 48.8467 53.4738 48.46C52.7938 48.06 52.2471 47.4933 51.8338 46.76C51.4204 46.0133 51.2138 45.12 51.2138 44.08ZM56.4538 46.84C57.2271 46.84 57.8738 46.5933 58.3938 46.1C58.9138 45.6067 59.1738 44.9133 59.1738 44.02V43.82C59.1738 42.9133 58.9138 42.22 58.3938 41.74C57.8871 41.2467 57.2404 41 56.4538 41C55.6804 41 55.0338 41.2467 54.5138 41.74C53.9938 42.22 53.7338 42.9133 53.7338 43.82V44.02C53.7338 44.9133 53.9938 45.6067 54.5138 46.1C55.0338 46.5933 55.6804 46.84 56.4538 46.84ZM67.1277 49.28C66.421 49.28 65.7877 49.16 65.2277 48.92C64.6677 48.6667 64.221 48.3067 63.8877 47.84C63.5677 47.36 63.4077 46.78 63.4077 46.1C63.4077 45.42 63.5677 44.8533 63.8877 44.4C64.221 43.9333 64.6743 43.5867 65.2477 43.36C65.8343 43.12 66.501 43 67.2477 43H69.9677V42.44C69.9677 41.9733 69.821 41.5933 69.5277 41.3C69.2343 40.9933 68.7677 40.84 68.1277 40.84C67.501 40.84 67.0343 40.9867 66.7277 41.28C66.421 41.56 66.221 41.9267 66.1277 42.38L63.8077 41.6C63.9677 41.0933 64.221 40.6333 64.5677 40.22C64.9277 39.7933 65.401 39.4533 65.9877 39.2C66.5877 38.9333 67.3143 38.8 68.1677 38.8C69.4743 38.8 70.5077 39.1267 71.2677 39.78C72.0277 40.4333 72.4077 41.38 72.4077 42.62V46.32C72.4077 46.72 72.5943 46.92 72.9677 46.92H73.7677V49H72.0877C71.5943 49 71.1877 48.88 70.8677 48.64C70.5477 48.4 70.3877 48.08 70.3877 47.68V47.66H70.0077C69.9543 47.82 69.8343 48.0333 69.6477 48.3C69.461 48.5533 69.1677 48.78 68.7677 48.98C68.3677 49.18 67.821 49.28 67.1277 49.28ZM67.5677 47.24C68.2743 47.24 68.8477 47.0467 69.2877 46.66C69.741 46.26 69.9677 45.7333 69.9677 45.08V44.88H67.4277C66.961 44.88 66.5943 44.98 66.3277 45.18C66.061 45.38 65.9277 45.66 65.9277 46.02C65.9277 46.38 66.0677 46.6733 66.3477 46.9C66.6277 47.1267 67.0343 47.24 67.5677 47.24ZM75.2102 49V39.08H77.6902V40.38H78.0502C78.2102 40.0333 78.5102 39.7067 78.9502 39.4C79.3902 39.08 80.0568 38.92 80.9502 38.92C81.7235 38.92 82.3968 39.1 82.9702 39.46C83.5568 39.8067 84.0102 40.2933 84.3302 40.92C84.6502 41.5333 84.8102 42.2533 84.8102 43.08V49H82.2902V43.28C82.2902 42.5333 82.1035 41.9733 81.7302 41.6C81.3702 41.2267 80.8502 41.04 80.1702 41.04C79.3968 41.04 78.7968 41.3 78.3702 41.82C77.9435 42.3267 77.7302 43.04 77.7302 43.96V49H75.2102ZM87.1344 49V39.08H89.6544V49H87.1344ZM88.3944 37.92C87.941 37.92 87.5544 37.7733 87.2344 37.48C86.9277 37.1867 86.7744 36.8 86.7744 36.32C86.7744 35.84 86.9277 35.4533 87.2344 35.16C87.5544 34.8667 87.941 34.72 88.3944 34.72C88.861 34.72 89.2477 34.8667 89.5544 35.16C89.861 35.4533 90.0144 35.84 90.0144 36.32C90.0144 36.8 89.861 37.1867 89.5544 37.48C89.2477 37.7733 88.861 37.92 88.3944 37.92ZM96.7069 49.28C95.7469 49.28 94.8735 49.08 94.0869 48.68C93.3135 48.28 92.7002 47.7 92.2469 46.94C91.7935 46.18 91.5669 45.26 91.5669 44.18V43.9C91.5669 42.82 91.7935 41.9 92.2469 41.14C92.7002 40.38 93.3135 39.8 94.0869 39.4C94.8735 39 95.7469 38.8 96.7069 38.8C97.6535 38.8 98.4669 38.9667 99.1469 39.3C99.8269 39.6333 100.374 40.0933 100.787 40.68C101.214 41.2533 101.494 41.9067 101.627 42.64L99.1869 43.16C99.1335 42.76 99.0135 42.4 98.8269 42.08C98.6402 41.76 98.3735 41.5067 98.0269 41.32C97.6935 41.1333 97.2735 41.04 96.7669 41.04C96.2602 41.04 95.8002 41.1533 95.3869 41.38C94.9869 41.5933 94.6669 41.92 94.4269 42.36C94.2002 42.7867 94.0869 43.3133 94.0869 43.94V44.14C94.0869 44.7667 94.2002 45.3 94.4269 45.74C94.6669 46.1667 94.9869 46.4933 95.3869 46.72C95.8002 46.9333 96.2602 47.04 96.7669 47.04C97.5269 47.04 98.1002 46.8467 98.4869 46.46C98.8869 46.06 99.1402 45.54 99.2469 44.9L101.687 45.48C101.514 46.1867 101.214 46.8333 100.787 47.42C100.374 47.9933 99.8269 48.4467 99.1469 48.78C98.4669 49.1133 97.6535 49.28 96.7069 49.28ZM111.844 49C111.19 49 110.657 48.8 110.244 48.4C109.844 47.9867 109.644 47.44 109.644 46.76V41.16H107.164V39.08H109.644V36H112.164V39.08H114.884V41.16H112.164V46.32C112.164 46.72 112.35 46.92 112.724 46.92H114.644V49H111.844ZM116.765 49V39.08H119.245V40.2H119.605C119.752 39.8 119.992 39.5067 120.325 39.32C120.672 39.1333 121.072 39.04 121.525 39.04H122.725V41.28H121.485C120.845 41.28 120.318 41.4533 119.905 41.8C119.492 42.1333 119.285 42.6533 119.285 43.36V49H116.765ZM127.14 49.28C126.433 49.28 125.8 49.16 125.24 48.92C124.68 48.6667 124.233 48.3067 123.9 47.84C123.58 47.36 123.42 46.78 123.42 46.1C123.42 45.42 123.58 44.8533 123.9 44.4C124.233 43.9333 124.687 43.5867 125.26 43.36C125.847 43.12 126.513 43 127.26 43H129.98V42.44C129.98 41.9733 129.833 41.5933 129.54 41.3C129.247 40.9933 128.78 40.84 128.14 40.84C127.513 40.84 127.047 40.9867 126.74 41.28C126.433 41.56 126.233 41.9267 126.14 42.38L123.82 41.6C123.98 41.0933 124.233 40.6333 124.58 40.22C124.94 39.7933 125.413 39.4533 126 39.2C126.6 38.9333 127.327 38.8 128.18 38.8C129.487 38.8 130.52 39.1267 131.28 39.78C132.04 40.4333 132.42 41.38 132.42 42.62V46.32C132.42 46.72 132.607 46.92 132.98 46.92H133.78V49H132.1C131.607 49 131.2 48.88 130.88 48.64C130.56 48.4 130.4 48.08 130.4 47.68V47.66H130.02C129.967 47.82 129.847 48.0333 129.66 48.3C129.473 48.5533 129.18 48.78 128.78 48.98C128.38 49.18 127.833 49.28 127.14 49.28ZM127.58 47.24C128.287 47.24 128.86 47.0467 129.3 46.66C129.753 46.26 129.98 45.7333 129.98 45.08V44.88H127.44C126.973 44.88 126.607 44.98 126.34 45.18C126.073 45.38 125.94 45.66 125.94 46.02C125.94 46.38 126.08 46.6733 126.36 46.9C126.64 47.1267 127.047 47.24 127.58 47.24ZM142.66 49V41.16H140.66V39.08H142.66V37.24C142.66 36.56 142.86 36.02 143.26 35.62C143.673 35.2067 144.207 35 144.86 35H147.26V37.08H145.74C145.367 37.08 145.18 37.28 145.18 37.68V39.08H149.18V41.16H145.18V49H142.66ZM136.14 49V41.16H133.62V39.08H136.14V37.24C136.14 36.56 136.34 36.02 136.74 35.62C137.153 35.2067 137.687 35 138.34 35H140.94V37.08H139.22C138.847 37.08 138.66 37.28 138.66 37.68V39.08H140.66V41.16H138.66V49H136.14ZM149.18 49V39.08H151.7V49H149.18ZM150.44 38C149.987 38 149.6 37.8533 149.28 37.56C148.973 37.2667 148.82 36.88 148.82 36.4C148.82 35.92 148.973 35.5333 149.28 35.24C149.6 34.9467 149.987 34.8 150.44 34.8C150.907 34.8 151.293 34.9467 151.6 35.24C151.907 35.5333 152.06 35.92 152.06 36.4C152.06 36.88 151.907 37.2667 151.6 37.56C151.293 37.8533 150.907 38 150.44 38ZM158.76 49.28C157.8 49.28 156.927 49.08 156.14 48.68C155.367 48.28 154.753 47.7 154.3 46.94C153.847 46.18 153.62 45.26 153.62 44.18V43.9C153.62 42.82 153.847 41.9 154.3 41.14C154.753 40.38 155.367 39.8 156.14 39.4C156.927 39 157.8 38.8 158.76 38.8C159.707 38.8 160.52 38.9667 161.2 39.3C161.88 39.6333 162.427 40.0933 162.84 40.68C163.267 41.2533 163.547 41.9067 163.68 42.64L161.24 43.16C161.187 42.76 161.067 42.4 160.88 42.08C160.693 41.76 160.427 41.5067 160.08 41.32C159.747 41.1333 159.327 41.04 158.82 41.04C158.313 41.04 157.853 41.1533 157.44 41.38C157.04 41.5933 156.72 41.92 156.48 42.36C156.253 42.7867 156.14 43.3133 156.14 43.94V44.14C156.14 44.7667 156.253 45.3 156.48 45.74C156.72 46.1667 157.04 46.4933 157.44 46.72C157.853 46.9333 158.313 47.04 158.82 47.04C159.58 47.04 160.153 46.8467 160.54 46.46C160.94 46.06 161.193 45.54 161.3 44.9L163.74 45.48C163.567 46.1867 163.267 46.8333 162.84 47.42C162.427 47.9933 161.88 48.4467 161.2 48.78C160.52 49.1133 159.707 49.28 158.76 49.28Z" fill="#0E0A0A"/>
<path d="M32.016 109V104.968C32.016 102.632 32.4 100.696 33.168 99.16C33.936 97.592 35.04 96.312 36.48 95.32C37.952 94.296 39.744 93.464 41.856 92.824L45.072 91.816C46.256 91.432 47.248 90.968 48.048 90.424C48.848 89.848 49.456 89.16 49.872 88.36C50.32 87.56 50.544 86.648 50.544 85.624V85.432C50.544 83.832 50 82.568 48.912 81.64C47.824 80.68 46.336 80.2 44.448 80.2C42.592 80.2 41.088 80.712 39.936 81.736C38.816 82.728 38.256 84.168 38.256 86.056V86.92H32.112V86.152C32.112 83.72 32.656 81.656 33.744 79.96C34.832 78.264 36.304 76.968 38.16 76.072C40.048 75.176 42.144 74.728 44.448 74.728C46.752 74.728 48.832 75.176 50.688 76.072C52.544 76.936 54 78.168 55.056 79.768C56.144 81.336 56.688 83.192 56.688 85.336V85.816C56.688 87.96 56.24 89.784 55.344 91.288C54.48 92.76 53.296 93.976 51.792 94.936C50.288 95.864 48.576 96.632 46.656 97.24L43.584 98.2C42.208 98.616 41.136 99.08 40.368 99.592C39.6 100.072 39.056 100.616 38.736 101.224C38.448 101.8 38.304 102.504 38.304 103.336V103.528H56.4V109H32.016ZM71.172 109.672C68.644 109.672 66.404 109.224 64.452 108.328C62.5 107.432 60.964 106.152 59.844 104.488C58.756 102.792 58.212 100.792 58.212 98.488V97.624H64.356V98.296C64.356 100.088 64.98 101.528 66.228 102.616C67.476 103.672 69.124 104.2 71.172 104.2C73.252 104.2 74.852 103.704 75.972 102.712C77.124 101.72 77.7 100.472 77.7 98.968V98.488C77.7 97.464 77.444 96.632 76.932 95.992C76.42 95.352 75.732 94.888 74.868 94.6C74.004 94.28 73.028 94.12 71.94 94.12H65.22V87.4L76.068 81.64V80.872H59.076V75.4H82.884V83.56L72.756 88.936V89.704H74.532C76.036 89.704 77.492 90.008 78.9 90.616C80.34 91.224 81.524 92.168 82.452 93.448C83.38 94.696 83.844 96.328 83.844 98.344V98.92C83.844 101.096 83.316 103 82.26 104.632C81.204 106.232 79.716 107.48 77.796 108.376C75.908 109.24 73.7 109.672 71.172 109.672ZM87.6551 116.056V112.792H89.5271C90.9991 112.792 91.7351 112.056 91.7351 110.584V109.048H90.9191C89.6391 109.048 88.5671 108.664 87.7031 107.896C86.8711 107.128 86.4551 106.152 86.4551 104.968C86.4551 103.688 86.8711 102.648 87.7031 101.848C88.5671 101.048 89.6391 100.648 90.9191 100.648C92.2311 100.648 93.3031 101.064 94.1351 101.896C94.9671 102.696 95.3831 103.784 95.3831 105.16V110.68C95.3831 114.264 93.5911 116.056 90.0071 116.056H87.6551ZM98.0685 109V104.968C98.0685 102.632 98.4525 100.696 99.2205 99.16C99.9885 97.592 101.092 96.312 102.532 95.32C104.004 94.296 105.796 93.464 107.908 92.824L111.124 91.816C112.308 91.432 113.3 90.968 114.1 90.424C114.9 89.848 115.508 89.16 115.924 88.36C116.372 87.56 116.596 86.648 116.596 85.624V85.432C116.596 83.832 116.052 82.568 114.964 81.64C113.876 80.68 112.388 80.2 110.5 80.2C108.644 80.2 107.14 80.712 105.988 81.736C104.868 82.728 104.308 84.168 104.308 86.056V86.92H98.1645V86.152C98.1645 83.72 98.7085 81.656 99.7965 79.96C100.884 78.264 102.356 76.968 104.212 76.072C106.1 75.176 108.196 74.728 110.5 74.728C112.804 74.728 114.884 75.176 116.74 76.072C118.596 76.936 120.052 78.168 121.108 79.768C122.196 81.336 122.741 83.192 122.741 85.336V85.816C122.741 87.96 122.292 89.784 121.396 91.288C120.532 92.76 119.348 93.976 117.844 94.936C116.34 95.864 114.628 96.632 112.708 97.24L109.636 98.2C108.26 98.616 107.188 99.08 106.42 99.592C105.652 100.072 105.108 100.616 104.788 101.224C104.5 101.8 104.356 102.504 104.356 103.336V103.528H122.452V109H98.0685ZM137.033 109.672C134.473 109.672 132.201 109.288 130.217 108.52C128.264 107.752 126.728 106.648 125.608 105.208C124.52 103.736 123.976 102.008 123.976 100.024V99.448C123.976 97.912 124.248 96.648 124.792 95.656C125.336 94.632 126.008 93.832 126.808 93.256C127.64 92.68 128.424 92.28 129.161 92.056V91.192C128.424 90.936 127.688 90.52 126.952 89.944C126.216 89.368 125.608 88.6 125.128 87.64C124.68 86.68 124.456 85.528 124.456 84.184V83.608C124.456 81.848 124.968 80.312 125.992 79C127.048 77.656 128.52 76.616 130.408 75.88C132.297 75.112 134.505 74.728 137.033 74.728C139.561 74.728 141.769 75.112 143.657 75.88C145.545 76.616 147.001 77.656 148.025 79C149.081 80.312 149.609 81.848 149.609 83.608V84.184C149.609 85.528 149.369 86.68 148.889 87.64C148.441 88.6 147.849 89.368 147.113 89.944C146.409 90.52 145.673 90.936 144.905 91.192V92.056C145.673 92.28 146.457 92.68 147.257 93.256C148.057 93.832 148.729 94.632 149.273 95.656C149.817 96.648 150.089 97.912 150.089 99.448V100.024C150.089 102.008 149.529 103.736 148.408 105.208C147.321 106.648 145.785 107.752 143.801 108.52C141.849 109.288 139.593 109.672 137.033 109.672ZM137.033 104.2C139.241 104.2 140.937 103.784 142.121 102.952C143.337 102.088 143.945 100.952 143.945 99.544V99.16C143.945 97.752 143.353 96.632 142.168 95.8C141.017 94.936 139.305 94.504 137.033 94.504C134.793 94.504 133.08 94.936 131.896 95.8C130.712 96.632 130.12 97.752 130.12 99.16V99.544C130.12 100.952 130.712 102.088 131.896 102.952C133.112 103.784 134.825 104.2 137.033 104.2ZM137.033 89.032C139.081 89.032 140.665 88.664 141.785 87.928C142.905 87.192 143.465 86.152 143.465 84.808V84.424C143.465 83.08 142.889 82.04 141.737 81.304C140.585 80.568 139.017 80.2 137.033 80.2C135.049 80.2 133.48 80.568 132.329 81.304C131.177 82.04 130.601 83.08 130.601 84.424V84.808C130.601 86.152 131.161 87.192 132.28 87.928C133.401 88.664 134.985 89.032 137.033 89.032ZM164.086 109.672C161.558 109.672 159.318 109.224 157.366 108.328C155.414 107.432 153.878 106.152 152.758 104.488C151.67 102.792 151.126 100.792 151.126 98.488V97.624H157.27V98.296C157.27 100.088 157.894 101.528 159.142 102.616C160.39 103.672 162.038 104.2 164.086 104.2C166.166 104.2 167.766 103.704 168.886 102.712C170.038 101.72 170.614 100.472 170.614 98.968V98.488C170.614 97.464 170.358 96.632 169.846 95.992C169.334 95.352 168.646 94.888 167.782 94.6C166.918 94.28 165.942 94.12 164.854 94.12H158.134V87.4L168.982 81.64V80.872H151.99V75.4H175.798V83.56L165.67 88.936V89.704H167.446C168.95 89.704 170.406 90.008 171.814 90.616C173.254 91.224 174.438 92.168 175.366 93.448C176.294 94.696 176.758 96.328 176.758 98.344V98.92C176.758 101.096 176.23 103 175.174 104.632C174.118 106.232 172.63 107.48 170.71 108.376C168.822 109.24 166.614 109.672 164.086 109.672Z" fill="#0E0A0A"/>
<path d="M36.64 161.28C34.9067 161.28 33.5333 160.8 32.52 159.84C31.5067 158.867 31 157.48 31 155.68V152.32C31 150.52 31.5067 149.14 32.52 148.18C33.5333 147.207 34.9067 146.72 36.64 146.72C38.36 146.72 39.6867 147.193 40.62 148.14C41.5667 149.073 42.04 150.36 42.04 152V152.12H39.44V151.92C39.44 151.093 39.2067 150.413 38.74 149.88C38.2867 149.347 37.5867 149.08 36.64 149.08C35.7067 149.08 34.9733 149.367 34.44 149.94C33.9067 150.513 33.64 151.293 33.64 152.28V155.72C33.64 156.693 33.9067 157.473 34.44 158.06C34.9733 158.633 35.7067 158.92 36.64 158.92C37.5867 158.92 38.2867 158.653 38.74 158.12C39.2067 157.573 39.44 156.893 39.44 156.08V155.72H42.04V156C42.04 157.64 41.5667 158.933 40.62 159.88C39.6867 160.813 38.36 161.28 36.64 161.28ZM46.7577 161V149.4H42.6777V147H53.4777V149.4H49.3977V161H46.7577ZM54.8755 161V147H60.9555C61.8355 147 62.6021 147.153 63.2555 147.46C63.9088 147.767 64.4155 148.2 64.7755 148.76C65.1355 149.32 65.3155 149.98 65.3155 150.74V150.98C65.3155 151.82 65.1155 152.5 64.7155 153.02C64.3155 153.54 63.8221 153.92 63.2355 154.16V154.52C63.7688 154.547 64.1821 154.733 64.4755 155.08C64.7688 155.413 64.9155 155.86 64.9155 156.42V161H62.2755V156.8C62.2755 156.48 62.1888 156.22 62.0155 156.02C61.8555 155.82 61.5821 155.72 61.1955 155.72H57.5155V161H54.8755ZM57.5155 153.32H60.6755C61.3021 153.32 61.7888 153.153 62.1355 152.82C62.4955 152.473 62.6755 152.02 62.6755 151.46V151.26C62.6755 150.7 62.5021 150.253 62.1555 149.92C61.8088 149.573 61.3155 149.4 60.6755 149.4H57.5155V153.32Z" fill="#0E0A0A"/>
<path d="M42.384 221V191.912H41.52L37.008 202.568H30.576L37.44 187.4H48.528V221H42.384ZM51.7991 221V216.968C51.7991 214.632 52.1831 212.696 52.9511 211.16C53.7191 209.592 54.8231 208.312 56.2631 207.32C57.7351 206.296 59.5271 205.464 61.6391 204.824L64.8551 203.816C66.0391 203.432 67.0311 202.968 67.8311 202.424C68.6311 201.848 69.2391 201.16 69.6551 200.36C70.1031 199.56 70.3271 198.648 70.3271 197.624V197.432C70.3271 195.832 69.7831 194.568 68.6951 193.64C67.6071 192.68 66.1191 192.2 64.2311 192.2C62.3751 192.2 60.8711 192.712 59.7191 193.736C58.5991 194.728 58.0391 196.168 58.0391 198.056V198.92H51.8951V198.152C51.8951 195.72 52.4391 193.656 53.5271 191.96C54.6151 190.264 56.0871 188.968 57.9431 188.072C59.8311 187.176 61.9271 186.728 64.2311 186.728C66.5351 186.728 68.6151 187.176 70.4711 188.072C72.3271 188.936 73.7831 190.168 74.8391 191.768C75.9271 193.336 76.4711 195.192 76.4711 197.336V197.816C76.4711 199.96 76.0231 201.784 75.1271 203.288C74.2631 204.76 73.0791 205.976 71.5751 206.936C70.0711 207.864 68.3591 208.632 66.4391 209.24L63.3671 210.2C61.9911 210.616 60.9191 211.08 60.1511 211.592C59.3831 212.072 58.8391 212.616 58.5191 213.224C58.2311 213.8 58.0871 214.504 58.0871 215.336V215.528H76.1831V221H51.7991ZM83.4671 221.624L79.8191 218.696L105.643 186.776L109.291 189.704L83.4671 221.624ZM103.723 221.48C101.291 221.48 99.3871 220.84 98.0111 219.56C96.6351 218.248 95.9471 216.472 95.9471 214.232V213.896C95.9471 211.624 96.6351 209.848 98.0111 208.568C99.3871 207.256 101.291 206.6 103.723 206.6C106.091 206.6 107.979 207.256 109.387 208.568C110.795 209.848 111.499 211.624 111.499 213.896V214.232C111.499 216.472 110.811 218.248 109.435 219.56C108.059 220.84 106.155 221.48 103.723 221.48ZM103.723 217.544C104.651 217.544 105.371 217.256 105.883 216.68C106.427 216.104 106.699 215.352 106.699 214.424V213.656C106.699 212.728 106.427 211.976 105.883 211.4C105.371 210.824 104.651 210.536 103.723 210.536C102.795 210.536 102.059 210.824 101.515 211.4C101.003 211.976 100.747 212.728 100.747 213.656V214.424C100.747 215.352 101.003 216.104 101.515 216.68C102.059 217.256 102.795 217.544 103.723 217.544ZM85.3871 201.8C82.9551 201.8 81.0511 201.16 79.6751 199.88C78.2991 198.568 77.6111 196.792 77.6111 194.552V194.216C77.6111 191.944 78.2991 190.168 79.6751 188.888C81.0511 187.576 82.9551 186.92 85.3871 186.92C87.7551 186.92 89.6431 187.576 91.0511 188.888C92.4591 190.168 93.1631 191.944 93.1631 194.216V194.552C93.1631 196.792 92.4751 198.568 91.0991 199.88C89.7231 201.16 87.8191 201.8 85.3871 201.8ZM85.3871 197.864C86.3151 197.864 87.0351 197.576 87.5471 197C88.0911 196.424 88.3631 195.672 88.3631 194.744V193.976C88.3631 193.048 88.0911 192.296 87.5471 191.72C87.0351 191.144 86.3151 190.856 85.3871 190.856C84.4591 190.856 83.7231 191.144 83.1791 191.72C82.6671 192.296 82.4111 193.048 82.4111 193.976V194.744C82.4111 195.672 82.6671 196.424 83.1791 197C83.7231 197.576 84.4591 197.864 85.3871 197.864Z" fill="#0E0A0A"/>
</svg>
