<svg xmlns:xlink="http://www.w3.org/1999/xlink" xmlns="http://www.w3.org/2000/svg" width="205" height="10" viewBox="0 0 205 10" fill="none">
<path d="M44.6208 2.19835C64.0925 1.88142 83.5749 1.67768 103.057 1.58713C122.54 1.49658 141.842 1.52676 161.229 1.67014C172.242 1.75314 183.266 1.86633 194.279 2.01725L195.773 0.470326C170.631 0.779711 145.499 1.16456 120.367 1.62486C95.2346 2.08516 70.1026 2.62093 44.9706 3.2397C30.8623 3.58681 16.7646 4.93274 2.65633 5.32513C1.82955 5.34777 0.589378 5.49869 0.122989 6.07218C-0.311601 6.60795 0.49398 6.88715 1.16176 6.87206C27.3538 6.39666 53.567 5.36766 79.7695 5.76005C105.972 6.15244 132.154 6.00633 158.303 7.27405C172.994 7.98337 195.784 9.34534 199.187 9.8372C202.59 10.3291 204.444 9.59821 204.868 9.07754C205.334 8.51159 204.465 8.31539 203.829 8.27766C177.743 6.51945 151.593 6.17508 125.423 5.28466C99.2519 4.39423 73.0387 3.94902 46.8361 3.94147C32.1131 3.94147 17.39 5.05348 2.66693 5.32513L1.17236 6.87206C26.2938 6.17028 51.4258 4.56779 76.5578 4.01693C101.69 3.47362 126.822 2.99823 151.954 2.60584C166.062 2.387 180.181 2.18326 194.289 2.0097C195.116 2.00216 196.367 1.8286 196.823 1.26265C197.278 0.696705 196.441 0.470326 195.784 0.46278C176.291 0.206217 156.819 0.0477518 137.337 0.0100219C117.854 -0.027708 98.5523 0.0402057 79.1654 0.228855C68.1522 0.334499 57.1285 0.477872 46.1153 0.658976C45.2885 0.674068 44.0378 0.840079 43.582 1.40603C43.1474 1.94179 43.953 2.22099 44.6208 2.2059V2.19835Z" fill="#16a34a"/>
</svg>