<svg xmlns:xlink="http://www.w3.org/1999/xlink" xmlns="http://www.w3.org/2000/svg" width="80" height="80" viewBox="0 0 80 80" fill="none">
<path d="M53.5247 27.8104C63.2941 19.6322 67.0317 15.4875 65.2554 14.8214C64.3303 14.4884 63.9232 14.5623 62.295 15.3395C59.1495 16.8937 47.7148 26.6632 47.7148 27.8104C47.7148 29.4016 51.5634 29.4386 53.5247 27.8104Z" fill="#16a34a"/>
<path d="M27.8803 28.1066C29.1015 27.2924 29.0275 27.1444 24.2908 22.0007C21.7744 19.2251 19.7023 17.4858 18.185 16.8197C16.1127 15.8946 15.1136 17.1529 15.9277 18.189C22.8846 27.1444 25.771 29.5128 27.8803 28.1066Z" fill="#16a34a"/>
<path d="M60.8147 40.1701C58.5573 39.504 47.012 35.8404 46.1609 35.5074C45.7538 35.3594 45.4578 34.6193 45.3098 33.3611C44.0886 23.9617 42.164 14.3031 41.3128 13.2299C40.6837 12.4158 38.5374 12.6749 37.9453 13.6C37.3533 14.5251 34.6149 23.8877 32.9866 30.6967L31.9138 35.1373C10.8946 41.7983 9.74739 41.6503 19.2578 44.5737L27.6582 47.1641C32.4319 48.6443 32.5426 48.6809 32.8016 49.8651C33.1716 51.5674 35.577 59.8569 36.5021 63.8165C38.4634 72.3277 42.4604 67.073 45.9759 51.2347L46.79 47.6082C47.2341 47.5341 50.0461 47.2751 62.1839 44.6477C64.9593 44.0186 64.1451 41.1322 60.8147 40.1701ZM55.5599 41.9833C55.2639 42.2424 47.1597 44.2037 45.5684 44.2037C43.6442 44.2037 43.2001 45.1288 41.0168 53.8251C39.5736 59.5609 39.4629 59.6715 38.6488 56.3411C37.6497 52.1594 35.614 47.2751 35.355 46.1279C35.1329 45.0918 33.0606 44.3517 25.0305 42.4274C20.9971 41.4653 20.368 41.1322 21.885 40.6882C23.7723 40.1331 32.8386 37.1726 33.8747 37.1726C34.8739 37.1726 35.725 36.4325 36.0211 35.3224L38.9075 24.0727C39.4256 22.1114 39.4259 22.1114 40.8691 29.7716C42.5344 38.3938 42.349 38.0234 45.0134 38.5785C48.3439 39.2816 55.8929 41.6873 55.5599 41.9833Z" fill="#16a34a"/>
<path d="M48.8252 51.8268C48.8252 52.6409 58.5946 62.5214 59.9638 63.0765C62.8502 64.2606 63.5903 62.706 61.296 60.2267C55.1161 53.4547 48.8252 49.2364 48.8252 51.8268Z" fill="#16a34a"/>
<path d="M20.3307 54.1952C13.2257 59.0059 12.4115 60.1161 15.9641 60.1161C17.7033 60.1161 28.6938 52.493 28.3607 51.4938C27.8426 49.9396 25.3633 50.7537 20.3307 54.1952Z" fill="#16a34a"/>
</svg>