<svg width="306" height="248" viewBox="0 0 306 248" fill="none" xmlns="http://www.w3.org/2000/svg">
<rect x="1.25" y="1.25" width="303.5" height="245.5" rx="10.75" fill="#F3F3F3" stroke="#0E0A0A" stroke-width="2.5"/>
<rect x="29" y="29" width="247" height="40" rx="4" fill="white"/>
<circle cx="60" cy="49" r="12.5" fill="#575DFF"/>
<path d="M60.1285 53.668C59.1045 53.668 58.2885 53.38 57.6805 52.804C57.0725 52.22 56.7685 51.384 56.7685 50.296V48.304C56.7685 47.216 57.0725 46.384 57.6805 45.808C58.2885 45.224 59.1045 44.932 60.1285 44.932C61.1525 44.932 61.9405 45.212 62.4925 45.772C63.0525 46.332 63.3325 47.1 63.3325 48.076V48.148H61.9165V48.04C61.9165 47.512 61.7685 47.08 61.4725 46.744C61.1845 46.4 60.7365 46.228 60.1285 46.228C59.5365 46.228 59.0685 46.412 58.7245 46.78C58.3885 47.14 58.2205 47.64 58.2205 48.28V50.32C58.2205 50.952 58.3885 51.452 58.7245 51.82C59.0685 52.188 59.5365 52.372 60.1285 52.372C60.7365 52.372 61.1845 52.204 61.4725 51.868C61.7685 51.524 61.9165 51.088 61.9165 50.56V50.356H63.3325V50.524C63.3325 51.5 63.0525 52.268 62.4925 52.828C61.9405 53.388 61.1525 53.668 60.1285 53.668Z" fill="white"/>
<path d="M87.316 53.182C86.2067 53.182 85.3227 52.87 84.664 52.246C84.0053 51.6133 83.676 50.7077 83.676 49.529V47.371C83.676 46.1923 84.0053 45.291 84.664 44.667C85.3227 44.0343 86.2067 43.718 87.316 43.718C88.4253 43.718 89.279 44.0213 89.877 44.628C90.4837 45.2347 90.787 46.0667 90.787 47.124V47.202H89.253V47.085C89.253 46.513 89.0927 46.045 88.772 45.681C88.46 45.3083 87.9747 45.122 87.316 45.122C86.6747 45.122 86.1677 45.3213 85.795 45.72C85.431 46.11 85.249 46.6517 85.249 47.345V49.555C85.249 50.2397 85.431 50.7813 85.795 51.18C86.1677 51.5787 86.6747 51.778 87.316 51.778C87.9747 51.778 88.46 51.596 88.772 51.232C89.0927 50.8593 89.253 50.387 89.253 49.815V49.594H90.787V49.776C90.787 50.8333 90.4837 51.6653 89.877 52.272C89.279 52.8787 88.4253 53.182 87.316 53.182ZM94.0315 53.182C93.5808 53.182 93.1735 53.104 92.8095 52.948C92.4455 52.7833 92.1552 52.5493 91.9385 52.246C91.7305 51.9427 91.6265 51.57 91.6265 51.128C91.6265 50.6947 91.7305 50.3307 91.9385 50.036C92.1552 49.7413 92.4498 49.5203 92.8225 49.373C93.1952 49.217 93.6198 49.139 94.0965 49.139H95.9555V48.749C95.9555 48.411 95.8515 48.138 95.6435 47.93C95.4355 47.7133 95.1105 47.605 94.6685 47.605C94.2352 47.605 93.9058 47.709 93.6805 47.917C93.4638 48.1163 93.3208 48.3763 93.2515 48.697L91.8735 48.242C91.9775 47.904 92.1422 47.5963 92.3675 47.319C92.6015 47.0417 92.9092 46.8207 93.2905 46.656C93.6718 46.4827 94.1398 46.396 94.6945 46.396C95.5352 46.396 96.1938 46.6083 96.6705 47.033C97.1558 47.449 97.3985 48.0557 97.3985 48.853V51.375C97.3985 51.635 97.5198 51.765 97.7625 51.765H98.3085V53H97.2555C96.9435 53 96.6878 52.922 96.4885 52.766C96.2892 52.61 96.1895 52.3977 96.1895 52.129V52.103H95.9685C95.9165 52.2243 95.8255 52.3717 95.6955 52.545C95.5655 52.7183 95.3662 52.87 95.0975 53C94.8375 53.1213 94.4822 53.182 94.0315 53.182ZM94.2785 51.96C94.7725 51.96 95.1755 51.8213 95.4875 51.544C95.7995 51.258 95.9555 50.8767 95.9555 50.4V50.27H94.1875C93.8668 50.27 93.6068 50.3393 93.4075 50.478C93.2082 50.6167 93.1085 50.8203 93.1085 51.089C93.1085 51.349 93.2125 51.5613 93.4205 51.726C93.6285 51.882 93.9145 51.96 94.2785 51.96ZM99.2854 53V43.9H100.78V53H99.2854ZM108.55 53.182C107.856 53.182 107.241 53.0607 106.704 52.818C106.175 52.5667 105.759 52.207 105.456 51.739C105.152 51.271 105.001 50.699 105.001 50.023V49.685H106.548V50.023C106.548 50.621 106.73 51.0673 107.094 51.362C107.458 51.6567 107.943 51.804 108.55 51.804C109.165 51.804 109.629 51.6783 109.941 51.427C110.253 51.1757 110.409 50.8507 110.409 50.452C110.409 50.1833 110.335 49.9667 110.188 49.802C110.04 49.6287 109.824 49.49 109.538 49.386C109.26 49.282 108.922 49.1823 108.524 49.087L108.134 49.009C107.536 48.8703 107.016 48.697 106.574 48.489C106.14 48.2723 105.807 47.995 105.573 47.657C105.339 47.319 105.222 46.877 105.222 46.331C105.222 45.785 105.352 45.317 105.612 44.927C105.872 44.537 106.24 44.238 106.717 44.03C107.193 43.822 107.752 43.718 108.394 43.718C109.035 43.718 109.607 43.8263 110.11 44.043C110.612 44.2597 111.007 44.5847 111.293 45.018C111.587 45.4513 111.735 45.993 111.735 46.643V47.072H110.188V46.643C110.188 46.2703 110.114 45.9713 109.967 45.746C109.819 45.5207 109.611 45.356 109.343 45.252C109.074 45.148 108.758 45.096 108.394 45.096C107.856 45.096 107.449 45.2 107.172 45.408C106.894 45.616 106.756 45.9107 106.756 46.292C106.756 46.5347 106.816 46.7427 106.938 46.916C107.068 47.0807 107.254 47.2193 107.497 47.332C107.748 47.436 108.06 47.527 108.433 47.605L108.823 47.696C109.447 47.8347 109.993 48.0123 110.461 48.229C110.929 48.437 111.293 48.7143 111.553 49.061C111.821 49.4077 111.956 49.8583 111.956 50.413C111.956 50.959 111.813 51.44 111.527 51.856C111.249 52.272 110.855 52.597 110.344 52.831C109.841 53.065 109.243 53.182 108.55 53.182ZM113.118 53V43.9H114.613V47.423H114.834C114.903 47.2757 115.016 47.1283 115.172 46.981C115.328 46.8337 115.531 46.7123 115.783 46.617C116.043 46.5217 116.368 46.474 116.758 46.474C117.252 46.474 117.689 46.5867 118.071 46.812C118.452 47.0287 118.747 47.3363 118.955 47.735C119.171 48.1337 119.28 48.606 119.28 49.152V53H117.785V49.269C117.785 48.749 117.655 48.3633 117.395 48.112C117.143 47.852 116.784 47.722 116.316 47.722C115.787 47.722 115.371 47.8997 115.068 48.255C114.764 48.6017 114.613 49.1 114.613 49.75V53H113.118ZM123.898 53.182C123.256 53.182 122.68 53.052 122.169 52.792C121.666 52.5233 121.267 52.1463 120.973 51.661C120.687 51.167 120.544 50.5777 120.544 49.893V49.685C120.544 49.0003 120.687 48.411 120.973 47.917C121.267 47.423 121.666 47.046 122.169 46.786C122.68 46.526 123.256 46.396 123.898 46.396C124.539 46.396 125.111 46.526 125.614 46.786C126.116 47.046 126.511 47.423 126.797 47.917C127.091 48.411 127.239 49.0003 127.239 49.685V49.893C127.239 50.5777 127.091 51.167 126.797 51.661C126.511 52.1463 126.116 52.5233 125.614 52.792C125.111 53.052 124.539 53.182 123.898 53.182ZM123.898 51.856C124.444 51.856 124.89 51.6827 125.237 51.336C125.583 50.9807 125.757 50.4867 125.757 49.854V49.724C125.757 49.0913 125.583 48.6017 125.237 48.255C124.89 47.8997 124.444 47.722 123.898 47.722C123.352 47.722 122.905 47.8997 122.559 48.255C122.212 48.6017 122.039 49.0913 122.039 49.724V49.854C122.039 50.4867 122.212 50.9807 122.559 51.336C122.905 51.6827 123.352 51.856 123.898 51.856ZM128.568 53V46.578H130.037V47.319H130.258C130.354 47.0503 130.514 46.8553 130.739 46.734C130.965 46.6127 131.233 46.552 131.545 46.552H132.325V47.878H131.519C131.086 47.878 130.735 47.995 130.466 48.229C130.198 48.4543 130.063 48.8053 130.063 49.282V53H128.568ZM135.831 53C135.415 53 135.081 52.8787 134.83 52.636C134.587 52.3847 134.466 52.0467 134.466 51.622V47.813H132.789V46.578H134.466V44.511H135.961V46.578H137.807V47.813H135.961V51.375C135.961 51.635 136.082 51.765 136.325 51.765H137.612V53H135.831Z" fill="black"/>
<path d="M222.3 53L224.9 43.9H227.37L229.957 53H228.514L227.916 50.855H224.354L223.756 53H222.3ZM224.705 49.555H227.565L226.239 44.771H226.031L224.705 49.555ZM233.621 53.182C233.093 53.182 232.603 53.052 232.152 52.792C231.702 52.532 231.338 52.1593 231.06 51.674C230.792 51.18 230.657 50.5863 230.657 49.893V49.698C230.657 49.0133 230.792 48.424 231.06 47.93C231.329 47.436 231.689 47.059 232.139 46.799C232.59 46.539 233.084 46.409 233.621 46.409C234.037 46.409 234.384 46.461 234.661 46.565C234.947 46.669 235.181 46.8033 235.363 46.968C235.545 47.124 235.684 47.2887 235.779 47.462H235.987V43.9H237.326V53H236.013V52.09H235.805C235.641 52.3673 235.389 52.6187 235.051 52.844C234.722 53.0693 234.245 53.182 233.621 53.182ZM233.998 52.012C234.579 52.012 235.056 51.8257 235.428 51.453C235.81 51.0803 236 50.5473 236 49.854V49.737C236 49.0523 235.814 48.5237 235.441 48.151C235.069 47.7783 234.588 47.592 233.998 47.592C233.426 47.592 232.95 47.7783 232.568 48.151C232.196 48.5237 232.009 49.0523 232.009 49.737V49.854C232.009 50.5473 232.196 51.0803 232.568 51.453C232.95 51.8257 233.426 52.012 233.998 52.012ZM239.037 53V46.591H240.35V47.345H240.558C240.68 47.1197 240.875 46.9203 241.143 46.747C241.412 46.5737 241.776 46.487 242.235 46.487C242.712 46.487 243.093 46.5867 243.379 46.786C243.674 46.9767 243.895 47.2237 244.042 47.527H244.25C244.398 47.2323 244.61 46.9853 244.887 46.786C245.173 46.5867 245.576 46.487 246.096 46.487C246.512 46.487 246.881 46.5737 247.201 46.747C247.522 46.9117 247.778 47.163 247.968 47.501C248.159 47.8303 248.254 48.242 248.254 48.736V53H246.915V48.84C246.915 48.45 246.807 48.151 246.59 47.943C246.382 47.7263 246.083 47.618 245.693 47.618C245.277 47.618 244.944 47.7523 244.692 48.021C244.441 48.2897 244.315 48.6753 244.315 49.178V53H242.976V48.84C242.976 48.45 242.868 48.151 242.651 47.943C242.443 47.7263 242.144 47.618 241.754 47.618C241.338 47.618 241.005 47.7523 240.753 48.021C240.502 48.2897 240.376 48.6753 240.376 49.178V53H239.037ZM249.924 53V46.591H251.263V53H249.924ZM250.6 45.72C250.34 45.72 250.119 45.6377 249.937 45.473C249.763 45.2997 249.677 45.0787 249.677 44.81C249.677 44.5413 249.763 44.3247 249.937 44.16C250.119 43.9867 250.34 43.9 250.6 43.9C250.868 43.9 251.089 43.9867 251.263 44.16C251.436 44.3247 251.523 44.5413 251.523 44.81C251.523 45.0787 251.436 45.2997 251.263 45.473C251.089 45.6377 250.868 45.72 250.6 45.72ZM252.99 53V46.591H254.303V47.553H254.511C254.632 47.293 254.849 47.0503 255.161 46.825C255.473 46.5997 255.937 46.487 256.552 46.487C257.037 46.487 257.466 46.5953 257.839 46.812C258.22 47.0287 258.519 47.3363 258.736 47.735C258.953 48.125 259.061 48.5973 259.061 49.152V53H257.722V49.256C257.722 48.7013 257.583 48.294 257.306 48.034C257.029 47.7653 256.647 47.631 256.162 47.631C255.607 47.631 255.161 47.813 254.823 48.177C254.494 48.541 254.329 49.0697 254.329 49.763V53H252.99Z" fill="#878787"/>
<rect x="29" y="79" width="247" height="40" rx="4" fill="white"/>
<rect x="29" y="79" width="247" height="40" rx="4" fill="white"/>
<circle cx="60" cy="99" r="12.5" fill="#FFC107"/>
<path d="M55.5604 103.5V95.1H58.2604L59.8924 102.528H60.0964L61.7404 95.1H64.4284V103.5H63.0364V96.144H62.8324L61.2004 103.5H58.8004L57.1684 96.144H56.9644V103.5H55.5604Z" fill="white"/>
<path d="M83.897 103V93.9H86.822L88.59 101.947H88.811L90.592 93.9H93.504V103H91.996V95.031H91.775L90.007 103H87.407L85.639 95.031H85.418V103H83.897ZM95.1021 103V96.578H96.5971V103H95.1021ZM95.8431 95.759C95.5744 95.759 95.3404 95.6723 95.1411 95.499C94.9504 95.317 94.8551 95.0787 94.8551 94.784C94.8551 94.4893 94.9504 94.2553 95.1411 94.082C95.3404 93.9 95.5744 93.809 95.8431 93.809C96.1291 93.809 96.3631 93.9 96.5451 94.082C96.7358 94.2553 96.8311 94.4893 96.8311 94.784C96.8311 95.0787 96.7358 95.317 96.5451 95.499C96.3631 95.6723 96.1291 95.759 95.8431 95.759ZM98.2317 103V93.9H99.7267V99.009H99.9477L102.262 96.578H104.225L101.118 99.685L104.329 103H102.392L99.9477 100.387H99.7267V103H98.2317ZM107.778 103.182C107.137 103.182 106.569 103.048 106.075 102.779C105.59 102.502 105.208 102.116 104.931 101.622C104.662 101.119 104.528 100.534 104.528 99.867V99.711C104.528 99.035 104.662 98.45 104.931 97.956C105.2 97.462 105.577 97.0807 106.062 96.812C106.547 96.5347 107.106 96.396 107.739 96.396C108.363 96.396 108.909 96.5347 109.377 96.812C109.845 97.0807 110.209 97.462 110.469 97.956C110.729 98.45 110.859 99.0263 110.859 99.685V100.218H106.036C106.053 100.721 106.231 101.124 106.569 101.427C106.907 101.73 107.323 101.882 107.817 101.882C108.302 101.882 108.662 101.778 108.896 101.57C109.13 101.353 109.308 101.111 109.429 100.842L110.664 101.479C110.543 101.713 110.365 101.964 110.131 102.233C109.906 102.493 109.602 102.718 109.221 102.909C108.84 103.091 108.359 103.182 107.778 103.182ZM106.049 99.087H109.338C109.303 98.6623 109.139 98.3243 108.844 98.073C108.558 97.8217 108.185 97.696 107.726 97.696C107.249 97.696 106.868 97.8217 106.582 98.073C106.296 98.3243 106.118 98.6623 106.049 99.087ZM117.696 103.182C116.769 103.182 116.032 102.931 115.486 102.428C114.949 101.917 114.68 101.197 114.68 100.27V99.451H116.24V100.27C116.24 100.721 116.361 101.076 116.604 101.336C116.847 101.596 117.198 101.726 117.657 101.726C118.09 101.726 118.415 101.596 118.632 101.336C118.857 101.076 118.97 100.721 118.97 100.27V95.317H117.41V93.9H121.557V95.317H120.543V100.27C120.543 101.215 120.292 101.938 119.789 102.441C119.286 102.935 118.589 103.182 117.696 103.182ZM125.396 103.182C124.755 103.182 124.178 103.052 123.667 102.792C123.164 102.523 122.766 102.146 122.471 101.661C122.185 101.167 122.042 100.578 122.042 99.893V99.685C122.042 99.0003 122.185 98.411 122.471 97.917C122.766 97.423 123.164 97.046 123.667 96.786C124.178 96.526 124.755 96.396 125.396 96.396C126.037 96.396 126.609 96.526 127.112 96.786C127.615 97.046 128.009 97.423 128.295 97.917C128.59 98.411 128.737 99.0003 128.737 99.685V99.893C128.737 100.578 128.59 101.167 128.295 101.661C128.009 102.146 127.615 102.523 127.112 102.792C126.609 103.052 126.037 103.182 125.396 103.182ZM125.396 101.856C125.942 101.856 126.388 101.683 126.735 101.336C127.082 100.981 127.255 100.487 127.255 99.854V99.724C127.255 99.0913 127.082 98.6017 126.735 98.255C126.388 97.8997 125.942 97.722 125.396 97.722C124.85 97.722 124.404 97.8997 124.057 98.255C123.71 98.6017 123.537 99.0913 123.537 99.724V99.854C123.537 100.487 123.71 100.981 124.057 101.336C124.404 101.683 124.85 101.856 125.396 101.856ZM130.067 103V96.578H131.536V97.475H131.757C131.869 97.2323 132.073 97.0027 132.368 96.786C132.662 96.5693 133.109 96.461 133.707 96.461C134.201 96.461 134.638 96.5737 135.02 96.799C135.401 97.0243 135.696 97.3363 135.904 97.735C136.12 98.1337 136.229 98.606 136.229 99.152V103H134.734V99.269C134.734 98.749 134.604 98.3633 134.344 98.112C134.092 97.852 133.733 97.722 133.265 97.722C132.736 97.722 132.32 97.8997 132.017 98.255C131.713 98.6017 131.562 99.1 131.562 99.75V103H130.067ZM140.743 103.182C140.101 103.182 139.534 103.048 139.04 102.779C138.554 102.502 138.173 102.116 137.896 101.622C137.627 101.119 137.493 100.534 137.493 99.867V99.711C137.493 99.035 137.627 98.45 137.896 97.956C138.164 97.462 138.541 97.0807 139.027 96.812C139.512 96.5347 140.071 96.396 140.704 96.396C141.328 96.396 141.874 96.5347 142.342 96.812C142.81 97.0807 143.174 97.462 143.434 97.956C143.694 98.45 143.824 99.0263 143.824 99.685V100.218H139.001C139.018 100.721 139.196 101.124 139.534 101.427C139.872 101.73 140.288 101.882 140.782 101.882C141.267 101.882 141.627 101.778 141.861 101.57C142.095 101.353 142.272 101.111 142.394 100.842L143.629 101.479C143.507 101.713 143.33 101.964 143.096 102.233C142.87 102.493 142.567 102.718 142.186 102.909C141.804 103.091 141.323 103.182 140.743 103.182ZM139.014 99.087H142.303C142.268 98.6623 142.103 98.3243 141.809 98.073C141.523 97.8217 141.15 97.696 140.691 97.696C140.214 97.696 139.833 97.8217 139.547 98.073C139.261 98.3243 139.083 98.6623 139.014 99.087ZM147.75 103.182C146.918 103.182 146.234 103 145.696 102.636C145.159 102.272 144.834 101.739 144.721 101.037L146.099 100.686C146.16 101.015 146.268 101.275 146.424 101.466C146.58 101.657 146.771 101.791 146.996 101.869C147.23 101.947 147.482 101.986 147.75 101.986C148.158 101.986 148.461 101.912 148.66 101.765C148.868 101.618 148.972 101.431 148.972 101.206C148.972 100.972 148.873 100.799 148.673 100.686C148.483 100.573 148.188 100.478 147.789 100.4L147.386 100.335C146.944 100.248 146.541 100.131 146.177 99.984C145.813 99.828 145.519 99.62 145.293 99.36C145.077 99.0913 144.968 98.7533 144.968 98.346C144.968 97.722 145.198 97.241 145.657 96.903C146.125 96.565 146.736 96.396 147.49 96.396C148.21 96.396 148.803 96.5563 149.271 96.877C149.739 97.1977 150.043 97.6267 150.181 98.164L148.803 98.58C148.734 98.216 148.582 97.9603 148.348 97.813C148.114 97.657 147.828 97.579 147.49 97.579C147.144 97.579 146.875 97.6397 146.684 97.761C146.502 97.8823 146.411 98.0557 146.411 98.281C146.411 98.5063 146.507 98.6753 146.697 98.788C146.888 98.9007 147.144 98.983 147.464 99.035L147.867 99.113C148.344 99.1997 148.773 99.3123 149.154 99.451C149.544 99.5897 149.852 99.789 150.077 100.049C150.303 100.309 150.415 100.66 150.415 101.102C150.415 101.769 150.173 102.285 149.687 102.649C149.211 103.004 148.565 103.182 147.75 103.182Z" fill="black"/>
<path d="M224.855 103L223.516 93.9H224.92L226.012 102.051H226.22L227.624 93.9H230.081L231.485 102.051H231.693L232.772 93.9H234.176L232.837 103H230.38L228.95 94.732H228.742L227.325 103H224.855ZM235.33 103V96.591H236.643V97.345H236.851C236.955 97.0763 237.119 96.8813 237.345 96.76C237.579 96.63 237.865 96.565 238.203 96.565H238.97V97.774H238.151C237.717 97.774 237.362 97.8953 237.085 98.138C236.807 98.372 236.669 98.736 236.669 99.23V103H235.33ZM240.097 103V96.591H241.436V103H240.097ZM240.773 95.72C240.513 95.72 240.292 95.6377 240.11 95.473C239.937 95.2997 239.85 95.0787 239.85 94.81C239.85 94.5413 239.937 94.3247 240.11 94.16C240.292 93.9867 240.513 93.9 240.773 93.9C241.042 93.9 241.263 93.9867 241.436 94.16C241.609 94.3247 241.696 94.5413 241.696 94.81C241.696 95.0787 241.609 95.2997 241.436 95.473C241.263 95.6377 241.042 95.72 240.773 95.72ZM245.568 103C245.178 103 244.866 102.883 244.632 102.649C244.407 102.415 244.294 102.103 244.294 101.713V97.722H242.526V96.591H244.294V94.472H245.633V96.591H247.544V97.722H245.633V101.479C245.633 101.739 245.755 101.869 245.997 101.869H247.336V103H245.568ZM251.567 103.182C250.917 103.182 250.349 103.048 249.864 102.779C249.379 102.502 248.997 102.116 248.72 101.622C248.451 101.119 248.317 100.539 248.317 99.88V99.724C248.317 99.0567 248.451 98.476 248.72 97.982C248.989 97.4793 249.361 97.0937 249.838 96.825C250.323 96.5477 250.882 96.409 251.515 96.409C252.13 96.409 252.668 96.5477 253.127 96.825C253.595 97.0937 253.959 97.4707 254.219 97.956C254.479 98.4413 254.609 99.009 254.609 99.659V100.166H249.682C249.699 100.729 249.886 101.18 250.241 101.518C250.605 101.847 251.056 102.012 251.593 102.012C252.096 102.012 252.473 101.899 252.724 101.674C252.984 101.449 253.183 101.189 253.322 100.894L254.427 101.466C254.306 101.709 254.128 101.964 253.894 102.233C253.669 102.502 253.37 102.727 252.997 102.909C252.624 103.091 252.148 103.182 251.567 103.182ZM249.695 99.139H253.244C253.209 98.6537 253.036 98.2767 252.724 98.008C252.412 97.7307 252.005 97.592 251.502 97.592C250.999 97.592 250.588 97.7307 250.267 98.008C249.955 98.2767 249.764 98.6537 249.695 99.139ZM255.961 103V96.591H257.274V97.345H257.482C257.586 97.0763 257.75 96.8813 257.976 96.76C258.21 96.63 258.496 96.565 258.834 96.565H259.601V97.774H258.782C258.348 97.774 257.993 97.8953 257.716 98.138C257.438 98.372 257.3 98.736 257.3 99.23V103H255.961Z" fill="#878787"/>
<rect x="29" y="129" width="247" height="40" rx="4" fill="white"/>
<rect x="29" y="129" width="247" height="40" rx="4" fill="white"/>
<circle cx="60" cy="149" r="12.5" fill="#228252"/>
<path d="M60.1285 153.668C59.1045 153.668 58.2885 153.38 57.6805 152.804C57.0725 152.22 56.7685 151.384 56.7685 150.296V148.304C56.7685 147.216 57.0725 146.384 57.6805 145.808C58.2885 145.224 59.1045 144.932 60.1285 144.932C61.1525 144.932 61.9405 145.212 62.4925 145.772C63.0525 146.332 63.3325 147.1 63.3325 148.076V148.148H61.9165V148.04C61.9165 147.512 61.7685 147.08 61.4725 146.744C61.1845 146.4 60.7365 146.228 60.1285 146.228C59.5365 146.228 59.0685 146.412 58.7245 146.78C58.3885 147.14 58.2205 147.64 58.2205 148.28V150.32C58.2205 150.952 58.3885 151.452 58.7245 151.82C59.0685 152.188 59.5365 152.372 60.1285 152.372C60.7365 152.372 61.1845 152.204 61.4725 151.868C61.7685 151.524 61.9165 151.088 61.9165 150.56V150.356H63.3325V150.524C63.3325 151.5 63.0525 152.268 62.4925 152.828C61.9405 153.388 61.1525 153.668 60.1285 153.668Z" fill="white"/>
<path d="M83.897 153V143.9H85.47V147.605H85.691L88.863 143.9H90.878L86.913 148.385L91.008 153H88.941L85.691 149.217H85.47V153H83.897ZM93.7649 153.182C93.3142 153.182 92.9069 153.104 92.5429 152.948C92.1789 152.783 91.8886 152.549 91.6719 152.246C91.4639 151.943 91.3599 151.57 91.3599 151.128C91.3599 150.695 91.4639 150.331 91.6719 150.036C91.8886 149.741 92.1832 149.52 92.5559 149.373C92.9286 149.217 93.3532 149.139 93.8299 149.139H95.6889V148.749C95.6889 148.411 95.5849 148.138 95.3769 147.93C95.1689 147.713 94.8439 147.605 94.4019 147.605C93.9686 147.605 93.6392 147.709 93.4139 147.917C93.1972 148.116 93.0542 148.376 92.9849 148.697L91.6069 148.242C91.7109 147.904 91.8756 147.596 92.1009 147.319C92.3349 147.042 92.6426 146.821 93.0239 146.656C93.4052 146.483 93.8732 146.396 94.4279 146.396C95.2686 146.396 95.9272 146.608 96.4039 147.033C96.8892 147.449 97.1319 148.056 97.1319 148.853V151.375C97.1319 151.635 97.2532 151.765 97.4959 151.765H98.0419V153H96.9889C96.6769 153 96.4212 152.922 96.2219 152.766C96.0226 152.61 95.9229 152.398 95.9229 152.129V152.103H95.7019C95.6499 152.224 95.5589 152.372 95.4289 152.545C95.2989 152.718 95.0996 152.87 94.8309 153C94.5709 153.121 94.2156 153.182 93.7649 153.182ZM94.0119 151.96C94.5059 151.96 94.9089 151.821 95.2209 151.544C95.5329 151.258 95.6889 150.877 95.6889 150.4V150.27H93.9209C93.6002 150.27 93.3402 150.339 93.1409 150.478C92.9416 150.617 92.8419 150.82 92.8419 151.089C92.8419 151.349 92.9459 151.561 93.1539 151.726C93.3619 151.882 93.6479 151.96 94.0119 151.96ZM101.006 153C100.59 153 100.256 152.879 100.005 152.636C99.7621 152.385 99.6408 152.047 99.6408 151.622V147.813H97.9638V146.578H99.6408V144.511H101.136V146.578H102.982V147.813H101.136V151.375C101.136 151.635 101.257 151.765 101.5 151.765H102.787V153H101.006ZM104.243 153V146.578H105.738V153H104.243ZM104.984 145.759C104.716 145.759 104.482 145.672 104.282 145.499C104.092 145.317 103.996 145.079 103.996 144.784C103.996 144.489 104.092 144.255 104.282 144.082C104.482 143.9 104.716 143.809 104.984 143.809C105.27 143.809 105.504 143.9 105.686 144.082C105.877 144.255 105.972 144.489 105.972 144.784C105.972 145.079 105.877 145.317 105.686 145.499C105.504 145.672 105.27 145.759 104.984 145.759ZM110.311 153.182C109.67 153.182 109.102 153.048 108.608 152.779C108.123 152.502 107.741 152.116 107.464 151.622C107.195 151.119 107.061 150.534 107.061 149.867V149.711C107.061 149.035 107.195 148.45 107.464 147.956C107.733 147.462 108.11 147.081 108.595 146.812C109.08 146.535 109.639 146.396 110.272 146.396C110.896 146.396 111.442 146.535 111.91 146.812C112.378 147.081 112.742 147.462 113.002 147.956C113.262 148.45 113.392 149.026 113.392 149.685V150.218H108.569C108.586 150.721 108.764 151.124 109.102 151.427C109.44 151.73 109.856 151.882 110.35 151.882C110.835 151.882 111.195 151.778 111.429 151.57C111.663 151.353 111.841 151.111 111.962 150.842L113.197 151.479C113.076 151.713 112.898 151.964 112.664 152.233C112.439 152.493 112.135 152.718 111.754 152.909C111.373 153.091 110.892 153.182 110.311 153.182ZM108.582 149.087H111.871C111.836 148.662 111.672 148.324 111.377 148.073C111.091 147.822 110.718 147.696 110.259 147.696C109.782 147.696 109.401 147.822 109.115 148.073C108.829 148.324 108.651 148.662 108.582 149.087ZM120.801 153.182C120.108 153.182 119.492 153.061 118.955 152.818C118.426 152.567 118.01 152.207 117.707 151.739C117.404 151.271 117.252 150.699 117.252 150.023V149.685H118.799V150.023C118.799 150.621 118.981 151.067 119.345 151.362C119.709 151.657 120.194 151.804 120.801 151.804C121.416 151.804 121.88 151.678 122.192 151.427C122.504 151.176 122.66 150.851 122.66 150.452C122.66 150.183 122.586 149.967 122.439 149.802C122.292 149.629 122.075 149.49 121.789 149.386C121.512 149.282 121.174 149.182 120.775 149.087L120.385 149.009C119.787 148.87 119.267 148.697 118.825 148.489C118.392 148.272 118.058 147.995 117.824 147.657C117.59 147.319 117.473 146.877 117.473 146.331C117.473 145.785 117.603 145.317 117.863 144.927C118.123 144.537 118.491 144.238 118.968 144.03C119.445 143.822 120.004 143.718 120.645 143.718C121.286 143.718 121.858 143.826 122.361 144.043C122.864 144.26 123.258 144.585 123.544 145.018C123.839 145.451 123.986 145.993 123.986 146.643V147.072H122.439V146.643C122.439 146.27 122.365 145.971 122.218 145.746C122.071 145.521 121.863 145.356 121.594 145.252C121.325 145.148 121.009 145.096 120.645 145.096C120.108 145.096 119.7 145.2 119.423 145.408C119.146 145.616 119.007 145.911 119.007 146.292C119.007 146.535 119.068 146.743 119.189 146.916C119.319 147.081 119.505 147.219 119.748 147.332C119.999 147.436 120.311 147.527 120.684 147.605L121.074 147.696C121.698 147.835 122.244 148.012 122.712 148.229C123.18 148.437 123.544 148.714 123.804 149.061C124.073 149.408 124.207 149.858 124.207 150.413C124.207 150.959 124.064 151.44 123.778 151.856C123.501 152.272 123.106 152.597 122.595 152.831C122.092 153.065 121.494 153.182 120.801 153.182ZM125.369 153V146.578H126.838V147.293H127.059C127.172 147.076 127.358 146.886 127.618 146.721C127.887 146.548 128.242 146.461 128.684 146.461C129.152 146.461 129.529 146.556 129.815 146.747C130.101 146.938 130.318 147.18 130.465 147.475H130.673C130.821 147.18 131.033 146.938 131.31 146.747C131.588 146.556 131.982 146.461 132.493 146.461C132.892 146.461 133.252 146.548 133.572 146.721C133.902 146.894 134.162 147.15 134.352 147.488C134.552 147.826 134.651 148.246 134.651 148.749V153H133.156V148.853C133.156 148.48 133.057 148.199 132.857 148.008C132.658 147.809 132.381 147.709 132.025 147.709C131.635 147.709 131.323 147.839 131.089 148.099C130.864 148.35 130.751 148.714 130.751 149.191V153H129.269V148.853C129.269 148.48 129.17 148.199 128.97 148.008C128.771 147.809 128.494 147.709 128.138 147.709C127.74 147.709 127.428 147.839 127.202 148.099C126.977 148.35 126.864 148.714 126.864 149.191V153H125.369ZM136.23 153V146.578H137.725V153H136.23ZM136.971 145.759C136.703 145.759 136.469 145.672 136.269 145.499C136.079 145.317 135.983 145.079 135.983 144.784C135.983 144.489 136.079 144.255 136.269 144.082C136.469 143.9 136.703 143.809 136.971 143.809C137.257 143.809 137.491 143.9 137.673 144.082C137.864 144.255 137.959 144.489 137.959 144.784C137.959 145.079 137.864 145.317 137.673 145.499C137.491 145.672 137.257 145.759 136.971 145.759ZM141.804 153C141.388 153 141.054 152.879 140.803 152.636C140.56 152.385 140.439 152.047 140.439 151.622V147.813H138.762V146.578H140.439V144.511H141.934V146.578H143.78V147.813H141.934V151.375C141.934 151.635 142.055 151.765 142.298 151.765H143.585V153H141.804ZM145.041 153V143.9H146.536V147.423H146.757C146.827 147.276 146.939 147.128 147.095 146.981C147.251 146.834 147.455 146.712 147.706 146.617C147.966 146.522 148.291 146.474 148.681 146.474C149.175 146.474 149.613 146.587 149.994 146.812C150.376 147.029 150.67 147.336 150.878 147.735C151.095 148.134 151.203 148.606 151.203 149.152V153H149.708V149.269C149.708 148.749 149.578 148.363 149.318 148.112C149.067 147.852 148.707 147.722 148.239 147.722C147.711 147.722 147.295 147.9 146.991 148.255C146.688 148.602 146.536 149.1 146.536 149.75V153H145.041Z" fill="black"/>
<path d="M224.855 153L223.516 143.9H224.92L226.012 152.051H226.22L227.624 143.9H230.081L231.485 152.051H231.693L232.772 143.9H234.176L232.837 153H230.38L228.95 144.732H228.742L227.325 153H224.855ZM235.33 153V146.591H236.643V147.345H236.851C236.955 147.076 237.119 146.881 237.345 146.76C237.579 146.63 237.865 146.565 238.203 146.565H238.97V147.774H238.151C237.717 147.774 237.362 147.895 237.085 148.138C236.807 148.372 236.669 148.736 236.669 149.23V153H235.33ZM240.097 153V146.591H241.436V153H240.097ZM240.773 145.72C240.513 145.72 240.292 145.638 240.11 145.473C239.937 145.3 239.85 145.079 239.85 144.81C239.85 144.541 239.937 144.325 240.11 144.16C240.292 143.987 240.513 143.9 240.773 143.9C241.042 143.9 241.263 143.987 241.436 144.16C241.609 144.325 241.696 144.541 241.696 144.81C241.696 145.079 241.609 145.3 241.436 145.473C241.263 145.638 241.042 145.72 240.773 145.72ZM245.568 153C245.178 153 244.866 152.883 244.632 152.649C244.407 152.415 244.294 152.103 244.294 151.713V147.722H242.526V146.591H244.294V144.472H245.633V146.591H247.544V147.722H245.633V151.479C245.633 151.739 245.755 151.869 245.997 151.869H247.336V153H245.568ZM251.567 153.182C250.917 153.182 250.349 153.048 249.864 152.779C249.379 152.502 248.997 152.116 248.72 151.622C248.451 151.119 248.317 150.539 248.317 149.88V149.724C248.317 149.057 248.451 148.476 248.72 147.982C248.989 147.479 249.361 147.094 249.838 146.825C250.323 146.548 250.882 146.409 251.515 146.409C252.13 146.409 252.668 146.548 253.127 146.825C253.595 147.094 253.959 147.471 254.219 147.956C254.479 148.441 254.609 149.009 254.609 149.659V150.166H249.682C249.699 150.729 249.886 151.18 250.241 151.518C250.605 151.847 251.056 152.012 251.593 152.012C252.096 152.012 252.473 151.899 252.724 151.674C252.984 151.449 253.183 151.189 253.322 150.894L254.427 151.466C254.306 151.709 254.128 151.964 253.894 152.233C253.669 152.502 253.37 152.727 252.997 152.909C252.624 153.091 252.148 153.182 251.567 153.182ZM249.695 149.139H253.244C253.209 148.654 253.036 148.277 252.724 148.008C252.412 147.731 252.005 147.592 251.502 147.592C250.999 147.592 250.588 147.731 250.267 148.008C249.955 148.277 249.764 148.654 249.695 149.139ZM255.961 153V146.591H257.274V147.345H257.482C257.586 147.076 257.75 146.881 257.976 146.76C258.21 146.63 258.496 146.565 258.834 146.565H259.601V147.774H258.782C258.348 147.774 257.993 147.895 257.716 148.138C257.438 148.372 257.3 148.736 257.3 149.23V153H255.961Z" fill="#878787"/>
<rect x="29" y="179" width="247" height="40" rx="4" fill="white"/>
<rect x="29" y="179" width="247" height="40" rx="4" fill="white"/>
<path d="M72.5 199C72.5 205.904 66.9036 211.5 60 211.5C53.0964 211.5 47.5 205.904 47.5 199C47.5 192.096 53.0964 186.5 60 186.5C66.9036 186.5 72.5 192.096 72.5 199Z" fill="#8F388F"/>
<path d="M60.1285 203.668C59.1045 203.668 58.2885 203.38 57.6805 202.804C57.0725 202.22 56.7685 201.384 56.7685 200.296V198.304C56.7685 197.216 57.0725 196.384 57.6805 195.808C58.2885 195.224 59.1045 194.932 60.1285 194.932C61.1525 194.932 61.9405 195.212 62.4925 195.772C63.0525 196.332 63.3325 197.1 63.3325 198.076V198.148H61.9165V198.04C61.9165 197.512 61.7685 197.08 61.4725 196.744C61.1845 196.4 60.7365 196.228 60.1285 196.228C59.5365 196.228 59.0685 196.412 58.7245 196.78C58.3885 197.14 58.2205 197.64 58.2205 198.28V200.32C58.2205 200.952 58.3885 201.452 58.7245 201.82C59.0685 202.188 59.5365 202.372 60.1285 202.372C60.7365 202.372 61.1845 202.204 61.4725 201.868C61.7685 201.524 61.9165 201.088 61.9165 200.56V200.356H63.3325V200.524C63.3325 201.5 63.0525 202.268 62.4925 202.828C61.9405 203.388 61.1525 203.668 60.1285 203.668Z" fill="white"/>
<path d="M83.897 203V193.9H85.47V197.605H85.691L88.863 193.9H90.878L86.913 198.385L91.008 203H88.941L85.691 199.217H85.47V203H83.897ZM92.3513 205.6V204.3H95.9003C96.1429 204.3 96.2643 204.17 96.2643 203.91V202.116H96.0433C95.9739 202.272 95.8613 202.428 95.7053 202.584C95.5493 202.731 95.3413 202.857 95.0813 202.961C94.8213 203.056 94.4919 203.104 94.0933 203.104C93.5993 203.104 93.1616 202.996 92.7803 202.779C92.3989 202.554 92.1043 202.242 91.8963 201.843C91.6883 201.436 91.5843 200.963 91.5843 200.426V196.578H93.0663V200.309C93.0663 200.829 93.1919 201.215 93.4433 201.466C93.7033 201.717 94.0673 201.843 94.5353 201.843C95.0639 201.843 95.4799 201.67 95.7833 201.323C96.0953 200.976 96.2513 200.478 96.2513 199.828V196.578H97.7333V204.222C97.7333 204.647 97.6119 204.98 97.3693 205.223C97.1266 205.474 96.7973 205.6 96.3813 205.6H92.3513ZM99.3743 203V193.9H100.869V203H99.3743ZM105.442 203.182C104.801 203.182 104.233 203.048 103.739 202.779C103.254 202.502 102.872 202.116 102.595 201.622C102.326 201.119 102.192 200.534 102.192 199.867V199.711C102.192 199.035 102.326 198.45 102.595 197.956C102.864 197.462 103.241 197.081 103.726 196.812C104.211 196.535 104.77 196.396 105.403 196.396C106.027 196.396 106.573 196.535 107.041 196.812C107.509 197.081 107.873 197.462 108.133 197.956C108.393 198.45 108.523 199.026 108.523 199.685V200.218H103.7C103.717 200.721 103.895 201.124 104.233 201.427C104.571 201.73 104.987 201.882 105.481 201.882C105.966 201.882 106.326 201.778 106.56 201.57C106.794 201.353 106.972 201.111 107.093 200.842L108.328 201.479C108.207 201.713 108.029 201.964 107.795 202.233C107.57 202.493 107.266 202.718 106.885 202.909C106.504 203.091 106.023 203.182 105.442 203.182ZM103.713 199.087H107.002C106.967 198.662 106.803 198.324 106.508 198.073C106.222 197.822 105.849 197.696 105.39 197.696C104.913 197.696 104.532 197.822 104.246 198.073C103.96 198.324 103.782 198.662 103.713 199.087ZM112.799 203V193.9H114.372V197.722H117.96V193.9H119.533V203H117.96V199.152H114.372V203H112.799ZM124.164 203.182C123.523 203.182 122.947 203.052 122.435 202.792C121.933 202.523 121.534 202.146 121.239 201.661C120.953 201.167 120.81 200.578 120.81 199.893V199.685C120.81 199 120.953 198.411 121.239 197.917C121.534 197.423 121.933 197.046 122.435 196.786C122.947 196.526 123.523 196.396 124.164 196.396C124.806 196.396 125.378 196.526 125.88 196.786C126.383 197.046 126.777 197.423 127.063 197.917C127.358 198.411 127.505 199 127.505 199.685V199.893C127.505 200.578 127.358 201.167 127.063 201.661C126.777 202.146 126.383 202.523 125.88 202.792C125.378 203.052 124.806 203.182 124.164 203.182ZM124.164 201.856C124.71 201.856 125.157 201.683 125.503 201.336C125.85 200.981 126.023 200.487 126.023 199.854V199.724C126.023 199.091 125.85 198.602 125.503 198.255C125.157 197.9 124.71 197.722 124.164 197.722C123.618 197.722 123.172 197.9 122.825 198.255C122.479 198.602 122.305 199.091 122.305 199.724V199.854C122.305 200.487 122.479 200.981 122.825 201.336C123.172 201.683 123.618 201.856 124.164 201.856ZM128.835 203V196.578H130.304V197.319H130.525C130.62 197.05 130.781 196.855 131.006 196.734C131.231 196.613 131.5 196.552 131.812 196.552H132.592V197.878H131.786C131.353 197.878 131.002 197.995 130.733 198.229C130.464 198.454 130.33 198.805 130.33 199.282V203H128.835ZM133.653 203V196.578H135.122V197.475H135.343C135.456 197.232 135.66 197.003 135.954 196.786C136.249 196.569 136.695 196.461 137.293 196.461C137.787 196.461 138.225 196.574 138.606 196.799C138.988 197.024 139.282 197.336 139.49 197.735C139.707 198.134 139.815 198.606 139.815 199.152V203H138.32V199.269C138.32 198.749 138.19 198.363 137.93 198.112C137.679 197.852 137.319 197.722 136.851 197.722C136.323 197.722 135.907 197.9 135.603 198.255C135.3 198.602 135.148 199.1 135.148 199.75V203H133.653ZM144.329 203.182C143.688 203.182 143.12 203.048 142.626 202.779C142.141 202.502 141.76 202.116 141.482 201.622C141.214 201.119 141.079 200.534 141.079 199.867V199.711C141.079 199.035 141.214 198.45 141.482 197.956C141.751 197.462 142.128 197.081 142.613 196.812C143.099 196.535 143.658 196.396 144.29 196.396C144.914 196.396 145.46 196.535 145.928 196.812C146.396 197.081 146.76 197.462 147.02 197.956C147.28 198.45 147.41 199.026 147.41 199.685V200.218H142.587C142.605 200.721 142.782 201.124 143.12 201.427C143.458 201.73 143.874 201.882 144.368 201.882C144.854 201.882 145.213 201.778 145.447 201.57C145.681 201.353 145.859 201.111 145.98 200.842L147.215 201.479C147.094 201.713 146.916 201.964 146.682 202.233C146.457 202.493 146.154 202.718 145.772 202.909C145.391 203.091 144.91 203.182 144.329 203.182ZM142.6 199.087H145.889C145.855 198.662 145.69 198.324 145.395 198.073C145.109 197.822 144.737 197.696 144.277 197.696C143.801 197.696 143.419 197.822 143.133 198.073C142.847 198.324 142.67 198.662 142.6 199.087ZM148.685 203V196.578H150.154V197.319H150.375C150.47 197.05 150.631 196.855 150.856 196.734C151.081 196.613 151.35 196.552 151.662 196.552H152.442V197.878H151.636C151.203 197.878 150.852 197.995 150.583 198.229C150.314 198.454 150.18 198.805 150.18 199.282V203H148.685Z" fill="black"/>
<path d="M224.855 203L223.516 193.9H224.92L226.012 202.051H226.22L227.624 193.9H230.081L231.485 202.051H231.693L232.772 193.9H234.176L232.837 203H230.38L228.95 194.732H228.742L227.325 203H224.855ZM235.33 203V196.591H236.643V197.345H236.851C236.955 197.076 237.119 196.881 237.345 196.76C237.579 196.63 237.865 196.565 238.203 196.565H238.97V197.774H238.151C237.717 197.774 237.362 197.895 237.085 198.138C236.807 198.372 236.669 198.736 236.669 199.23V203H235.33ZM240.097 203V196.591H241.436V203H240.097ZM240.773 195.72C240.513 195.72 240.292 195.638 240.11 195.473C239.937 195.3 239.85 195.079 239.85 194.81C239.85 194.541 239.937 194.325 240.11 194.16C240.292 193.987 240.513 193.9 240.773 193.9C241.042 193.9 241.263 193.987 241.436 194.16C241.609 194.325 241.696 194.541 241.696 194.81C241.696 195.079 241.609 195.3 241.436 195.473C241.263 195.638 241.042 195.72 240.773 195.72ZM245.568 203C245.178 203 244.866 202.883 244.632 202.649C244.407 202.415 244.294 202.103 244.294 201.713V197.722H242.526V196.591H244.294V194.472H245.633V196.591H247.544V197.722H245.633V201.479C245.633 201.739 245.755 201.869 245.997 201.869H247.336V203H245.568ZM251.567 203.182C250.917 203.182 250.349 203.048 249.864 202.779C249.379 202.502 248.997 202.116 248.72 201.622C248.451 201.119 248.317 200.539 248.317 199.88V199.724C248.317 199.057 248.451 198.476 248.72 197.982C248.989 197.479 249.361 197.094 249.838 196.825C250.323 196.548 250.882 196.409 251.515 196.409C252.13 196.409 252.668 196.548 253.127 196.825C253.595 197.094 253.959 197.471 254.219 197.956C254.479 198.441 254.609 199.009 254.609 199.659V200.166H249.682C249.699 200.729 249.886 201.18 250.241 201.518C250.605 201.847 251.056 202.012 251.593 202.012C252.096 202.012 252.473 201.899 252.724 201.674C252.984 201.449 253.183 201.189 253.322 200.894L254.427 201.466C254.306 201.709 254.128 201.964 253.894 202.233C253.669 202.502 253.37 202.727 252.997 202.909C252.624 203.091 252.148 203.182 251.567 203.182ZM249.695 199.139H253.244C253.209 198.654 253.036 198.277 252.724 198.008C252.412 197.731 252.005 197.592 251.502 197.592C250.999 197.592 250.588 197.731 250.267 198.008C249.955 198.277 249.764 198.654 249.695 199.139ZM255.961 203V196.591H257.274V197.345H257.482C257.586 197.076 257.75 196.881 257.976 196.76C258.21 196.63 258.496 196.565 258.834 196.565H259.601V197.774H258.782C258.348 197.774 257.993 197.895 257.716 198.138C257.438 198.372 257.3 198.736 257.3 199.23V203H255.961Z" fill="#878787"/>
</svg>
